SplineFontDB: 3.2
FontName: MatrixSansScreen-Regular
FullName: Matrix Sans Screen
FamilyName: Matrix Sans Screen
Weight: Regular
Copyright: Copyright 2022 The Matrix Sans Project Authors (https://github.com/FriedOrange/MatrixSans)
Version: 0.302
ItalicAngle: 0
UnderlinePosition: -150
UnderlineWidth: 100
Ascent: 800
Descent: 200
InvalidEm: 0
LayerCount: 2
Layer: 0 0 "Back" 1
Layer: 1 0 "Fore" 0
XUID: [1021 655 -629464056 810]
StyleMap: 0x0000
FSType: 0
OS2Version: 0
OS2_WeightWidthSlopeOnly: 0
OS2_UseTypoMetrics: 1
CreationTime: 1657964544
ModificationTime: 1671367806
PfmFamily: 81
TTFWeight: 400
TTFWidth: 5
LineGap: 0
VLineGap: 90
Panose: 4 1 6 4 2 11 2 2 3 2
OS2TypoAscent: 1000
OS2TypoAOffset: 0
OS2TypoDescent: -300
OS2TypoDOffset: 0
OS2TypoLinegap: 0
OS2WinAscent: 1000
OS2WinAOffset: 0
OS2WinDescent: 200
OS2WinDOffset: 0
HheadAscent: 1000
HheadAOffset: 0
HheadDescent: -300
HheadDOffset: 0
OS2SubXSize: 714
OS2SubYSize: 714
OS2SubXOff: 0
OS2SubYOff: 200
OS2SupXSize: 714
OS2SupYSize: 714
OS2SupXOff: 0
OS2SupYOff: 300
OS2StrikeYSize: 88
OS2StrikeYPos: 306
OS2CapHeight: 700
OS2XHeight: 500
OS2FamilyClass: 2058
OS2Vendor: 'PfEd'
MarkAttachClasses: 1
DEI: 91125
LangName: 1033 "" "" "" "" "" "" "" "" "" "Brad Neil" "" "" "http://friedorange.xyz/" "This Font Software is licensed under the SIL Open Font License, Version 1.1. This license is available with a FAQ at: https://scripts.sil.org/OFL" "https://scripts.sil.org/OFL"
Encoding: UnicodeFull
UnicodeInterp: none
NameList: AGL For New Fonts
DisplaySize: -48
AntiAlias: 1
FitToEm: 1
WinInfo: 192 16 14
BeginPrivate: 0
EndPrivate
TeXData: 1 0 0 629146 314573 209715 524288 1048576 0 783286 444596 497025 792723 393216 433062 380633 303038 157286 324010 404750 52429 2506097 1059062 262144
AnchorClass2: "marks_above"""  "marks_below"""  "ogonek"""  "marks_aboveright""" 
BeginChars: 1114121 389

StartChar: exclam
Encoding: 33 33 1
Width: 200
Flags: HMW
LayerCount: 2
Fore
SplineSet
56 606 m 25
 56 694 l 25
 144 694 l 25
 144 606 l 25
 56 606 l 25
56 506 m 25
 56 594 l 25
 144 594 l 25
 144 506 l 25
 56 506 l 25
56 406 m 25
 56 494 l 25
 144 494 l 25
 144 406 l 25
 56 406 l 25
56 306 m 25
 56 394 l 25
 144 394 l 25
 144 306 l 25
 56 306 l 25
56 206 m 25
 56 294 l 25
 144 294 l 25
 144 206 l 25
 56 206 l 25
56 6 m 25
 56 94 l 25
 144 94 l 25
 144 6 l 25
 56 6 l 25
EndSplineSet
EndChar

StartChar: quotedbl
Encoding: 34 34 2
Width: 400
Flags: HMW
LayerCount: 2
Fore
SplineSet
56 606 m 25
 56 694 l 25
 144 694 l 25
 144 606 l 25
 56 606 l 25
256 606 m 25
 256 694 l 25
 344 694 l 25
 344 606 l 25
 256 606 l 25
56 506 m 25
 56 594 l 25
 144 594 l 25
 144 506 l 25
 56 506 l 25
256 506 m 25
 256 594 l 25
 344 594 l 25
 344 506 l 25
 256 506 l 25
56 406 m 25
 56 494 l 25
 144 494 l 25
 144 406 l 25
 56 406 l 25
256 406 m 25
 256 494 l 25
 344 494 l 25
 344 406 l 25
 256 406 l 25
EndSplineSet
EndChar

StartChar: numbersign
Encoding: 35 35 3
Width: 600
Flags: HMW
LayerCount: 2
Fore
SplineSet
156 606 m 25
 156 694 l 25
 244 694 l 25
 244 606 l 25
 156 606 l 25
356 606 m 25
 356 694 l 25
 444 694 l 25
 444 606 l 25
 356 606 l 25
156 506 m 25
 156 594 l 25
 244 594 l 25
 244 506 l 25
 156 506 l 25
356 506 m 25
 356 594 l 25
 444 594 l 25
 444 506 l 25
 356 506 l 25
56 406 m 25
 56 494 l 25
 144 494 l 25
 144 406 l 25
 56 406 l 25
156 406 m 25
 156 494 l 25
 244 494 l 25
 244 406 l 25
 156 406 l 25
256 406 m 25
 256 494 l 25
 344 494 l 25
 344 406 l 25
 256 406 l 25
356 406 m 25
 356 494 l 25
 444 494 l 25
 444 406 l 25
 356 406 l 25
456 406 m 25
 456 494 l 25
 544 494 l 25
 544 406 l 25
 456 406 l 25
156 306 m 25
 156 394 l 25
 244 394 l 25
 244 306 l 25
 156 306 l 25
356 306 m 25
 356 394 l 25
 444 394 l 25
 444 306 l 25
 356 306 l 25
56 206 m 25
 56 294 l 25
 144 294 l 25
 144 206 l 25
 56 206 l 25
156 206 m 25
 156 294 l 25
 244 294 l 25
 244 206 l 25
 156 206 l 25
256 206 m 25
 256 294 l 25
 344 294 l 25
 344 206 l 25
 256 206 l 25
356 206 m 25
 356 294 l 25
 444 294 l 25
 444 206 l 25
 356 206 l 25
456 206 m 25
 456 294 l 25
 544 294 l 25
 544 206 l 25
 456 206 l 25
156 106 m 25
 156 194 l 25
 244 194 l 25
 244 106 l 25
 156 106 l 25
356 106 m 25
 356 194 l 25
 444 194 l 25
 444 106 l 25
 356 106 l 25
156 6 m 25
 156 94 l 25
 244 94 l 25
 244 6 l 25
 156 6 l 25
356 6 m 25
 356 94 l 25
 444 94 l 25
 444 6 l 25
 356 6 l 25
EndSplineSet
EndChar

StartChar: dollar
Encoding: 36 36 4
Width: 600
Flags: HMW
LayerCount: 2
Fore
SplineSet
256 606 m 25
 256 694 l 25
 344 694 l 25
 344 606 l 25
 256 606 l 25
156 506 m 25
 156 594 l 25
 244 594 l 25
 244 506 l 25
 156 506 l 25
256 506 m 25
 256 594 l 25
 344 594 l 25
 344 506 l 25
 256 506 l 25
356 506 m 25
 356 594 l 25
 444 594 l 25
 444 506 l 25
 356 506 l 25
456 506 m 25
 456 594 l 25
 544 594 l 25
 544 506 l 25
 456 506 l 25
56 406 m 25
 56 494 l 25
 144 494 l 25
 144 406 l 25
 56 406 l 25
256 406 m 25
 256 494 l 25
 344 494 l 25
 344 406 l 25
 256 406 l 25
156 306 m 25
 156 394 l 25
 244 394 l 25
 244 306 l 25
 156 306 l 25
256 306 m 25
 256 394 l 25
 344 394 l 25
 344 306 l 25
 256 306 l 25
356 306 m 25
 356 394 l 25
 444 394 l 25
 444 306 l 25
 356 306 l 25
256 206 m 25
 256 294 l 25
 344 294 l 25
 344 206 l 25
 256 206 l 25
456 206 m 25
 456 294 l 25
 544 294 l 25
 544 206 l 25
 456 206 l 25
56 106 m 25
 56 194 l 25
 144 194 l 25
 144 106 l 25
 56 106 l 25
156 106 m 25
 156 194 l 25
 244 194 l 25
 244 106 l 25
 156 106 l 25
256 106 m 25
 256 194 l 25
 344 194 l 25
 344 106 l 25
 256 106 l 25
356 106 m 25
 356 194 l 25
 444 194 l 25
 444 106 l 25
 356 106 l 25
256 6 m 25
 256 94 l 25
 344 94 l 25
 344 6 l 25
 256 6 l 25
EndSplineSet
EndChar

StartChar: percent
Encoding: 37 37 5
Width: 600
Flags: HMW
LayerCount: 2
Fore
SplineSet
56 606 m 25
 56 694 l 25
 144 694 l 25
 144 606 l 25
 56 606 l 25
156 606 m 25
 156 694 l 25
 244 694 l 25
 244 606 l 25
 156 606 l 25
56 506 m 25
 56 594 l 25
 144 594 l 25
 144 506 l 25
 56 506 l 25
156 506 m 25
 156 594 l 25
 244 594 l 25
 244 506 l 25
 156 506 l 25
456 506 m 25
 456 594 l 25
 544 594 l 25
 544 506 l 25
 456 506 l 25
356 406 m 25
 356 494 l 25
 444 494 l 25
 444 406 l 25
 356 406 l 25
256 306 m 25
 256 394 l 25
 344 394 l 25
 344 306 l 25
 256 306 l 25
156 206 m 25
 156 294 l 25
 244 294 l 25
 244 206 l 25
 156 206 l 25
56 106 m 25
 56 194 l 25
 144 194 l 25
 144 106 l 25
 56 106 l 25
356 106 m 25
 356 194 l 25
 444 194 l 25
 444 106 l 25
 356 106 l 25
456 106 m 25
 456 194 l 25
 544 194 l 25
 544 106 l 25
 456 106 l 25
356 6 m 25
 356 94 l 25
 444 94 l 25
 444 6 l 25
 356 6 l 25
456 6 m 25
 456 94 l 25
 544 94 l 25
 544 6 l 25
 456 6 l 25
EndSplineSet
EndChar

StartChar: ampersand
Encoding: 38 38 6
Width: 600
Flags: HMW
LayerCount: 2
Fore
SplineSet
156 606 m 25
 156 694 l 25
 244 694 l 25
 244 606 l 25
 156 606 l 25
56 506 m 25
 56 594 l 25
 144 594 l 25
 144 506 l 25
 56 506 l 25
256 506 m 25
 256 594 l 25
 344 594 l 25
 344 506 l 25
 256 506 l 25
56 406 m 25
 56 494 l 25
 144 494 l 25
 144 406 l 25
 56 406 l 25
256 406 m 25
 256 494 l 25
 344 494 l 25
 344 406 l 25
 256 406 l 25
156 306 m 25
 156 394 l 25
 244 394 l 25
 244 306 l 25
 156 306 l 25
56 206 m 25
 56 294 l 25
 144 294 l 25
 144 206 l 25
 56 206 l 25
256 206 m 25
 256 294 l 25
 344 294 l 25
 344 206 l 25
 256 206 l 25
456 206 m 25
 456 294 l 25
 544 294 l 25
 544 206 l 25
 456 206 l 25
56 106 m 25
 56 194 l 25
 144 194 l 25
 144 106 l 25
 56 106 l 25
356 106 m 25
 356 194 l 25
 444 194 l 25
 444 106 l 25
 356 106 l 25
156 6 m 25
 156 94 l 25
 244 94 l 25
 244 6 l 25
 156 6 l 25
256 6 m 25
 256 94 l 25
 344 94 l 25
 344 6 l 25
 256 6 l 25
456 6 m 25
 456 94 l 25
 544 94 l 25
 544 6 l 25
 456 6 l 25
EndSplineSet
EndChar

StartChar: quotesingle
Encoding: 39 39 7
Width: 200
Flags: HMW
LayerCount: 2
Fore
SplineSet
56 606 m 25
 56 694 l 25
 144 694 l 25
 144 606 l 25
 56 606 l 25
56 506 m 25
 56 594 l 25
 144 594 l 25
 144 506 l 25
 56 506 l 25
56 406 m 25
 56 494 l 25
 144 494 l 25
 144 406 l 25
 56 406 l 25
EndSplineSet
EndChar

StartChar: parenleft
Encoding: 40 40 8
Width: 400
Flags: HMW
LayerCount: 2
Fore
SplineSet
256 606 m 25
 256 694 l 25
 344 694 l 25
 344 606 l 25
 256 606 l 25
156 506 m 25
 156 594 l 25
 244 594 l 25
 244 506 l 25
 156 506 l 25
56 406 m 25
 56 494 l 25
 144 494 l 25
 144 406 l 25
 56 406 l 25
56 306 m 25
 56 394 l 25
 144 394 l 25
 144 306 l 25
 56 306 l 25
56 206 m 25
 56 294 l 25
 144 294 l 25
 144 206 l 25
 56 206 l 25
156 106 m 25
 156 194 l 25
 244 194 l 25
 244 106 l 25
 156 106 l 25
256 6 m 25
 256 94 l 25
 344 94 l 25
 344 6 l 25
 256 6 l 25
EndSplineSet
EndChar

StartChar: parenright
Encoding: 41 41 9
Width: 400
Flags: HMW
LayerCount: 2
Fore
SplineSet
56 606 m 25
 56 694 l 25
 144 694 l 25
 144 606 l 25
 56 606 l 25
156 506 m 25
 156 594 l 25
 244 594 l 25
 244 506 l 25
 156 506 l 25
256 406 m 25
 256 494 l 25
 344 494 l 25
 344 406 l 25
 256 406 l 25
256 306 m 25
 256 394 l 25
 344 394 l 25
 344 306 l 25
 256 306 l 25
256 206 m 25
 256 294 l 25
 344 294 l 25
 344 206 l 25
 256 206 l 25
156 106 m 25
 156 194 l 25
 244 194 l 25
 244 106 l 25
 156 106 l 25
56 6 m 25
 56 94 l 25
 144 94 l 25
 144 6 l 25
 56 6 l 25
EndSplineSet
EndChar

StartChar: asterisk
Encoding: 42 42 10
Width: 600
Flags: HMW
LayerCount: 2
Fore
SplineSet
256 506 m 25
 256 594 l 25
 344 594 l 25
 344 506 l 25
 256 506 l 25
56 406 m 25
 56 494 l 25
 144 494 l 25
 144 406 l 25
 56 406 l 25
256 406 m 25
 256 494 l 25
 344 494 l 25
 344 406 l 25
 256 406 l 25
456 406 m 25
 456 494 l 25
 544 494 l 25
 544 406 l 25
 456 406 l 25
156 306 m 25
 156 394 l 25
 244 394 l 25
 244 306 l 25
 156 306 l 25
256 306 m 25
 256 394 l 25
 344 394 l 25
 344 306 l 25
 256 306 l 25
356 306 m 25
 356 394 l 25
 444 394 l 25
 444 306 l 25
 356 306 l 25
56 206 m 25
 56 294 l 25
 144 294 l 25
 144 206 l 25
 56 206 l 25
256 206 m 25
 256 294 l 25
 344 294 l 25
 344 206 l 25
 256 206 l 25
456 206 m 25
 456 294 l 25
 544 294 l 25
 544 206 l 25
 456 206 l 25
256 106 m 25
 256 194 l 25
 344 194 l 25
 344 106 l 25
 256 106 l 25
EndSplineSet
EndChar

StartChar: plus
Encoding: 43 43 11
Width: 600
Flags: HMW
LayerCount: 2
Fore
SplineSet
256 506 m 25
 256 594 l 25
 344 594 l 25
 344 506 l 25
 256 506 l 25
256 406 m 25
 256 494 l 25
 344 494 l 25
 344 406 l 25
 256 406 l 25
56 306 m 25
 56 394 l 25
 144 394 l 25
 144 306 l 25
 56 306 l 25
156 306 m 25
 156 394 l 25
 244 394 l 25
 244 306 l 25
 156 306 l 25
256 306 m 25
 256 394 l 25
 344 394 l 25
 344 306 l 25
 256 306 l 25
356 306 m 25
 356 394 l 25
 444 394 l 25
 444 306 l 25
 356 306 l 25
456 306 m 25
 456 394 l 25
 544 394 l 25
 544 306 l 25
 456 306 l 25
256 206 m 25
 256 294 l 25
 344 294 l 25
 344 206 l 25
 256 206 l 25
256 106 m 25
 256 194 l 25
 344 194 l 25
 344 106 l 25
 256 106 l 25
EndSplineSet
EndChar

StartChar: comma
Encoding: 44 44 12
Width: 300
Flags: HMW
LayerCount: 2
Fore
SplineSet
156 106 m 25
 156 194 l 25
 244 194 l 25
 244 106 l 25
 156 106 l 25
156 6 m 25
 156 94 l 25
 244 94 l 25
 244 6 l 25
 156 6 l 25
56 -94 m 25
 56 -6 l 25
 144 -6 l 25
 144 -94 l 25
 56 -94 l 25
EndSplineSet
EndChar

StartChar: hyphen
Encoding: 45 45 13
Width: 500
Flags: HMW
LayerCount: 2
Fore
SplineSet
56 306 m 25
 56 394 l 25
 144 394 l 25
 144 306 l 25
 56 306 l 25
156 306 m 25
 156 394 l 25
 244 394 l 25
 244 306 l 25
 156 306 l 25
256 306 m 25
 256 394 l 25
 344 394 l 25
 344 306 l 25
 256 306 l 25
356 306 m 25
 356 394 l 25
 444 394 l 25
 444 306 l 25
 356 306 l 25
EndSplineSet
EndChar

StartChar: period
Encoding: 46 46 14
Width: 200
Flags: HMW
LayerCount: 2
Fore
SplineSet
56 6 m 25
 56 94 l 25
 144 94 l 25
 144 6 l 25
 56 6 l 25
EndSplineSet
EndChar

StartChar: slash
Encoding: 47 47 15
Width: 600
Flags: HMW
LayerCount: 2
Fore
SplineSet
456 506 m 25
 456 594 l 25
 544 594 l 25
 544 506 l 25
 456 506 l 25
356 406 m 25
 356 494 l 25
 444 494 l 25
 444 406 l 25
 356 406 l 25
256 306 m 25
 256 394 l 25
 344 394 l 25
 344 306 l 25
 256 306 l 25
156 206 m 25
 156 294 l 25
 244 294 l 25
 244 206 l 25
 156 206 l 25
56 106 m 25
 56 194 l 25
 144 194 l 25
 144 106 l 25
 56 106 l 25
EndSplineSet
EndChar

StartChar: zero
Encoding: 48 48 16
Width: 600
Flags: HMW
LayerCount: 2
Fore
SplineSet
156 606 m 25
 156 694 l 25
 244 694 l 25
 244 606 l 25
 156 606 l 25
256 606 m 25
 256 694 l 25
 344 694 l 25
 344 606 l 25
 256 606 l 25
356 606 m 25
 356 694 l 25
 444 694 l 25
 444 606 l 25
 356 606 l 25
56 506 m 25
 56 594 l 25
 144 594 l 25
 144 506 l 25
 56 506 l 25
456 506 m 25
 456 594 l 25
 544 594 l 25
 544 506 l 25
 456 506 l 25
56 406 m 25
 56 494 l 25
 144 494 l 25
 144 406 l 25
 56 406 l 25
356 406 m 25
 356 494 l 25
 444 494 l 25
 444 406 l 25
 356 406 l 25
456 406 m 25
 456 494 l 25
 544 494 l 25
 544 406 l 25
 456 406 l 25
56 306 m 25
 56 394 l 25
 144 394 l 25
 144 306 l 25
 56 306 l 25
256 306 m 25
 256 394 l 25
 344 394 l 25
 344 306 l 25
 256 306 l 25
456 306 m 25
 456 394 l 25
 544 394 l 25
 544 306 l 25
 456 306 l 25
56 206 m 25
 56 294 l 25
 144 294 l 25
 144 206 l 25
 56 206 l 25
156 206 m 25
 156 294 l 25
 244 294 l 25
 244 206 l 25
 156 206 l 25
456 206 m 25
 456 294 l 25
 544 294 l 25
 544 206 l 25
 456 206 l 25
56 106 m 25
 56 194 l 25
 144 194 l 25
 144 106 l 25
 56 106 l 25
456 106 m 25
 456 194 l 25
 544 194 l 25
 544 106 l 25
 456 106 l 25
156 6 m 25
 156 94 l 25
 244 94 l 25
 244 6 l 25
 156 6 l 25
256 6 m 25
 256 94 l 25
 344 94 l 25
 344 6 l 25
 256 6 l 25
356 6 m 25
 356 94 l 25
 444 94 l 25
 444 6 l 25
 356 6 l 25
EndSplineSet
EndChar

StartChar: one
Encoding: 49 49 17
Width: 400
Flags: HMW
LayerCount: 2
Fore
SplineSet
156 606 m 25
 156 694 l 25
 244 694 l 25
 244 606 l 25
 156 606 l 25
56 506 m 25
 56 594 l 25
 144 594 l 25
 144 506 l 25
 56 506 l 25
156 506 m 25
 156 594 l 25
 244 594 l 25
 244 506 l 25
 156 506 l 25
156 406 m 25
 156 494 l 25
 244 494 l 25
 244 406 l 25
 156 406 l 25
156 306 m 25
 156 394 l 25
 244 394 l 25
 244 306 l 25
 156 306 l 25
156 206 m 25
 156 294 l 25
 244 294 l 25
 244 206 l 25
 156 206 l 25
156 106 m 25
 156 194 l 25
 244 194 l 25
 244 106 l 25
 156 106 l 25
56 6 m 25
 56 94 l 25
 144 94 l 25
 144 6 l 25
 56 6 l 25
156 6 m 25
 156 94 l 25
 244 94 l 25
 244 6 l 25
 156 6 l 25
256 6 m 25
 256 94 l 25
 344 94 l 25
 344 6 l 25
 256 6 l 25
EndSplineSet
EndChar

StartChar: two
Encoding: 50 50 18
Width: 600
Flags: HMW
LayerCount: 2
Fore
SplineSet
156 606 m 25
 156 694 l 25
 244 694 l 25
 244 606 l 25
 156 606 l 25
256 606 m 25
 256 694 l 25
 344 694 l 25
 344 606 l 25
 256 606 l 25
356 606 m 25
 356 694 l 25
 444 694 l 25
 444 606 l 25
 356 606 l 25
56 506 m 25
 56 594 l 25
 144 594 l 25
 144 506 l 25
 56 506 l 25
456 506 m 25
 456 594 l 25
 544 594 l 25
 544 506 l 25
 456 506 l 25
456 406 m 25
 456 494 l 25
 544 494 l 25
 544 406 l 25
 456 406 l 25
256 306 m 25
 256 394 l 25
 344 394 l 25
 344 306 l 25
 256 306 l 25
356 306 m 25
 356 394 l 25
 444 394 l 25
 444 306 l 25
 356 306 l 25
156 206 m 25
 156 294 l 25
 244 294 l 25
 244 206 l 25
 156 206 l 25
56 106 m 25
 56 194 l 25
 144 194 l 25
 144 106 l 25
 56 106 l 25
56 6 m 25
 56 94 l 25
 144 94 l 25
 144 6 l 25
 56 6 l 25
156 6 m 25
 156 94 l 25
 244 94 l 25
 244 6 l 25
 156 6 l 25
256 6 m 25
 256 94 l 25
 344 94 l 25
 344 6 l 25
 256 6 l 25
356 6 m 25
 356 94 l 25
 444 94 l 25
 444 6 l 25
 356 6 l 25
456 6 m 25
 456 94 l 25
 544 94 l 25
 544 6 l 25
 456 6 l 25
EndSplineSet
EndChar

StartChar: three
Encoding: 51 51 19
Width: 600
Flags: HMW
LayerCount: 2
Fore
SplineSet
156 606 m 25
 156 694 l 25
 244 694 l 25
 244 606 l 25
 156 606 l 25
256 606 m 25
 256 694 l 25
 344 694 l 25
 344 606 l 25
 256 606 l 25
356 606 m 25
 356 694 l 25
 444 694 l 25
 444 606 l 25
 356 606 l 25
56 506 m 25
 56 594 l 25
 144 594 l 25
 144 506 l 25
 56 506 l 25
456 506 m 25
 456 594 l 25
 544 594 l 25
 544 506 l 25
 456 506 l 25
456 406 m 25
 456 494 l 25
 544 494 l 25
 544 406 l 25
 456 406 l 25
256 306 m 25
 256 394 l 25
 344 394 l 25
 344 306 l 25
 256 306 l 25
356 306 m 25
 356 394 l 25
 444 394 l 25
 444 306 l 25
 356 306 l 25
456 206 m 25
 456 294 l 25
 544 294 l 25
 544 206 l 25
 456 206 l 25
56 106 m 25
 56 194 l 25
 144 194 l 25
 144 106 l 25
 56 106 l 25
456 106 m 25
 456 194 l 25
 544 194 l 25
 544 106 l 25
 456 106 l 25
156 6 m 25
 156 94 l 25
 244 94 l 25
 244 6 l 25
 156 6 l 25
256 6 m 25
 256 94 l 25
 344 94 l 25
 344 6 l 25
 256 6 l 25
356 6 m 25
 356 94 l 25
 444 94 l 25
 444 6 l 25
 356 6 l 25
EndSplineSet
EndChar

StartChar: four
Encoding: 52 52 20
Width: 600
Flags: HMW
LayerCount: 2
Fore
SplineSet
356 606 m 25
 356 694 l 25
 444 694 l 25
 444 606 l 25
 356 606 l 25
256 506 m 25
 256 594 l 25
 344 594 l 25
 344 506 l 25
 256 506 l 25
356 506 m 25
 356 594 l 25
 444 594 l 25
 444 506 l 25
 356 506 l 25
156 406 m 25
 156 494 l 25
 244 494 l 25
 244 406 l 25
 156 406 l 25
356 406 m 25
 356 494 l 25
 444 494 l 25
 444 406 l 25
 356 406 l 25
56 306 m 25
 56 394 l 25
 144 394 l 25
 144 306 l 25
 56 306 l 25
356 306 m 25
 356 394 l 25
 444 394 l 25
 444 306 l 25
 356 306 l 25
56 206 m 25
 56 294 l 25
 144 294 l 25
 144 206 l 25
 56 206 l 25
156 206 m 25
 156 294 l 25
 244 294 l 25
 244 206 l 25
 156 206 l 25
256 206 m 25
 256 294 l 25
 344 294 l 25
 344 206 l 25
 256 206 l 25
356 206 m 25
 356 294 l 25
 444 294 l 25
 444 206 l 25
 356 206 l 25
456 206 m 25
 456 294 l 25
 544 294 l 25
 544 206 l 25
 456 206 l 25
356 106 m 25
 356 194 l 25
 444 194 l 25
 444 106 l 25
 356 106 l 25
356 6 m 25
 356 94 l 25
 444 94 l 25
 444 6 l 25
 356 6 l 25
EndSplineSet
EndChar

StartChar: five
Encoding: 53 53 21
Width: 600
Flags: HMW
LayerCount: 2
Fore
SplineSet
56 606 m 25
 56 694 l 25
 144 694 l 25
 144 606 l 25
 56 606 l 25
156 606 m 25
 156 694 l 25
 244 694 l 25
 244 606 l 25
 156 606 l 25
256 606 m 25
 256 694 l 25
 344 694 l 25
 344 606 l 25
 256 606 l 25
356 606 m 25
 356 694 l 25
 444 694 l 25
 444 606 l 25
 356 606 l 25
456 606 m 25
 456 694 l 25
 544 694 l 25
 544 606 l 25
 456 606 l 25
56 506 m 25
 56 594 l 25
 144 594 l 25
 144 506 l 25
 56 506 l 25
56 406 m 25
 56 494 l 25
 144 494 l 25
 144 406 l 25
 56 406 l 25
156 406 m 25
 156 494 l 25
 244 494 l 25
 244 406 l 25
 156 406 l 25
256 406 m 25
 256 494 l 25
 344 494 l 25
 344 406 l 25
 256 406 l 25
356 406 m 25
 356 494 l 25
 444 494 l 25
 444 406 l 25
 356 406 l 25
456 306 m 25
 456 394 l 25
 544 394 l 25
 544 306 l 25
 456 306 l 25
456 206 m 25
 456 294 l 25
 544 294 l 25
 544 206 l 25
 456 206 l 25
56 106 m 25
 56 194 l 25
 144 194 l 25
 144 106 l 25
 56 106 l 25
456 106 m 25
 456 194 l 25
 544 194 l 25
 544 106 l 25
 456 106 l 25
156 6 m 25
 156 94 l 25
 244 94 l 25
 244 6 l 25
 156 6 l 25
256 6 m 25
 256 94 l 25
 344 94 l 25
 344 6 l 25
 256 6 l 25
356 6 m 25
 356 94 l 25
 444 94 l 25
 444 6 l 25
 356 6 l 25
EndSplineSet
EndChar

StartChar: six
Encoding: 54 54 22
Width: 600
Flags: HMW
LayerCount: 2
Fore
SplineSet
256 606 m 25
 256 694 l 25
 344 694 l 25
 344 606 l 25
 256 606 l 25
356 606 m 25
 356 694 l 25
 444 694 l 25
 444 606 l 25
 356 606 l 25
156 506 m 25
 156 594 l 25
 244 594 l 25
 244 506 l 25
 156 506 l 25
56 406 m 25
 56 494 l 25
 144 494 l 25
 144 406 l 25
 56 406 l 25
56 306 m 25
 56 394 l 25
 144 394 l 25
 144 306 l 25
 56 306 l 25
156 306 m 25
 156 394 l 25
 244 394 l 25
 244 306 l 25
 156 306 l 25
256 306 m 25
 256 394 l 25
 344 394 l 25
 344 306 l 25
 256 306 l 25
356 306 m 25
 356 394 l 25
 444 394 l 25
 444 306 l 25
 356 306 l 25
56 206 m 25
 56 294 l 25
 144 294 l 25
 144 206 l 25
 56 206 l 25
456 206 m 25
 456 294 l 25
 544 294 l 25
 544 206 l 25
 456 206 l 25
56 106 m 25
 56 194 l 25
 144 194 l 25
 144 106 l 25
 56 106 l 25
456 106 m 25
 456 194 l 25
 544 194 l 25
 544 106 l 25
 456 106 l 25
156 6 m 25
 156 94 l 25
 244 94 l 25
 244 6 l 25
 156 6 l 25
256 6 m 25
 256 94 l 25
 344 94 l 25
 344 6 l 25
 256 6 l 25
356 6 m 25
 356 94 l 25
 444 94 l 25
 444 6 l 25
 356 6 l 25
EndSplineSet
EndChar

StartChar: seven
Encoding: 55 55 23
Width: 600
Flags: HMW
LayerCount: 2
Fore
SplineSet
56 606 m 25
 56 694 l 25
 144 694 l 25
 144 606 l 25
 56 606 l 25
156 606 m 25
 156 694 l 25
 244 694 l 25
 244 606 l 25
 156 606 l 25
256 606 m 25
 256 694 l 25
 344 694 l 25
 344 606 l 25
 256 606 l 25
356 606 m 25
 356 694 l 25
 444 694 l 25
 444 606 l 25
 356 606 l 25
456 606 m 25
 456 694 l 25
 544 694 l 25
 544 606 l 25
 456 606 l 25
456 506 m 25
 456 594 l 25
 544 594 l 25
 544 506 l 25
 456 506 l 25
356 406 m 25
 356 494 l 25
 444 494 l 25
 444 406 l 25
 356 406 l 25
256 306 m 25
 256 394 l 25
 344 394 l 25
 344 306 l 25
 256 306 l 25
156 206 m 25
 156 294 l 25
 244 294 l 25
 244 206 l 25
 156 206 l 25
156 106 m 25
 156 194 l 25
 244 194 l 25
 244 106 l 25
 156 106 l 25
156 6 m 25
 156 94 l 25
 244 94 l 25
 244 6 l 25
 156 6 l 25
EndSplineSet
EndChar

StartChar: eight
Encoding: 56 56 24
Width: 600
Flags: HMW
LayerCount: 2
Fore
SplineSet
156 606 m 25
 156 694 l 25
 244 694 l 25
 244 606 l 25
 156 606 l 25
256 606 m 25
 256 694 l 25
 344 694 l 25
 344 606 l 25
 256 606 l 25
356 606 m 25
 356 694 l 25
 444 694 l 25
 444 606 l 25
 356 606 l 25
56 506 m 25
 56 594 l 25
 144 594 l 25
 144 506 l 25
 56 506 l 25
456 506 m 25
 456 594 l 25
 544 594 l 25
 544 506 l 25
 456 506 l 25
56 406 m 25
 56 494 l 25
 144 494 l 25
 144 406 l 25
 56 406 l 25
456 406 m 25
 456 494 l 25
 544 494 l 25
 544 406 l 25
 456 406 l 25
156 306 m 25
 156 394 l 25
 244 394 l 25
 244 306 l 25
 156 306 l 25
256 306 m 25
 256 394 l 25
 344 394 l 25
 344 306 l 25
 256 306 l 25
356 306 m 25
 356 394 l 25
 444 394 l 25
 444 306 l 25
 356 306 l 25
56 206 m 25
 56 294 l 25
 144 294 l 25
 144 206 l 25
 56 206 l 25
456 206 m 25
 456 294 l 25
 544 294 l 25
 544 206 l 25
 456 206 l 25
56 106 m 25
 56 194 l 25
 144 194 l 25
 144 106 l 25
 56 106 l 25
456 106 m 25
 456 194 l 25
 544 194 l 25
 544 106 l 25
 456 106 l 25
156 6 m 25
 156 94 l 25
 244 94 l 25
 244 6 l 25
 156 6 l 25
256 6 m 25
 256 94 l 25
 344 94 l 25
 344 6 l 25
 256 6 l 25
356 6 m 25
 356 94 l 25
 444 94 l 25
 444 6 l 25
 356 6 l 25
EndSplineSet
EndChar

StartChar: nine
Encoding: 57 57 25
Width: 600
Flags: HMW
LayerCount: 2
Fore
SplineSet
156 606 m 25
 156 694 l 25
 244 694 l 25
 244 606 l 25
 156 606 l 25
256 606 m 25
 256 694 l 25
 344 694 l 25
 344 606 l 25
 256 606 l 25
356 606 m 25
 356 694 l 25
 444 694 l 25
 444 606 l 25
 356 606 l 25
56 506 m 25
 56 594 l 25
 144 594 l 25
 144 506 l 25
 56 506 l 25
456 506 m 25
 456 594 l 25
 544 594 l 25
 544 506 l 25
 456 506 l 25
56 406 m 25
 56 494 l 25
 144 494 l 25
 144 406 l 25
 56 406 l 25
456 406 m 25
 456 494 l 25
 544 494 l 25
 544 406 l 25
 456 406 l 25
156 306 m 25
 156 394 l 25
 244 394 l 25
 244 306 l 25
 156 306 l 25
256 306 m 25
 256 394 l 25
 344 394 l 25
 344 306 l 25
 256 306 l 25
356 306 m 25
 356 394 l 25
 444 394 l 25
 444 306 l 25
 356 306 l 25
456 306 m 25
 456 394 l 25
 544 394 l 25
 544 306 l 25
 456 306 l 25
456 206 m 25
 456 294 l 25
 544 294 l 25
 544 206 l 25
 456 206 l 25
356 106 m 25
 356 194 l 25
 444 194 l 25
 444 106 l 25
 356 106 l 25
156 6 m 25
 156 94 l 25
 244 94 l 25
 244 6 l 25
 156 6 l 25
256 6 m 25
 256 94 l 25
 344 94 l 25
 344 6 l 25
 256 6 l 25
EndSplineSet
EndChar

StartChar: colon
Encoding: 58 58 26
Width: 200
Flags: HMW
LayerCount: 2
Fore
SplineSet
56 406 m 25
 56 494 l 25
 144 494 l 25
 144 406 l 25
 56 406 l 25
56 6 m 25
 56 94 l 25
 144 94 l 25
 144 6 l 25
 56 6 l 25
EndSplineSet
EndChar

StartChar: semicolon
Encoding: 59 59 27
Width: 300
Flags: HMW
LayerCount: 2
Fore
SplineSet
156 406 m 25
 156 494 l 25
 244 494 l 25
 244 406 l 25
 156 406 l 25
156 106 m 25
 156 194 l 25
 244 194 l 25
 244 106 l 25
 156 106 l 25
156 6 m 25
 156 94 l 25
 244 94 l 25
 244 6 l 25
 156 6 l 25
56 -94 m 25
 56 -6 l 25
 144 -6 l 25
 144 -94 l 25
 56 -94 l 25
EndSplineSet
EndChar

StartChar: less
Encoding: 60 60 28
Width: 400
Flags: HMW
LayerCount: 2
Fore
SplineSet
256 506 m 25
 256 594 l 25
 344 594 l 25
 344 506 l 25
 256 506 l 25
156 406 m 25
 156 494 l 25
 244 494 l 25
 244 406 l 25
 156 406 l 25
56 306 m 25
 56 394 l 25
 144 394 l 25
 144 306 l 25
 56 306 l 25
156 206 m 25
 156 294 l 25
 244 294 l 25
 244 206 l 25
 156 206 l 25
256 106 m 25
 256 194 l 25
 344 194 l 25
 344 106 l 25
 256 106 l 25
EndSplineSet
EndChar

StartChar: equal
Encoding: 61 61 29
Width: 600
Flags: HMW
LayerCount: 2
Fore
SplineSet
56 406 m 25
 56 494 l 25
 144 494 l 25
 144 406 l 25
 56 406 l 25
156 406 m 25
 156 494 l 25
 244 494 l 25
 244 406 l 25
 156 406 l 25
256 406 m 25
 256 494 l 25
 344 494 l 25
 344 406 l 25
 256 406 l 25
356 406 m 25
 356 494 l 25
 444 494 l 25
 444 406 l 25
 356 406 l 25
456 406 m 25
 456 494 l 25
 544 494 l 25
 544 406 l 25
 456 406 l 25
56 206 m 25
 56 294 l 25
 144 294 l 25
 144 206 l 25
 56 206 l 25
156 206 m 25
 156 294 l 25
 244 294 l 25
 244 206 l 25
 156 206 l 25
256 206 m 25
 256 294 l 25
 344 294 l 25
 344 206 l 25
 256 206 l 25
356 206 m 25
 356 294 l 25
 444 294 l 25
 444 206 l 25
 356 206 l 25
456 206 m 25
 456 294 l 25
 544 294 l 25
 544 206 l 25
 456 206 l 25
EndSplineSet
EndChar

StartChar: greater
Encoding: 62 62 30
Width: 400
Flags: HMW
LayerCount: 2
Fore
SplineSet
56 506 m 25
 56 594 l 25
 144 594 l 25
 144 506 l 25
 56 506 l 25
156 406 m 25
 156 494 l 25
 244 494 l 25
 244 406 l 25
 156 406 l 25
256 306 m 25
 256 394 l 25
 344 394 l 25
 344 306 l 25
 256 306 l 25
156 206 m 25
 156 294 l 25
 244 294 l 25
 244 206 l 25
 156 206 l 25
56 106 m 25
 56 194 l 25
 144 194 l 25
 144 106 l 25
 56 106 l 25
EndSplineSet
EndChar

StartChar: question
Encoding: 63 63 31
Width: 600
Flags: HMW
LayerCount: 2
Fore
SplineSet
156 606 m 25
 156 694 l 25
 244 694 l 25
 244 606 l 25
 156 606 l 25
256 606 m 25
 256 694 l 25
 344 694 l 25
 344 606 l 25
 256 606 l 25
356 606 m 25
 356 694 l 25
 444 694 l 25
 444 606 l 25
 356 606 l 25
56 506 m 25
 56 594 l 25
 144 594 l 25
 144 506 l 25
 56 506 l 25
456 506 m 25
 456 594 l 25
 544 594 l 25
 544 506 l 25
 456 506 l 25
456 406 m 25
 456 494 l 25
 544 494 l 25
 544 406 l 25
 456 406 l 25
256 306 m 25
 256 394 l 25
 344 394 l 25
 344 306 l 25
 256 306 l 25
356 306 m 25
 356 394 l 25
 444 394 l 25
 444 306 l 25
 356 306 l 25
256 206 m 25
 256 294 l 25
 344 294 l 25
 344 206 l 25
 256 206 l 25
256 6 m 25
 256 94 l 25
 344 94 l 25
 344 6 l 25
 256 6 l 25
EndSplineSet
EndChar

StartChar: at
Encoding: 64 64 32
Width: 600
Flags: HMW
LayerCount: 2
Fore
SplineSet
156 606 m 25
 156 694 l 25
 244 694 l 25
 244 606 l 25
 156 606 l 25
256 606 m 25
 256 694 l 25
 344 694 l 25
 344 606 l 25
 256 606 l 25
356 606 m 25
 356 694 l 25
 444 694 l 25
 444 606 l 25
 356 606 l 25
56 506 m 25
 56 594 l 25
 144 594 l 25
 144 506 l 25
 56 506 l 25
456 506 m 25
 456 594 l 25
 544 594 l 25
 544 506 l 25
 456 506 l 25
56 406 m 25
 56 494 l 25
 144 494 l 25
 144 406 l 25
 56 406 l 25
256 406 m 25
 256 494 l 25
 344 494 l 25
 344 406 l 25
 256 406 l 25
356 406 m 25
 356 494 l 25
 444 494 l 25
 444 406 l 25
 356 406 l 25
456 406 m 25
 456 494 l 25
 544 494 l 25
 544 406 l 25
 456 406 l 25
56 306 m 25
 56 394 l 25
 144 394 l 25
 144 306 l 25
 56 306 l 25
256 306 m 25
 256 394 l 25
 344 394 l 25
 344 306 l 25
 256 306 l 25
456 306 m 25
 456 394 l 25
 544 394 l 25
 544 306 l 25
 456 306 l 25
56 206 m 25
 56 294 l 25
 144 294 l 25
 144 206 l 25
 56 206 l 25
256 206 m 25
 256 294 l 25
 344 294 l 25
 344 206 l 25
 256 206 l 25
356 206 m 25
 356 294 l 25
 444 294 l 25
 444 206 l 25
 356 206 l 25
456 206 m 25
 456 294 l 25
 544 294 l 25
 544 206 l 25
 456 206 l 25
56 106 m 25
 56 194 l 25
 144 194 l 25
 144 106 l 25
 56 106 l 25
156 6 m 25
 156 94 l 25
 244 94 l 25
 244 6 l 25
 156 6 l 25
256 6 m 25
 256 94 l 25
 344 94 l 25
 344 6 l 25
 256 6 l 25
356 6 m 25
 356 94 l 25
 444 94 l 25
 444 6 l 25
 356 6 l 25
EndSplineSet
EndChar

StartChar: A
Encoding: 65 65 33
Width: 600
Flags: HMW
AnchorPoint: "ogonek" 400 0 basechar 0
AnchorPoint: "marks_below" 300 0 basechar 0
AnchorPoint: "marks_above" 300 800 basechar 0
LayerCount: 2
Fore
SplineSet
256 606 m 25
 256 694 l 25
 344 694 l 25
 344 606 l 25
 256 606 l 25
156 506 m 25
 156 594 l 25
 244 594 l 25
 244 506 l 25
 156 506 l 25
356 506 m 25
 356 594 l 25
 444 594 l 25
 444 506 l 25
 356 506 l 25
56 406 m 25
 56 494 l 25
 144 494 l 25
 144 406 l 25
 56 406 l 25
456 406 m 25
 456 494 l 25
 544 494 l 25
 544 406 l 25
 456 406 l 25
56 306 m 25
 56 394 l 25
 144 394 l 25
 144 306 l 25
 56 306 l 25
456 306 m 25
 456 394 l 25
 544 394 l 25
 544 306 l 25
 456 306 l 25
56 206 m 25
 56 294 l 25
 144 294 l 25
 144 206 l 25
 56 206 l 25
156 206 m 25
 156 294 l 25
 244 294 l 25
 244 206 l 25
 156 206 l 25
256 206 m 25
 256 294 l 25
 344 294 l 25
 344 206 l 25
 256 206 l 25
356 206 m 25
 356 294 l 25
 444 294 l 25
 444 206 l 25
 356 206 l 25
456 206 m 25
 456 294 l 25
 544 294 l 25
 544 206 l 25
 456 206 l 25
56 106 m 25
 56 194 l 25
 144 194 l 25
 144 106 l 25
 56 106 l 25
456 106 m 25
 456 194 l 25
 544 194 l 25
 544 106 l 25
 456 106 l 25
56 6 m 25
 56 94 l 25
 144 94 l 25
 144 6 l 25
 56 6 l 25
456 6 m 25
 456 94 l 25
 544 94 l 25
 544 6 l 25
 456 6 l 25
EndSplineSet
EndChar

StartChar: B
Encoding: 66 66 34
Width: 600
Flags: HMW
AnchorPoint: "marks_below" 300 0 basechar 0
AnchorPoint: "marks_above" 300 800 basechar 0
LayerCount: 2
Fore
SplineSet
56 606 m 25
 56 694 l 25
 144 694 l 25
 144 606 l 25
 56 606 l 25
156 606 m 25
 156 694 l 25
 244 694 l 25
 244 606 l 25
 156 606 l 25
256 606 m 25
 256 694 l 25
 344 694 l 25
 344 606 l 25
 256 606 l 25
356 606 m 25
 356 694 l 25
 444 694 l 25
 444 606 l 25
 356 606 l 25
56 506 m 25
 56 594 l 25
 144 594 l 25
 144 506 l 25
 56 506 l 25
456 506 m 25
 456 594 l 25
 544 594 l 25
 544 506 l 25
 456 506 l 25
56 406 m 25
 56 494 l 25
 144 494 l 25
 144 406 l 25
 56 406 l 25
456 406 m 25
 456 494 l 25
 544 494 l 25
 544 406 l 25
 456 406 l 25
56 306 m 25
 56 394 l 25
 144 394 l 25
 144 306 l 25
 56 306 l 25
156 306 m 25
 156 394 l 25
 244 394 l 25
 244 306 l 25
 156 306 l 25
256 306 m 25
 256 394 l 25
 344 394 l 25
 344 306 l 25
 256 306 l 25
356 306 m 25
 356 394 l 25
 444 394 l 25
 444 306 l 25
 356 306 l 25
56 206 m 25
 56 294 l 25
 144 294 l 25
 144 206 l 25
 56 206 l 25
456 206 m 25
 456 294 l 25
 544 294 l 25
 544 206 l 25
 456 206 l 25
56 106 m 25
 56 194 l 25
 144 194 l 25
 144 106 l 25
 56 106 l 25
456 106 m 25
 456 194 l 25
 544 194 l 25
 544 106 l 25
 456 106 l 25
56 6 m 25
 56 94 l 25
 144 94 l 25
 144 6 l 25
 56 6 l 25
156 6 m 25
 156 94 l 25
 244 94 l 25
 244 6 l 25
 156 6 l 25
256 6 m 25
 256 94 l 25
 344 94 l 25
 344 6 l 25
 256 6 l 25
356 6 m 25
 356 94 l 25
 444 94 l 25
 444 6 l 25
 356 6 l 25
EndSplineSet
EndChar

StartChar: C
Encoding: 67 67 35
Width: 600
Flags: HMW
AnchorPoint: "marks_below" 300 0 basechar 0
AnchorPoint: "marks_above" 300 800 basechar 0
LayerCount: 2
Fore
SplineSet
156 606 m 25
 156 694 l 25
 244 694 l 25
 244 606 l 25
 156 606 l 25
256 606 m 25
 256 694 l 25
 344 694 l 25
 344 606 l 25
 256 606 l 25
356 606 m 25
 356 694 l 25
 444 694 l 25
 444 606 l 25
 356 606 l 25
56 506 m 25
 56 594 l 25
 144 594 l 25
 144 506 l 25
 56 506 l 25
456 506 m 25
 456 594 l 25
 544 594 l 25
 544 506 l 25
 456 506 l 25
56 406 m 25
 56 494 l 25
 144 494 l 25
 144 406 l 25
 56 406 l 25
56 306 m 25
 56 394 l 25
 144 394 l 25
 144 306 l 25
 56 306 l 25
56 206 m 25
 56 294 l 25
 144 294 l 25
 144 206 l 25
 56 206 l 25
56 106 m 25
 56 194 l 25
 144 194 l 25
 144 106 l 25
 56 106 l 25
456 106 m 25
 456 194 l 25
 544 194 l 25
 544 106 l 25
 456 106 l 25
156 6 m 25
 156 94 l 25
 244 94 l 25
 244 6 l 25
 156 6 l 25
256 6 m 25
 256 94 l 25
 344 94 l 25
 344 6 l 25
 256 6 l 25
356 6 m 25
 356 94 l 25
 444 94 l 25
 444 6 l 25
 356 6 l 25
EndSplineSet
EndChar

StartChar: D
Encoding: 68 68 36
Width: 600
Flags: HMW
AnchorPoint: "marks_below" 300 0 basechar 0
AnchorPoint: "marks_above" 300 800 basechar 0
LayerCount: 2
Fore
SplineSet
56 606 m 25
 56 694 l 25
 144 694 l 25
 144 606 l 25
 56 606 l 25
156 606 m 25
 156 694 l 25
 244 694 l 25
 244 606 l 25
 156 606 l 25
256 606 m 25
 256 694 l 25
 344 694 l 25
 344 606 l 25
 256 606 l 25
56 506 m 25
 56 594 l 25
 144 594 l 25
 144 506 l 25
 56 506 l 25
356 506 m 25
 356 594 l 25
 444 594 l 25
 444 506 l 25
 356 506 l 25
56 406 m 25
 56 494 l 25
 144 494 l 25
 144 406 l 25
 56 406 l 25
456 406 m 25
 456 494 l 25
 544 494 l 25
 544 406 l 25
 456 406 l 25
56 306 m 25
 56 394 l 25
 144 394 l 25
 144 306 l 25
 56 306 l 25
456 306 m 25
 456 394 l 25
 544 394 l 25
 544 306 l 25
 456 306 l 25
56 206 m 25
 56 294 l 25
 144 294 l 25
 144 206 l 25
 56 206 l 25
456 206 m 25
 456 294 l 25
 544 294 l 25
 544 206 l 25
 456 206 l 25
56 106 m 25
 56 194 l 25
 144 194 l 25
 144 106 l 25
 56 106 l 25
356 106 m 25
 356 194 l 25
 444 194 l 25
 444 106 l 25
 356 106 l 25
56 6 m 25
 56 94 l 25
 144 94 l 25
 144 6 l 25
 56 6 l 25
156 6 m 25
 156 94 l 25
 244 94 l 25
 244 6 l 25
 156 6 l 25
256 6 m 25
 256 94 l 25
 344 94 l 25
 344 6 l 25
 256 6 l 25
EndSplineSet
EndChar

StartChar: E
Encoding: 69 69 37
Width: 600
Flags: HMW
AnchorPoint: "ogonek" 400 0 basechar 0
AnchorPoint: "marks_below" 300 0 basechar 0
AnchorPoint: "marks_above" 300 800 basechar 0
LayerCount: 2
Fore
SplineSet
56 606 m 25
 56 694 l 25
 144 694 l 25
 144 606 l 25
 56 606 l 25
156 606 m 25
 156 694 l 25
 244 694 l 25
 244 606 l 25
 156 606 l 25
256 606 m 25
 256 694 l 25
 344 694 l 25
 344 606 l 25
 256 606 l 25
356 606 m 25
 356 694 l 25
 444 694 l 25
 444 606 l 25
 356 606 l 25
456 606 m 25
 456 694 l 25
 544 694 l 25
 544 606 l 25
 456 606 l 25
56 506 m 25
 56 594 l 25
 144 594 l 25
 144 506 l 25
 56 506 l 25
56 406 m 25
 56 494 l 25
 144 494 l 25
 144 406 l 25
 56 406 l 25
56 306 m 25
 56 394 l 25
 144 394 l 25
 144 306 l 25
 56 306 l 25
156 306 m 25
 156 394 l 25
 244 394 l 25
 244 306 l 25
 156 306 l 25
256 306 m 25
 256 394 l 25
 344 394 l 25
 344 306 l 25
 256 306 l 25
356 306 m 25
 356 394 l 25
 444 394 l 25
 444 306 l 25
 356 306 l 25
56 206 m 25
 56 294 l 25
 144 294 l 25
 144 206 l 25
 56 206 l 25
56 106 m 25
 56 194 l 25
 144 194 l 25
 144 106 l 25
 56 106 l 25
56 6 m 25
 56 94 l 25
 144 94 l 25
 144 6 l 25
 56 6 l 25
156 6 m 25
 156 94 l 25
 244 94 l 25
 244 6 l 25
 156 6 l 25
256 6 m 25
 256 94 l 25
 344 94 l 25
 344 6 l 25
 256 6 l 25
356 6 m 25
 356 94 l 25
 444 94 l 25
 444 6 l 25
 356 6 l 25
456 6 m 25
 456 94 l 25
 544 94 l 25
 544 6 l 25
 456 6 l 25
EndSplineSet
EndChar

StartChar: F
Encoding: 70 70 38
Width: 600
Flags: HMW
AnchorPoint: "marks_below" 300 0 basechar 0
AnchorPoint: "marks_above" 300 800 basechar 0
LayerCount: 2
Fore
SplineSet
56 606 m 25
 56 694 l 25
 144 694 l 25
 144 606 l 25
 56 606 l 25
156 606 m 25
 156 694 l 25
 244 694 l 25
 244 606 l 25
 156 606 l 25
256 606 m 25
 256 694 l 25
 344 694 l 25
 344 606 l 25
 256 606 l 25
356 606 m 25
 356 694 l 25
 444 694 l 25
 444 606 l 25
 356 606 l 25
456 606 m 25
 456 694 l 25
 544 694 l 25
 544 606 l 25
 456 606 l 25
56 506 m 25
 56 594 l 25
 144 594 l 25
 144 506 l 25
 56 506 l 25
56 406 m 25
 56 494 l 25
 144 494 l 25
 144 406 l 25
 56 406 l 25
56 306 m 25
 56 394 l 25
 144 394 l 25
 144 306 l 25
 56 306 l 25
156 306 m 25
 156 394 l 25
 244 394 l 25
 244 306 l 25
 156 306 l 25
256 306 m 25
 256 394 l 25
 344 394 l 25
 344 306 l 25
 256 306 l 25
356 306 m 25
 356 394 l 25
 444 394 l 25
 444 306 l 25
 356 306 l 25
56 206 m 25
 56 294 l 25
 144 294 l 25
 144 206 l 25
 56 206 l 25
56 106 m 25
 56 194 l 25
 144 194 l 25
 144 106 l 25
 56 106 l 25
56 6 m 25
 56 94 l 25
 144 94 l 25
 144 6 l 25
 56 6 l 25
EndSplineSet
EndChar

StartChar: G
Encoding: 71 71 39
Width: 600
Flags: HMW
AnchorPoint: "marks_below" 300 0 basechar 0
AnchorPoint: "marks_above" 300 800 basechar 0
LayerCount: 2
Fore
SplineSet
156 606 m 25
 156 694 l 25
 244 694 l 25
 244 606 l 25
 156 606 l 25
256 606 m 25
 256 694 l 25
 344 694 l 25
 344 606 l 25
 256 606 l 25
356 606 m 25
 356 694 l 25
 444 694 l 25
 444 606 l 25
 356 606 l 25
56 506 m 25
 56 594 l 25
 144 594 l 25
 144 506 l 25
 56 506 l 25
456 506 m 25
 456 594 l 25
 544 594 l 25
 544 506 l 25
 456 506 l 25
56 406 m 25
 56 494 l 25
 144 494 l 25
 144 406 l 25
 56 406 l 25
56 306 m 25
 56 394 l 25
 144 394 l 25
 144 306 l 25
 56 306 l 25
356 306 m 25
 356 394 l 25
 444 394 l 25
 444 306 l 25
 356 306 l 25
456 306 m 25
 456 394 l 25
 544 394 l 25
 544 306 l 25
 456 306 l 25
56 206 m 25
 56 294 l 25
 144 294 l 25
 144 206 l 25
 56 206 l 25
456 206 m 25
 456 294 l 25
 544 294 l 25
 544 206 l 25
 456 206 l 25
56 106 m 25
 56 194 l 25
 144 194 l 25
 144 106 l 25
 56 106 l 25
456 106 m 25
 456 194 l 25
 544 194 l 25
 544 106 l 25
 456 106 l 25
156 6 m 25
 156 94 l 25
 244 94 l 25
 244 6 l 25
 156 6 l 25
256 6 m 25
 256 94 l 25
 344 94 l 25
 344 6 l 25
 256 6 l 25
356 6 m 25
 356 94 l 25
 444 94 l 25
 444 6 l 25
 356 6 l 25
456 6 m 25
 456 94 l 25
 544 94 l 25
 544 6 l 25
 456 6 l 25
EndSplineSet
EndChar

StartChar: H
Encoding: 72 72 40
Width: 600
Flags: HMW
AnchorPoint: "marks_below" 300 0 basechar 0
AnchorPoint: "marks_above" 300 800 basechar 0
LayerCount: 2
Fore
SplineSet
56 606 m 25
 56 694 l 25
 144 694 l 25
 144 606 l 25
 56 606 l 25
456 606 m 25
 456 694 l 25
 544 694 l 25
 544 606 l 25
 456 606 l 25
56 506 m 25
 56 594 l 25
 144 594 l 25
 144 506 l 25
 56 506 l 25
456 506 m 25
 456 594 l 25
 544 594 l 25
 544 506 l 25
 456 506 l 25
56 406 m 25
 56 494 l 25
 144 494 l 25
 144 406 l 25
 56 406 l 25
456 406 m 25
 456 494 l 25
 544 494 l 25
 544 406 l 25
 456 406 l 25
56 306 m 25
 56 394 l 25
 144 394 l 25
 144 306 l 25
 56 306 l 25
156 306 m 25
 156 394 l 25
 244 394 l 25
 244 306 l 25
 156 306 l 25
256 306 m 25
 256 394 l 25
 344 394 l 25
 344 306 l 25
 256 306 l 25
356 306 m 25
 356 394 l 25
 444 394 l 25
 444 306 l 25
 356 306 l 25
456 306 m 25
 456 394 l 25
 544 394 l 25
 544 306 l 25
 456 306 l 25
56 206 m 25
 56 294 l 25
 144 294 l 25
 144 206 l 25
 56 206 l 25
456 206 m 25
 456 294 l 25
 544 294 l 25
 544 206 l 25
 456 206 l 25
56 106 m 25
 56 194 l 25
 144 194 l 25
 144 106 l 25
 56 106 l 25
456 106 m 25
 456 194 l 25
 544 194 l 25
 544 106 l 25
 456 106 l 25
56 6 m 25
 56 94 l 25
 144 94 l 25
 144 6 l 25
 56 6 l 25
456 6 m 25
 456 94 l 25
 544 94 l 25
 544 6 l 25
 456 6 l 25
EndSplineSet
EndChar

StartChar: I
Encoding: 73 73 41
Width: 400
Flags: HMW
AnchorPoint: "marks_below" 200 0 basechar 0
AnchorPoint: "ogonek" 200 0 basechar 0
AnchorPoint: "marks_above" 200 800 basechar 0
LayerCount: 2
Fore
SplineSet
56 606 m 25
 56 694 l 25
 144 694 l 25
 144 606 l 25
 56 606 l 25
156 606 m 25
 156 694 l 25
 244 694 l 25
 244 606 l 25
 156 606 l 25
256 606 m 25
 256 694 l 25
 344 694 l 25
 344 606 l 25
 256 606 l 25
156 506 m 25
 156 594 l 25
 244 594 l 25
 244 506 l 25
 156 506 l 25
156 406 m 25
 156 494 l 25
 244 494 l 25
 244 406 l 25
 156 406 l 25
156 306 m 25
 156 394 l 25
 244 394 l 25
 244 306 l 25
 156 306 l 25
156 206 m 25
 156 294 l 25
 244 294 l 25
 244 206 l 25
 156 206 l 25
156 106 m 25
 156 194 l 25
 244 194 l 25
 244 106 l 25
 156 106 l 25
56 6 m 25
 56 94 l 25
 144 94 l 25
 144 6 l 25
 56 6 l 25
156 6 m 25
 156 94 l 25
 244 94 l 25
 244 6 l 25
 156 6 l 25
256 6 m 25
 256 94 l 25
 344 94 l 25
 344 6 l 25
 256 6 l 25
EndSplineSet
EndChar

StartChar: J
Encoding: 74 74 42
Width: 600
Flags: HMW
AnchorPoint: "marks_above" 400 800 basechar 0
LayerCount: 2
Fore
SplineSet
256 606 m 25
 256 694 l 25
 344 694 l 25
 344 606 l 25
 256 606 l 25
356 606 m 25
 356 694 l 25
 444 694 l 25
 444 606 l 25
 356 606 l 25
456 606 m 25
 456 694 l 25
 544 694 l 25
 544 606 l 25
 456 606 l 25
356 506 m 25
 356 594 l 25
 444 594 l 25
 444 506 l 25
 356 506 l 25
356 406 m 25
 356 494 l 25
 444 494 l 25
 444 406 l 25
 356 406 l 25
356 306 m 25
 356 394 l 25
 444 394 l 25
 444 306 l 25
 356 306 l 25
356 206 m 25
 356 294 l 25
 444 294 l 25
 444 206 l 25
 356 206 l 25
56 106 m 25
 56 194 l 25
 144 194 l 25
 144 106 l 25
 56 106 l 25
356 106 m 25
 356 194 l 25
 444 194 l 25
 444 106 l 25
 356 106 l 25
156 6 m 25
 156 94 l 25
 244 94 l 25
 244 6 l 25
 156 6 l 25
256 6 m 25
 256 94 l 25
 344 94 l 25
 344 6 l 25
 256 6 l 25
EndSplineSet
EndChar

StartChar: K
Encoding: 75 75 43
Width: 600
Flags: HMW
AnchorPoint: "marks_below" 300 0 basechar 0
AnchorPoint: "marks_above" 300 800 basechar 0
LayerCount: 2
Fore
SplineSet
56 606 m 25
 56 694 l 25
 144 694 l 25
 144 606 l 25
 56 606 l 25
456 606 m 25
 456 694 l 25
 544 694 l 25
 544 606 l 25
 456 606 l 25
56 506 m 25
 56 594 l 25
 144 594 l 25
 144 506 l 25
 56 506 l 25
356 506 m 25
 356 594 l 25
 444 594 l 25
 444 506 l 25
 356 506 l 25
56 406 m 25
 56 494 l 25
 144 494 l 25
 144 406 l 25
 56 406 l 25
256 406 m 25
 256 494 l 25
 344 494 l 25
 344 406 l 25
 256 406 l 25
56 306 m 25
 56 394 l 25
 144 394 l 25
 144 306 l 25
 56 306 l 25
156 306 m 25
 156 394 l 25
 244 394 l 25
 244 306 l 25
 156 306 l 25
56 206 m 25
 56 294 l 25
 144 294 l 25
 144 206 l 25
 56 206 l 25
256 206 m 25
 256 294 l 25
 344 294 l 25
 344 206 l 25
 256 206 l 25
56 106 m 25
 56 194 l 25
 144 194 l 25
 144 106 l 25
 56 106 l 25
356 106 m 25
 356 194 l 25
 444 194 l 25
 444 106 l 25
 356 106 l 25
56 6 m 25
 56 94 l 25
 144 94 l 25
 144 6 l 25
 56 6 l 25
456 6 m 25
 456 94 l 25
 544 94 l 25
 544 6 l 25
 456 6 l 25
EndSplineSet
EndChar

StartChar: L
Encoding: 76 76 44
Width: 600
Flags: HMW
AnchorPoint: "marks_aboveright" 250 500 basechar 0
AnchorPoint: "marks_below" 300 0 basechar 0
AnchorPoint: "marks_above" 300 800 basechar 0
LayerCount: 2
Fore
SplineSet
56 606 m 25
 56 694 l 25
 144 694 l 25
 144 606 l 25
 56 606 l 25
56 506 m 25
 56 594 l 25
 144 594 l 25
 144 506 l 25
 56 506 l 25
56 406 m 25
 56 494 l 25
 144 494 l 25
 144 406 l 25
 56 406 l 25
56 306 m 25
 56 394 l 25
 144 394 l 25
 144 306 l 25
 56 306 l 25
56 206 m 25
 56 294 l 25
 144 294 l 25
 144 206 l 25
 56 206 l 25
56 106 m 25
 56 194 l 25
 144 194 l 25
 144 106 l 25
 56 106 l 25
56 6 m 25
 56 94 l 25
 144 94 l 25
 144 6 l 25
 56 6 l 25
156 6 m 25
 156 94 l 25
 244 94 l 25
 244 6 l 25
 156 6 l 25
256 6 m 25
 256 94 l 25
 344 94 l 25
 344 6 l 25
 256 6 l 25
356 6 m 25
 356 94 l 25
 444 94 l 25
 444 6 l 25
 356 6 l 25
456 6 m 25
 456 94 l 25
 544 94 l 25
 544 6 l 25
 456 6 l 25
EndSplineSet
EndChar

StartChar: M
Encoding: 77 77 45
Width: 600
Flags: HMW
AnchorPoint: "marks_below" 300 0 basechar 0
AnchorPoint: "marks_above" 300 800 basechar 0
LayerCount: 2
Fore
SplineSet
56 606 m 25
 56 694 l 25
 144 694 l 25
 144 606 l 25
 56 606 l 25
456 606 m 25
 456 694 l 25
 544 694 l 25
 544 606 l 25
 456 606 l 25
56 506 m 25
 56 594 l 25
 144 594 l 25
 144 506 l 25
 56 506 l 25
156 506 m 25
 156 594 l 25
 244 594 l 25
 244 506 l 25
 156 506 l 25
356 506 m 25
 356 594 l 25
 444 594 l 25
 444 506 l 25
 356 506 l 25
456 506 m 25
 456 594 l 25
 544 594 l 25
 544 506 l 25
 456 506 l 25
56 406 m 25
 56 494 l 25
 144 494 l 25
 144 406 l 25
 56 406 l 25
256 406 m 25
 256 494 l 25
 344 494 l 25
 344 406 l 25
 256 406 l 25
456 406 m 25
 456 494 l 25
 544 494 l 25
 544 406 l 25
 456 406 l 25
56 306 m 25
 56 394 l 25
 144 394 l 25
 144 306 l 25
 56 306 l 25
256 306 m 25
 256 394 l 25
 344 394 l 25
 344 306 l 25
 256 306 l 25
456 306 m 25
 456 394 l 25
 544 394 l 25
 544 306 l 25
 456 306 l 25
56 206 m 25
 56 294 l 25
 144 294 l 25
 144 206 l 25
 56 206 l 25
456 206 m 25
 456 294 l 25
 544 294 l 25
 544 206 l 25
 456 206 l 25
56 106 m 25
 56 194 l 25
 144 194 l 25
 144 106 l 25
 56 106 l 25
456 106 m 25
 456 194 l 25
 544 194 l 25
 544 106 l 25
 456 106 l 25
56 6 m 25
 56 94 l 25
 144 94 l 25
 144 6 l 25
 56 6 l 25
456 6 m 25
 456 94 l 25
 544 94 l 25
 544 6 l 25
 456 6 l 25
EndSplineSet
EndChar

StartChar: N
Encoding: 78 78 46
Width: 600
Flags: HMW
AnchorPoint: "marks_below" 300 0 basechar 0
AnchorPoint: "marks_above" 300 800 basechar 0
LayerCount: 2
Fore
SplineSet
56 606 m 25
 56 694 l 25
 144 694 l 25
 144 606 l 25
 56 606 l 25
456 606 m 25
 456 694 l 25
 544 694 l 25
 544 606 l 25
 456 606 l 25
56 506 m 25
 56 594 l 25
 144 594 l 25
 144 506 l 25
 56 506 l 25
456 506 m 25
 456 594 l 25
 544 594 l 25
 544 506 l 25
 456 506 l 25
56 406 m 25
 56 494 l 25
 144 494 l 25
 144 406 l 25
 56 406 l 25
156 406 m 25
 156 494 l 25
 244 494 l 25
 244 406 l 25
 156 406 l 25
456 406 m 25
 456 494 l 25
 544 494 l 25
 544 406 l 25
 456 406 l 25
56 306 m 25
 56 394 l 25
 144 394 l 25
 144 306 l 25
 56 306 l 25
256 306 m 25
 256 394 l 25
 344 394 l 25
 344 306 l 25
 256 306 l 25
456 306 m 25
 456 394 l 25
 544 394 l 25
 544 306 l 25
 456 306 l 25
56 206 m 25
 56 294 l 25
 144 294 l 25
 144 206 l 25
 56 206 l 25
356 206 m 25
 356 294 l 25
 444 294 l 25
 444 206 l 25
 356 206 l 25
456 206 m 25
 456 294 l 25
 544 294 l 25
 544 206 l 25
 456 206 l 25
56 106 m 25
 56 194 l 25
 144 194 l 25
 144 106 l 25
 56 106 l 25
456 106 m 25
 456 194 l 25
 544 194 l 25
 544 106 l 25
 456 106 l 25
56 6 m 25
 56 94 l 25
 144 94 l 25
 144 6 l 25
 56 6 l 25
456 6 m 25
 456 94 l 25
 544 94 l 25
 544 6 l 25
 456 6 l 25
EndSplineSet
EndChar

StartChar: O
Encoding: 79 79 47
Width: 600
Flags: HMW
AnchorPoint: "marks_below" 300 0 basechar 0
AnchorPoint: "marks_above" 300 800 basechar 0
LayerCount: 2
Fore
SplineSet
156 606 m 25
 156 694 l 25
 244 694 l 25
 244 606 l 25
 156 606 l 25
256 606 m 25
 256 694 l 25
 344 694 l 25
 344 606 l 25
 256 606 l 25
356 606 m 25
 356 694 l 25
 444 694 l 25
 444 606 l 25
 356 606 l 25
56 506 m 25
 56 594 l 25
 144 594 l 25
 144 506 l 25
 56 506 l 25
456 506 m 25
 456 594 l 25
 544 594 l 25
 544 506 l 25
 456 506 l 25
56 406 m 25
 56 494 l 25
 144 494 l 25
 144 406 l 25
 56 406 l 25
456 406 m 25
 456 494 l 25
 544 494 l 25
 544 406 l 25
 456 406 l 25
56 306 m 25
 56 394 l 25
 144 394 l 25
 144 306 l 25
 56 306 l 25
456 306 m 25
 456 394 l 25
 544 394 l 25
 544 306 l 25
 456 306 l 25
56 206 m 25
 56 294 l 25
 144 294 l 25
 144 206 l 25
 56 206 l 25
456 206 m 25
 456 294 l 25
 544 294 l 25
 544 206 l 25
 456 206 l 25
56 106 m 25
 56 194 l 25
 144 194 l 25
 144 106 l 25
 56 106 l 25
456 106 m 25
 456 194 l 25
 544 194 l 25
 544 106 l 25
 456 106 l 25
156 6 m 25
 156 94 l 25
 244 94 l 25
 244 6 l 25
 156 6 l 25
256 6 m 25
 256 94 l 25
 344 94 l 25
 344 6 l 25
 256 6 l 25
356 6 m 25
 356 94 l 25
 444 94 l 25
 444 6 l 25
 356 6 l 25
EndSplineSet
EndChar

StartChar: P
Encoding: 80 80 48
Width: 600
Flags: HMW
AnchorPoint: "marks_below" 300 0 basechar 0
AnchorPoint: "marks_above" 300 800 basechar 0
LayerCount: 2
Fore
SplineSet
56 606 m 25
 56 694 l 25
 144 694 l 25
 144 606 l 25
 56 606 l 25
156 606 m 25
 156 694 l 25
 244 694 l 25
 244 606 l 25
 156 606 l 25
256 606 m 25
 256 694 l 25
 344 694 l 25
 344 606 l 25
 256 606 l 25
356 606 m 25
 356 694 l 25
 444 694 l 25
 444 606 l 25
 356 606 l 25
56 506 m 25
 56 594 l 25
 144 594 l 25
 144 506 l 25
 56 506 l 25
456 506 m 25
 456 594 l 25
 544 594 l 25
 544 506 l 25
 456 506 l 25
56 406 m 25
 56 494 l 25
 144 494 l 25
 144 406 l 25
 56 406 l 25
456 406 m 25
 456 494 l 25
 544 494 l 25
 544 406 l 25
 456 406 l 25
56 306 m 25
 56 394 l 25
 144 394 l 25
 144 306 l 25
 56 306 l 25
156 306 m 25
 156 394 l 25
 244 394 l 25
 244 306 l 25
 156 306 l 25
256 306 m 25
 256 394 l 25
 344 394 l 25
 344 306 l 25
 256 306 l 25
356 306 m 25
 356 394 l 25
 444 394 l 25
 444 306 l 25
 356 306 l 25
56 206 m 25
 56 294 l 25
 144 294 l 25
 144 206 l 25
 56 206 l 25
56 106 m 25
 56 194 l 25
 144 194 l 25
 144 106 l 25
 56 106 l 25
56 6 m 25
 56 94 l 25
 144 94 l 25
 144 6 l 25
 56 6 l 25
EndSplineSet
EndChar

StartChar: Q
Encoding: 81 81 49
Width: 600
Flags: HMW
AnchorPoint: "marks_below" 300 0 basechar 0
AnchorPoint: "marks_above" 300 800 basechar 0
LayerCount: 2
Fore
SplineSet
156 606 m 25
 156 694 l 25
 244 694 l 25
 244 606 l 25
 156 606 l 25
256 606 m 25
 256 694 l 25
 344 694 l 25
 344 606 l 25
 256 606 l 25
356 606 m 25
 356 694 l 25
 444 694 l 25
 444 606 l 25
 356 606 l 25
56 506 m 25
 56 594 l 25
 144 594 l 25
 144 506 l 25
 56 506 l 25
456 506 m 25
 456 594 l 25
 544 594 l 25
 544 506 l 25
 456 506 l 25
56 406 m 25
 56 494 l 25
 144 494 l 25
 144 406 l 25
 56 406 l 25
456 406 m 25
 456 494 l 25
 544 494 l 25
 544 406 l 25
 456 406 l 25
56 306 m 25
 56 394 l 25
 144 394 l 25
 144 306 l 25
 56 306 l 25
456 306 m 25
 456 394 l 25
 544 394 l 25
 544 306 l 25
 456 306 l 25
56 206 m 25
 56 294 l 25
 144 294 l 25
 144 206 l 25
 56 206 l 25
256 206 m 25
 256 294 l 25
 344 294 l 25
 344 206 l 25
 256 206 l 25
456 206 m 25
 456 294 l 25
 544 294 l 25
 544 206 l 25
 456 206 l 25
56 106 m 25
 56 194 l 25
 144 194 l 25
 144 106 l 25
 56 106 l 25
356 106 m 25
 356 194 l 25
 444 194 l 25
 444 106 l 25
 356 106 l 25
156 6 m 25
 156 94 l 25
 244 94 l 25
 244 6 l 25
 156 6 l 25
256 6 m 25
 256 94 l 25
 344 94 l 25
 344 6 l 25
 256 6 l 25
456 6 m 25
 456 94 l 25
 544 94 l 25
 544 6 l 25
 456 6 l 25
EndSplineSet
EndChar

StartChar: R
Encoding: 82 82 50
Width: 600
Flags: HMW
AnchorPoint: "marks_below" 300 0 basechar 0
AnchorPoint: "marks_above" 300 800 basechar 0
LayerCount: 2
Fore
SplineSet
56 606 m 25
 56 694 l 25
 144 694 l 25
 144 606 l 25
 56 606 l 25
156 606 m 25
 156 694 l 25
 244 694 l 25
 244 606 l 25
 156 606 l 25
256 606 m 25
 256 694 l 25
 344 694 l 25
 344 606 l 25
 256 606 l 25
356 606 m 25
 356 694 l 25
 444 694 l 25
 444 606 l 25
 356 606 l 25
56 506 m 25
 56 594 l 25
 144 594 l 25
 144 506 l 25
 56 506 l 25
456 506 m 25
 456 594 l 25
 544 594 l 25
 544 506 l 25
 456 506 l 25
56 406 m 25
 56 494 l 25
 144 494 l 25
 144 406 l 25
 56 406 l 25
456 406 m 25
 456 494 l 25
 544 494 l 25
 544 406 l 25
 456 406 l 25
56 306 m 25
 56 394 l 25
 144 394 l 25
 144 306 l 25
 56 306 l 25
156 306 m 25
 156 394 l 25
 244 394 l 25
 244 306 l 25
 156 306 l 25
256 306 m 25
 256 394 l 25
 344 394 l 25
 344 306 l 25
 256 306 l 25
356 306 m 25
 356 394 l 25
 444 394 l 25
 444 306 l 25
 356 306 l 25
56 206 m 25
 56 294 l 25
 144 294 l 25
 144 206 l 25
 56 206 l 25
256 206 m 25
 256 294 l 25
 344 294 l 25
 344 206 l 25
 256 206 l 25
56 106 m 25
 56 194 l 25
 144 194 l 25
 144 106 l 25
 56 106 l 25
356 106 m 25
 356 194 l 25
 444 194 l 25
 444 106 l 25
 356 106 l 25
56 6 m 25
 56 94 l 25
 144 94 l 25
 144 6 l 25
 56 6 l 25
456 6 m 25
 456 94 l 25
 544 94 l 25
 544 6 l 25
 456 6 l 25
EndSplineSet
EndChar

StartChar: S
Encoding: 83 83 51
Width: 600
Flags: HMW
AnchorPoint: "marks_below" 300 0 basechar 0
AnchorPoint: "marks_above" 300 800 basechar 0
LayerCount: 2
Fore
SplineSet
156 606 m 25
 156 694 l 25
 244 694 l 25
 244 606 l 25
 156 606 l 25
256 606 m 25
 256 694 l 25
 344 694 l 25
 344 606 l 25
 256 606 l 25
356 606 m 25
 356 694 l 25
 444 694 l 25
 444 606 l 25
 356 606 l 25
56 506 m 25
 56 594 l 25
 144 594 l 25
 144 506 l 25
 56 506 l 25
456 506 m 25
 456 594 l 25
 544 594 l 25
 544 506 l 25
 456 506 l 25
56 406 m 25
 56 494 l 25
 144 494 l 25
 144 406 l 25
 56 406 l 25
156 306 m 25
 156 394 l 25
 244 394 l 25
 244 306 l 25
 156 306 l 25
256 306 m 25
 256 394 l 25
 344 394 l 25
 344 306 l 25
 256 306 l 25
356 306 m 25
 356 394 l 25
 444 394 l 25
 444 306 l 25
 356 306 l 25
456 206 m 25
 456 294 l 25
 544 294 l 25
 544 206 l 25
 456 206 l 25
56 106 m 25
 56 194 l 25
 144 194 l 25
 144 106 l 25
 56 106 l 25
456 106 m 25
 456 194 l 25
 544 194 l 25
 544 106 l 25
 456 106 l 25
156 6 m 25
 156 94 l 25
 244 94 l 25
 244 6 l 25
 156 6 l 25
256 6 m 25
 256 94 l 25
 344 94 l 25
 344 6 l 25
 256 6 l 25
356 6 m 25
 356 94 l 25
 444 94 l 25
 444 6 l 25
 356 6 l 25
EndSplineSet
EndChar

StartChar: T
Encoding: 84 84 52
Width: 600
Flags: HMW
AnchorPoint: "marks_below" 300 0 basechar 0
AnchorPoint: "marks_above" 300 800 basechar 0
LayerCount: 2
Fore
SplineSet
56 606 m 25
 56 694 l 25
 144 694 l 25
 144 606 l 25
 56 606 l 25
156 606 m 25
 156 694 l 25
 244 694 l 25
 244 606 l 25
 156 606 l 25
256 606 m 25
 256 694 l 25
 344 694 l 25
 344 606 l 25
 256 606 l 25
356 606 m 25
 356 694 l 25
 444 694 l 25
 444 606 l 25
 356 606 l 25
456 606 m 25
 456 694 l 25
 544 694 l 25
 544 606 l 25
 456 606 l 25
256 506 m 25
 256 594 l 25
 344 594 l 25
 344 506 l 25
 256 506 l 25
256 406 m 25
 256 494 l 25
 344 494 l 25
 344 406 l 25
 256 406 l 25
256 306 m 25
 256 394 l 25
 344 394 l 25
 344 306 l 25
 256 306 l 25
256 206 m 25
 256 294 l 25
 344 294 l 25
 344 206 l 25
 256 206 l 25
256 106 m 25
 256 194 l 25
 344 194 l 25
 344 106 l 25
 256 106 l 25
256 6 m 25
 256 94 l 25
 344 94 l 25
 344 6 l 25
 256 6 l 25
EndSplineSet
EndChar

StartChar: U
Encoding: 85 85 53
Width: 600
Flags: HMW
AnchorPoint: "ogonek" 300 0 basechar 0
AnchorPoint: "marks_below" 300 0 basechar 0
AnchorPoint: "marks_above" 300 800 basechar 0
LayerCount: 2
Fore
SplineSet
56 606 m 25
 56 694 l 25
 144 694 l 25
 144 606 l 25
 56 606 l 25
456 606 m 25
 456 694 l 25
 544 694 l 25
 544 606 l 25
 456 606 l 25
56 506 m 25
 56 594 l 25
 144 594 l 25
 144 506 l 25
 56 506 l 25
456 506 m 25
 456 594 l 25
 544 594 l 25
 544 506 l 25
 456 506 l 25
56 406 m 25
 56 494 l 25
 144 494 l 25
 144 406 l 25
 56 406 l 25
456 406 m 25
 456 494 l 25
 544 494 l 25
 544 406 l 25
 456 406 l 25
56 306 m 25
 56 394 l 25
 144 394 l 25
 144 306 l 25
 56 306 l 25
456 306 m 25
 456 394 l 25
 544 394 l 25
 544 306 l 25
 456 306 l 25
56 206 m 25
 56 294 l 25
 144 294 l 25
 144 206 l 25
 56 206 l 25
456 206 m 25
 456 294 l 25
 544 294 l 25
 544 206 l 25
 456 206 l 25
56 106 m 25
 56 194 l 25
 144 194 l 25
 144 106 l 25
 56 106 l 25
456 106 m 25
 456 194 l 25
 544 194 l 25
 544 106 l 25
 456 106 l 25
156 6 m 25
 156 94 l 25
 244 94 l 25
 244 6 l 25
 156 6 l 25
256 6 m 25
 256 94 l 25
 344 94 l 25
 344 6 l 25
 256 6 l 25
356 6 m 25
 356 94 l 25
 444 94 l 25
 444 6 l 25
 356 6 l 25
EndSplineSet
EndChar

StartChar: V
Encoding: 86 86 54
Width: 600
Flags: HMW
AnchorPoint: "marks_below" 300 0 basechar 0
AnchorPoint: "marks_above" 300 800 basechar 0
LayerCount: 2
Fore
SplineSet
56 606 m 25
 56 694 l 25
 144 694 l 25
 144 606 l 25
 56 606 l 25
456 606 m 25
 456 694 l 25
 544 694 l 25
 544 606 l 25
 456 606 l 25
56 506 m 25
 56 594 l 25
 144 594 l 25
 144 506 l 25
 56 506 l 25
456 506 m 25
 456 594 l 25
 544 594 l 25
 544 506 l 25
 456 506 l 25
56 406 m 25
 56 494 l 25
 144 494 l 25
 144 406 l 25
 56 406 l 25
456 406 m 25
 456 494 l 25
 544 494 l 25
 544 406 l 25
 456 406 l 25
56 306 m 25
 56 394 l 25
 144 394 l 25
 144 306 l 25
 56 306 l 25
456 306 m 25
 456 394 l 25
 544 394 l 25
 544 306 l 25
 456 306 l 25
56 206 m 25
 56 294 l 25
 144 294 l 25
 144 206 l 25
 56 206 l 25
456 206 m 25
 456 294 l 25
 544 294 l 25
 544 206 l 25
 456 206 l 25
156 106 m 25
 156 194 l 25
 244 194 l 25
 244 106 l 25
 156 106 l 25
356 106 m 25
 356 194 l 25
 444 194 l 25
 444 106 l 25
 356 106 l 25
256 6 m 25
 256 94 l 25
 344 94 l 25
 344 6 l 25
 256 6 l 25
EndSplineSet
EndChar

StartChar: W
Encoding: 87 87 55
Width: 600
Flags: HMW
AnchorPoint: "marks_below" 300 0 basechar 0
AnchorPoint: "marks_above" 300 800 basechar 0
LayerCount: 2
Fore
SplineSet
56 606 m 25
 56 694 l 25
 144 694 l 25
 144 606 l 25
 56 606 l 25
456 606 m 25
 456 694 l 25
 544 694 l 25
 544 606 l 25
 456 606 l 25
56 506 m 25
 56 594 l 25
 144 594 l 25
 144 506 l 25
 56 506 l 25
456 506 m 25
 456 594 l 25
 544 594 l 25
 544 506 l 25
 456 506 l 25
56 406 m 25
 56 494 l 25
 144 494 l 25
 144 406 l 25
 56 406 l 25
456 406 m 25
 456 494 l 25
 544 494 l 25
 544 406 l 25
 456 406 l 25
56 306 m 25
 56 394 l 25
 144 394 l 25
 144 306 l 25
 56 306 l 25
256 306 m 25
 256 394 l 25
 344 394 l 25
 344 306 l 25
 256 306 l 25
456 306 m 25
 456 394 l 25
 544 394 l 25
 544 306 l 25
 456 306 l 25
56 206 m 25
 56 294 l 25
 144 294 l 25
 144 206 l 25
 56 206 l 25
256 206 m 25
 256 294 l 25
 344 294 l 25
 344 206 l 25
 256 206 l 25
456 206 m 25
 456 294 l 25
 544 294 l 25
 544 206 l 25
 456 206 l 25
56 106 m 25
 56 194 l 25
 144 194 l 25
 144 106 l 25
 56 106 l 25
256 106 m 25
 256 194 l 25
 344 194 l 25
 344 106 l 25
 256 106 l 25
456 106 m 25
 456 194 l 25
 544 194 l 25
 544 106 l 25
 456 106 l 25
156 6 m 25
 156 94 l 25
 244 94 l 25
 244 6 l 25
 156 6 l 25
356 6 m 25
 356 94 l 25
 444 94 l 25
 444 6 l 25
 356 6 l 25
EndSplineSet
EndChar

StartChar: X
Encoding: 88 88 56
Width: 600
Flags: HMW
AnchorPoint: "marks_below" 300 0 basechar 0
AnchorPoint: "marks_above" 300 800 basechar 0
LayerCount: 2
Fore
SplineSet
56 606 m 25
 56 694 l 25
 144 694 l 25
 144 606 l 25
 56 606 l 25
456 606 m 25
 456 694 l 25
 544 694 l 25
 544 606 l 25
 456 606 l 25
56 506 m 25
 56 594 l 25
 144 594 l 25
 144 506 l 25
 56 506 l 25
456 506 m 25
 456 594 l 25
 544 594 l 25
 544 506 l 25
 456 506 l 25
156 406 m 25
 156 494 l 25
 244 494 l 25
 244 406 l 25
 156 406 l 25
356 406 m 25
 356 494 l 25
 444 494 l 25
 444 406 l 25
 356 406 l 25
256 306 m 25
 256 394 l 25
 344 394 l 25
 344 306 l 25
 256 306 l 25
156 206 m 25
 156 294 l 25
 244 294 l 25
 244 206 l 25
 156 206 l 25
356 206 m 25
 356 294 l 25
 444 294 l 25
 444 206 l 25
 356 206 l 25
56 106 m 25
 56 194 l 25
 144 194 l 25
 144 106 l 25
 56 106 l 25
456 106 m 25
 456 194 l 25
 544 194 l 25
 544 106 l 25
 456 106 l 25
56 6 m 25
 56 94 l 25
 144 94 l 25
 144 6 l 25
 56 6 l 25
456 6 m 25
 456 94 l 25
 544 94 l 25
 544 6 l 25
 456 6 l 25
EndSplineSet
EndChar

StartChar: Y
Encoding: 89 89 57
Width: 600
Flags: HMW
AnchorPoint: "marks_below" 300 0 basechar 0
AnchorPoint: "marks_above" 300 800 basechar 0
LayerCount: 2
Fore
SplineSet
56 606 m 25
 56 694 l 25
 144 694 l 25
 144 606 l 25
 56 606 l 25
456 606 m 25
 456 694 l 25
 544 694 l 25
 544 606 l 25
 456 606 l 25
56 506 m 25
 56 594 l 25
 144 594 l 25
 144 506 l 25
 56 506 l 25
456 506 m 25
 456 594 l 25
 544 594 l 25
 544 506 l 25
 456 506 l 25
156 406 m 25
 156 494 l 25
 244 494 l 25
 244 406 l 25
 156 406 l 25
356 406 m 25
 356 494 l 25
 444 494 l 25
 444 406 l 25
 356 406 l 25
256 306 m 25
 256 394 l 25
 344 394 l 25
 344 306 l 25
 256 306 l 25
256 206 m 25
 256 294 l 25
 344 294 l 25
 344 206 l 25
 256 206 l 25
256 106 m 25
 256 194 l 25
 344 194 l 25
 344 106 l 25
 256 106 l 25
256 6 m 25
 256 94 l 25
 344 94 l 25
 344 6 l 25
 256 6 l 25
EndSplineSet
EndChar

StartChar: Z
Encoding: 90 90 58
Width: 600
Flags: HMW
AnchorPoint: "marks_below" 300 0 basechar 0
AnchorPoint: "marks_above" 300 800 basechar 0
LayerCount: 2
Fore
SplineSet
56 606 m 25
 56 694 l 25
 144 694 l 25
 144 606 l 25
 56 606 l 25
156 606 m 25
 156 694 l 25
 244 694 l 25
 244 606 l 25
 156 606 l 25
256 606 m 25
 256 694 l 25
 344 694 l 25
 344 606 l 25
 256 606 l 25
356 606 m 25
 356 694 l 25
 444 694 l 25
 444 606 l 25
 356 606 l 25
456 606 m 25
 456 694 l 25
 544 694 l 25
 544 606 l 25
 456 606 l 25
456 506 m 25
 456 594 l 25
 544 594 l 25
 544 506 l 25
 456 506 l 25
356 406 m 25
 356 494 l 25
 444 494 l 25
 444 406 l 25
 356 406 l 25
256 306 m 25
 256 394 l 25
 344 394 l 25
 344 306 l 25
 256 306 l 25
156 206 m 25
 156 294 l 25
 244 294 l 25
 244 206 l 25
 156 206 l 25
56 106 m 25
 56 194 l 25
 144 194 l 25
 144 106 l 25
 56 106 l 25
56 6 m 25
 56 94 l 25
 144 94 l 25
 144 6 l 25
 56 6 l 25
156 6 m 25
 156 94 l 25
 244 94 l 25
 244 6 l 25
 156 6 l 25
256 6 m 25
 256 94 l 25
 344 94 l 25
 344 6 l 25
 256 6 l 25
356 6 m 25
 356 94 l 25
 444 94 l 25
 444 6 l 25
 356 6 l 25
456 6 m 25
 456 94 l 25
 544 94 l 25
 544 6 l 25
 456 6 l 25
EndSplineSet
EndChar

StartChar: bracketleft
Encoding: 91 91 59
Width: 400
Flags: HMW
LayerCount: 2
Fore
SplineSet
56 606 m 25
 56 694 l 25
 144 694 l 25
 144 606 l 25
 56 606 l 25
156 606 m 25
 156 694 l 25
 244 694 l 25
 244 606 l 25
 156 606 l 25
256 606 m 25
 256 694 l 25
 344 694 l 25
 344 606 l 25
 256 606 l 25
56 506 m 25
 56 594 l 25
 144 594 l 25
 144 506 l 25
 56 506 l 25
56 406 m 25
 56 494 l 25
 144 494 l 25
 144 406 l 25
 56 406 l 25
56 306 m 25
 56 394 l 25
 144 394 l 25
 144 306 l 25
 56 306 l 25
56 206 m 25
 56 294 l 25
 144 294 l 25
 144 206 l 25
 56 206 l 25
56 106 m 25
 56 194 l 25
 144 194 l 25
 144 106 l 25
 56 106 l 25
56 6 m 25
 56 94 l 25
 144 94 l 25
 144 6 l 25
 56 6 l 25
156 6 m 25
 156 94 l 25
 244 94 l 25
 244 6 l 25
 156 6 l 25
256 6 m 25
 256 94 l 25
 344 94 l 25
 344 6 l 25
 256 6 l 25
EndSplineSet
EndChar

StartChar: backslash
Encoding: 92 92 60
Width: 600
Flags: HMW
LayerCount: 2
Fore
SplineSet
56 506 m 25
 56 594 l 25
 144 594 l 25
 144 506 l 25
 56 506 l 25
156 406 m 25
 156 494 l 25
 244 494 l 25
 244 406 l 25
 156 406 l 25
256 306 m 25
 256 394 l 25
 344 394 l 25
 344 306 l 25
 256 306 l 25
356 206 m 25
 356 294 l 25
 444 294 l 25
 444 206 l 25
 356 206 l 25
456 106 m 25
 456 194 l 25
 544 194 l 25
 544 106 l 25
 456 106 l 25
EndSplineSet
EndChar

StartChar: bracketright
Encoding: 93 93 61
Width: 400
Flags: HMW
LayerCount: 2
Fore
SplineSet
56 606 m 25
 56 694 l 25
 144 694 l 25
 144 606 l 25
 56 606 l 25
156 606 m 25
 156 694 l 25
 244 694 l 25
 244 606 l 25
 156 606 l 25
256 606 m 25
 256 694 l 25
 344 694 l 25
 344 606 l 25
 256 606 l 25
256 506 m 25
 256 594 l 25
 344 594 l 25
 344 506 l 25
 256 506 l 25
256 406 m 25
 256 494 l 25
 344 494 l 25
 344 406 l 25
 256 406 l 25
256 306 m 25
 256 394 l 25
 344 394 l 25
 344 306 l 25
 256 306 l 25
256 206 m 25
 256 294 l 25
 344 294 l 25
 344 206 l 25
 256 206 l 25
256 106 m 25
 256 194 l 25
 344 194 l 25
 344 106 l 25
 256 106 l 25
56 6 m 25
 56 94 l 25
 144 94 l 25
 144 6 l 25
 56 6 l 25
156 6 m 25
 156 94 l 25
 244 94 l 25
 244 6 l 25
 156 6 l 25
256 6 m 25
 256 94 l 25
 344 94 l 25
 344 6 l 25
 256 6 l 25
EndSplineSet
EndChar

StartChar: asciicircum
Encoding: 94 94 62
Width: 600
Flags: HMW
LayerCount: 2
Fore
SplineSet
256 606 m 25
 256 694 l 25
 344 694 l 25
 344 606 l 25
 256 606 l 25
156 506 m 25
 156 594 l 25
 244 594 l 25
 244 506 l 25
 156 506 l 25
356 506 m 25
 356 594 l 25
 444 594 l 25
 444 506 l 25
 356 506 l 25
56 406 m 25
 56 494 l 25
 144 494 l 25
 144 406 l 25
 56 406 l 25
456 406 m 25
 456 494 l 25
 544 494 l 25
 544 406 l 25
 456 406 l 25
EndSplineSet
EndChar

StartChar: underscore
Encoding: 95 95 63
Width: 600
Flags: HMW
LayerCount: 2
Fore
SplineSet
6 -94 m 25
 6 -6 l 25
 94 -6 l 25
 94 -94 l 25
 6 -94 l 25
106 -94 m 25
 106 -6 l 25
 194 -6 l 25
 194 -94 l 25
 106 -94 l 25
206 -94 m 25
 206 -6 l 25
 294 -6 l 25
 294 -94 l 25
 206 -94 l 25
306 -94 m 25
 306 -6 l 25
 394 -6 l 25
 394 -94 l 25
 306 -94 l 25
406 -94 m 25
 406 -6 l 25
 494 -6 l 25
 494 -94 l 25
 406 -94 l 25
506 -94 m 25
 506 -6 l 25
 594 -6 l 25
 594 -94 l 25
 506 -94 l 25
EndSplineSet
EndChar

StartChar: grave
Encoding: 96 96 64
Width: 300
Flags: HMW
LayerCount: 2
Fore
SplineSet
56 606 m 25
 56 694 l 25
 144 694 l 25
 144 606 l 25
 56 606 l 25
156 506 m 25
 156 594 l 25
 244 594 l 25
 244 506 l 25
 156 506 l 25
EndSplineSet
EndChar

StartChar: a
Encoding: 97 97 65
Width: 600
Flags: HMW
AnchorPoint: "ogonek" 400 0 basechar 0
AnchorPoint: "marks_below" 300 0 basechar 0
AnchorPoint: "marks_above" 300 600 basechar 0
LayerCount: 2
Fore
SplineSet
156 406 m 25
 156 494 l 25
 244 494 l 25
 244 406 l 25
 156 406 l 25
256 406 m 25
 256 494 l 25
 344 494 l 25
 344 406 l 25
 256 406 l 25
356 406 m 25
 356 494 l 25
 444 494 l 25
 444 406 l 25
 356 406 l 25
456 306 m 25
 456 394 l 25
 544 394 l 25
 544 306 l 25
 456 306 l 25
156 206 m 25
 156 294 l 25
 244 294 l 25
 244 206 l 25
 156 206 l 25
256 206 m 25
 256 294 l 25
 344 294 l 25
 344 206 l 25
 256 206 l 25
356 206 m 25
 356 294 l 25
 444 294 l 25
 444 206 l 25
 356 206 l 25
456 206 m 25
 456 294 l 25
 544 294 l 25
 544 206 l 25
 456 206 l 25
56 106 m 25
 56 194 l 25
 144 194 l 25
 144 106 l 25
 56 106 l 25
456 106 m 25
 456 194 l 25
 544 194 l 25
 544 106 l 25
 456 106 l 25
156 6 m 25
 156 94 l 25
 244 94 l 25
 244 6 l 25
 156 6 l 25
256 6 m 25
 256 94 l 25
 344 94 l 25
 344 6 l 25
 256 6 l 25
356 6 m 25
 356 94 l 25
 444 94 l 25
 444 6 l 25
 356 6 l 25
456 6 m 25
 456 94 l 25
 544 94 l 25
 544 6 l 25
 456 6 l 25
EndSplineSet
EndChar

StartChar: b
Encoding: 98 98 66
Width: 600
Flags: HMW
AnchorPoint: "marks_below" 300 0 basechar 0
AnchorPoint: "marks_above" 300 800 basechar 0
LayerCount: 2
Fore
SplineSet
56 606 m 25
 56 694 l 25
 144 694 l 25
 144 606 l 25
 56 606 l 25
56 506 m 25
 56 594 l 25
 144 594 l 25
 144 506 l 25
 56 506 l 25
56 406 m 25
 56 494 l 25
 144 494 l 25
 144 406 l 25
 56 406 l 25
256 406 m 25
 256 494 l 25
 344 494 l 25
 344 406 l 25
 256 406 l 25
356 406 m 25
 356 494 l 25
 444 494 l 25
 444 406 l 25
 356 406 l 25
56 306 m 25
 56 394 l 25
 144 394 l 25
 144 306 l 25
 56 306 l 25
156 306 m 25
 156 394 l 25
 244 394 l 25
 244 306 l 25
 156 306 l 25
456 306 m 25
 456 394 l 25
 544 394 l 25
 544 306 l 25
 456 306 l 25
56 206 m 25
 56 294 l 25
 144 294 l 25
 144 206 l 25
 56 206 l 25
456 206 m 25
 456 294 l 25
 544 294 l 25
 544 206 l 25
 456 206 l 25
56 106 m 25
 56 194 l 25
 144 194 l 25
 144 106 l 25
 56 106 l 25
156 106 m 25
 156 194 l 25
 244 194 l 25
 244 106 l 25
 156 106 l 25
456 106 m 25
 456 194 l 25
 544 194 l 25
 544 106 l 25
 456 106 l 25
56 6 m 25
 56 94 l 25
 144 94 l 25
 144 6 l 25
 56 6 l 25
256 6 m 25
 256 94 l 25
 344 94 l 25
 344 6 l 25
 256 6 l 25
356 6 m 25
 356 94 l 25
 444 94 l 25
 444 6 l 25
 356 6 l 25
EndSplineSet
EndChar

StartChar: c
Encoding: 99 99 67
Width: 600
Flags: HMW
AnchorPoint: "marks_below" 300 0 basechar 0
AnchorPoint: "marks_above" 300 600 basechar 0
LayerCount: 2
Fore
SplineSet
156 406 m 25
 156 494 l 25
 244 494 l 25
 244 406 l 25
 156 406 l 25
256 406 m 25
 256 494 l 25
 344 494 l 25
 344 406 l 25
 256 406 l 25
356 406 m 25
 356 494 l 25
 444 494 l 25
 444 406 l 25
 356 406 l 25
56 306 m 25
 56 394 l 25
 144 394 l 25
 144 306 l 25
 56 306 l 25
456 306 m 25
 456 394 l 25
 544 394 l 25
 544 306 l 25
 456 306 l 25
56 206 m 25
 56 294 l 25
 144 294 l 25
 144 206 l 25
 56 206 l 25
56 106 m 25
 56 194 l 25
 144 194 l 25
 144 106 l 25
 56 106 l 25
456 106 m 25
 456 194 l 25
 544 194 l 25
 544 106 l 25
 456 106 l 25
156 6 m 25
 156 94 l 25
 244 94 l 25
 244 6 l 25
 156 6 l 25
256 6 m 25
 256 94 l 25
 344 94 l 25
 344 6 l 25
 256 6 l 25
356 6 m 25
 356 94 l 25
 444 94 l 25
 444 6 l 25
 356 6 l 25
EndSplineSet
EndChar

StartChar: d
Encoding: 100 100 68
Width: 600
Flags: HMW
AnchorPoint: "marks_aboveright" 650 500 basechar 0
AnchorPoint: "marks_below" 300 0 basechar 0
AnchorPoint: "marks_above" 300 800 basechar 0
LayerCount: 2
Fore
SplineSet
456 606 m 25
 456 694 l 25
 544 694 l 25
 544 606 l 25
 456 606 l 25
456 506 m 25
 456 594 l 25
 544 594 l 25
 544 506 l 25
 456 506 l 25
156 406 m 25
 156 494 l 25
 244 494 l 25
 244 406 l 25
 156 406 l 25
256 406 m 25
 256 494 l 25
 344 494 l 25
 344 406 l 25
 256 406 l 25
456 406 m 25
 456 494 l 25
 544 494 l 25
 544 406 l 25
 456 406 l 25
56 306 m 25
 56 394 l 25
 144 394 l 25
 144 306 l 25
 56 306 l 25
356 306 m 25
 356 394 l 25
 444 394 l 25
 444 306 l 25
 356 306 l 25
456 306 m 25
 456 394 l 25
 544 394 l 25
 544 306 l 25
 456 306 l 25
56 206 m 25
 56 294 l 25
 144 294 l 25
 144 206 l 25
 56 206 l 25
456 206 m 25
 456 294 l 25
 544 294 l 25
 544 206 l 25
 456 206 l 25
56 106 m 25
 56 194 l 25
 144 194 l 25
 144 106 l 25
 56 106 l 25
356 106 m 25
 356 194 l 25
 444 194 l 25
 444 106 l 25
 356 106 l 25
456 106 m 25
 456 194 l 25
 544 194 l 25
 544 106 l 25
 456 106 l 25
156 6 m 25
 156 94 l 25
 244 94 l 25
 244 6 l 25
 156 6 l 25
256 6 m 25
 256 94 l 25
 344 94 l 25
 344 6 l 25
 256 6 l 25
456 6 m 25
 456 94 l 25
 544 94 l 25
 544 6 l 25
 456 6 l 25
EndSplineSet
EndChar

StartChar: e
Encoding: 101 101 69
Width: 600
Flags: HMW
AnchorPoint: "ogonek" 400 0 basechar 0
AnchorPoint: "marks_below" 300 0 basechar 0
AnchorPoint: "marks_above" 300 600 basechar 0
LayerCount: 2
Fore
SplineSet
156 406 m 25
 156 494 l 25
 244 494 l 25
 244 406 l 25
 156 406 l 25
256 406 m 25
 256 494 l 25
 344 494 l 25
 344 406 l 25
 256 406 l 25
356 406 m 25
 356 494 l 25
 444 494 l 25
 444 406 l 25
 356 406 l 25
56 306 m 25
 56 394 l 25
 144 394 l 25
 144 306 l 25
 56 306 l 25
456 306 m 25
 456 394 l 25
 544 394 l 25
 544 306 l 25
 456 306 l 25
56 206 m 25
 56 294 l 25
 144 294 l 25
 144 206 l 25
 56 206 l 25
156 206 m 25
 156 294 l 25
 244 294 l 25
 244 206 l 25
 156 206 l 25
256 206 m 25
 256 294 l 25
 344 294 l 25
 344 206 l 25
 256 206 l 25
356 206 m 25
 356 294 l 25
 444 294 l 25
 444 206 l 25
 356 206 l 25
456 206 m 25
 456 294 l 25
 544 294 l 25
 544 206 l 25
 456 206 l 25
56 106 m 25
 56 194 l 25
 144 194 l 25
 144 106 l 25
 56 106 l 25
156 6 m 25
 156 94 l 25
 244 94 l 25
 244 6 l 25
 156 6 l 25
256 6 m 25
 256 94 l 25
 344 94 l 25
 344 6 l 25
 256 6 l 25
356 6 m 25
 356 94 l 25
 444 94 l 25
 444 6 l 25
 356 6 l 25
EndSplineSet
EndChar

StartChar: f
Encoding: 102 102 70
Width: 600
Flags: HMW
AnchorPoint: "marks_below" 300 0 basechar 0
AnchorPoint: "marks_above" 300 800 basechar 0
LayerCount: 2
Fore
SplineSet
256 606 m 25
 256 694 l 25
 344 694 l 25
 344 606 l 25
 256 606 l 25
356 606 m 25
 356 694 l 25
 444 694 l 25
 444 606 l 25
 356 606 l 25
156 506 m 25
 156 594 l 25
 244 594 l 25
 244 506 l 25
 156 506 l 25
456 506 m 25
 456 594 l 25
 544 594 l 25
 544 506 l 25
 456 506 l 25
156 406 m 25
 156 494 l 25
 244 494 l 25
 244 406 l 25
 156 406 l 25
56 306 m 25
 56 394 l 25
 144 394 l 25
 144 306 l 25
 56 306 l 25
156 306 m 25
 156 394 l 25
 244 394 l 25
 244 306 l 25
 156 306 l 25
256 306 m 25
 256 394 l 25
 344 394 l 25
 344 306 l 25
 256 306 l 25
356 306 m 25
 356 394 l 25
 444 394 l 25
 444 306 l 25
 356 306 l 25
156 206 m 25
 156 294 l 25
 244 294 l 25
 244 206 l 25
 156 206 l 25
156 106 m 25
 156 194 l 25
 244 194 l 25
 244 106 l 25
 156 106 l 25
156 6 m 25
 156 94 l 25
 244 94 l 25
 244 6 l 25
 156 6 l 25
EndSplineSet
EndChar

StartChar: g
Encoding: 103 103 71
Width: 600
Flags: HMW
AnchorPoint: "marks_above" 300 600 basechar 0
LayerCount: 2
Fore
SplineSet
156 406 m 25
 156 494 l 25
 244 494 l 25
 244 406 l 25
 156 406 l 25
256 406 m 25
 256 494 l 25
 344 494 l 25
 344 406 l 25
 256 406 l 25
456 406 m 25
 456 494 l 25
 544 494 l 25
 544 406 l 25
 456 406 l 25
56 306 m 25
 56 394 l 25
 144 394 l 25
 144 306 l 25
 56 306 l 25
356 306 m 25
 356 394 l 25
 444 394 l 25
 444 306 l 25
 356 306 l 25
456 306 m 25
 456 394 l 25
 544 394 l 25
 544 306 l 25
 456 306 l 25
56 206 m 25
 56 294 l 25
 144 294 l 25
 144 206 l 25
 56 206 l 25
456 206 m 25
 456 294 l 25
 544 294 l 25
 544 206 l 25
 456 206 l 25
56 106 m 25
 56 194 l 25
 144 194 l 25
 144 106 l 25
 56 106 l 25
356 106 m 25
 356 194 l 25
 444 194 l 25
 444 106 l 25
 356 106 l 25
456 106 m 25
 456 194 l 25
 544 194 l 25
 544 106 l 25
 456 106 l 25
156 6 m 25
 156 94 l 25
 244 94 l 25
 244 6 l 25
 156 6 l 25
256 6 m 25
 256 94 l 25
 344 94 l 25
 344 6 l 25
 256 6 l 25
456 6 m 25
 456 94 l 25
 544 94 l 25
 544 6 l 25
 456 6 l 25
456 -94 m 25
 456 -6 l 25
 544 -6 l 25
 544 -94 l 25
 456 -94 l 25
156 -194 m 25
 156 -106 l 25
 244 -106 l 25
 244 -194 l 25
 156 -194 l 25
256 -194 m 25
 256 -106 l 25
 344 -106 l 25
 344 -194 l 25
 256 -194 l 25
356 -194 m 25
 356 -106 l 25
 444 -106 l 25
 444 -194 l 25
 356 -194 l 25
EndSplineSet
EndChar

StartChar: h
Encoding: 104 104 72
Width: 600
Flags: HMW
AnchorPoint: "marks_below" 300 0 basechar 0
AnchorPoint: "marks_above" 300 800 basechar 0
LayerCount: 2
Fore
SplineSet
56 606 m 25
 56 694 l 25
 144 694 l 25
 144 606 l 25
 56 606 l 25
56 506 m 25
 56 594 l 25
 144 594 l 25
 144 506 l 25
 56 506 l 25
56 406 m 25
 56 494 l 25
 144 494 l 25
 144 406 l 25
 56 406 l 25
256 406 m 25
 256 494 l 25
 344 494 l 25
 344 406 l 25
 256 406 l 25
356 406 m 25
 356 494 l 25
 444 494 l 25
 444 406 l 25
 356 406 l 25
56 306 m 25
 56 394 l 25
 144 394 l 25
 144 306 l 25
 56 306 l 25
156 306 m 25
 156 394 l 25
 244 394 l 25
 244 306 l 25
 156 306 l 25
456 306 m 25
 456 394 l 25
 544 394 l 25
 544 306 l 25
 456 306 l 25
56 206 m 25
 56 294 l 25
 144 294 l 25
 144 206 l 25
 56 206 l 25
456 206 m 25
 456 294 l 25
 544 294 l 25
 544 206 l 25
 456 206 l 25
56 106 m 25
 56 194 l 25
 144 194 l 25
 144 106 l 25
 56 106 l 25
456 106 m 25
 456 194 l 25
 544 194 l 25
 544 106 l 25
 456 106 l 25
56 6 m 25
 56 94 l 25
 144 94 l 25
 144 6 l 25
 56 6 l 25
456 6 m 25
 456 94 l 25
 544 94 l 25
 544 6 l 25
 456 6 l 25
EndSplineSet
EndChar

StartChar: i
Encoding: 105 105 73
Width: 400
Flags: HMW
AnchorPoint: "marks_below" 200 0 basechar 0
AnchorPoint: "ogonek" 200 0 basechar 0
AnchorPoint: "marks_above" 200 800 basechar 0
LayerCount: 2
Fore
SplineSet
156 606 m 25
 156 694 l 25
 244 694 l 25
 244 606 l 25
 156 606 l 25
56 406 m 25
 56 494 l 25
 144 494 l 25
 144 406 l 25
 56 406 l 25
156 406 m 25
 156 494 l 25
 244 494 l 25
 244 406 l 25
 156 406 l 25
156 306 m 25
 156 394 l 25
 244 394 l 25
 244 306 l 25
 156 306 l 25
156 206 m 25
 156 294 l 25
 244 294 l 25
 244 206 l 25
 156 206 l 25
156 106 m 25
 156 194 l 25
 244 194 l 25
 244 106 l 25
 156 106 l 25
56 6 m 25
 56 94 l 25
 144 94 l 25
 144 6 l 25
 56 6 l 25
156 6 m 25
 156 94 l 25
 244 94 l 25
 244 6 l 25
 156 6 l 25
256 6 m 25
 256 94 l 25
 344 94 l 25
 344 6 l 25
 256 6 l 25
EndSplineSet
EndChar

StartChar: j
Encoding: 106 106 74
Width: 500
Flags: HMW
LayerCount: 2
Fore
SplineSet
356 606 m 25
 356 694 l 25
 444 694 l 25
 444 606 l 25
 356 606 l 25
256 406 m 25
 256 494 l 25
 344 494 l 25
 344 406 l 25
 256 406 l 25
356 406 m 25
 356 494 l 25
 444 494 l 25
 444 406 l 25
 356 406 l 25
356 306 m 25
 356 394 l 25
 444 394 l 25
 444 306 l 25
 356 306 l 25
356 206 m 25
 356 294 l 25
 444 294 l 25
 444 206 l 25
 356 206 l 25
356 106 m 25
 356 194 l 25
 444 194 l 25
 444 106 l 25
 356 106 l 25
356 6 m 25
 356 94 l 25
 444 94 l 25
 444 6 l 25
 356 6 l 25
56 -94 m 25
 56 -6 l 25
 144 -6 l 25
 144 -94 l 25
 56 -94 l 25
356 -94 m 25
 356 -6 l 25
 444 -6 l 25
 444 -94 l 25
 356 -94 l 25
156 -194 m 25
 156 -106 l 25
 244 -106 l 25
 244 -194 l 25
 156 -194 l 25
256 -194 m 25
 256 -106 l 25
 344 -106 l 25
 344 -194 l 25
 256 -194 l 25
EndSplineSet
EndChar

StartChar: k
Encoding: 107 107 75
Width: 600
Flags: HMW
AnchorPoint: "marks_below" 300 0 basechar 0
AnchorPoint: "marks_above" 300 800 basechar 0
LayerCount: 2
Fore
SplineSet
56 606 m 25
 56 694 l 25
 144 694 l 25
 144 606 l 25
 56 606 l 25
56 506 m 25
 56 594 l 25
 144 594 l 25
 144 506 l 25
 56 506 l 25
56 406 m 25
 56 494 l 25
 144 494 l 25
 144 406 l 25
 56 406 l 25
456 406 m 25
 456 494 l 25
 544 494 l 25
 544 406 l 25
 456 406 l 25
56 306 m 25
 56 394 l 25
 144 394 l 25
 144 306 l 25
 56 306 l 25
356 306 m 25
 356 394 l 25
 444 394 l 25
 444 306 l 25
 356 306 l 25
56 206 m 25
 56 294 l 25
 144 294 l 25
 144 206 l 25
 56 206 l 25
156 206 m 25
 156 294 l 25
 244 294 l 25
 244 206 l 25
 156 206 l 25
256 206 m 25
 256 294 l 25
 344 294 l 25
 344 206 l 25
 256 206 l 25
56 106 m 25
 56 194 l 25
 144 194 l 25
 144 106 l 25
 56 106 l 25
356 106 m 25
 356 194 l 25
 444 194 l 25
 444 106 l 25
 356 106 l 25
56 6 m 25
 56 94 l 25
 144 94 l 25
 144 6 l 25
 56 6 l 25
456 6 m 25
 456 94 l 25
 544 94 l 25
 544 6 l 25
 456 6 l 25
EndSplineSet
EndChar

StartChar: l
Encoding: 108 108 76
Width: 400
Flags: HMW
AnchorPoint: "marks_aboveright" 350 500 basechar 0
AnchorPoint: "marks_below" 200 0 basechar 0
AnchorPoint: "ogonek" 200 0 basechar 0
AnchorPoint: "marks_above" 200 800 basechar 0
LayerCount: 2
Fore
SplineSet
56 606 m 25
 56 694 l 25
 144 694 l 25
 144 606 l 25
 56 606 l 25
156 606 m 25
 156 694 l 25
 244 694 l 25
 244 606 l 25
 156 606 l 25
156 506 m 25
 156 594 l 25
 244 594 l 25
 244 506 l 25
 156 506 l 25
156 406 m 25
 156 494 l 25
 244 494 l 25
 244 406 l 25
 156 406 l 25
156 306 m 25
 156 394 l 25
 244 394 l 25
 244 306 l 25
 156 306 l 25
156 206 m 25
 156 294 l 25
 244 294 l 25
 244 206 l 25
 156 206 l 25
156 106 m 25
 156 194 l 25
 244 194 l 25
 244 106 l 25
 156 106 l 25
56 6 m 25
 56 94 l 25
 144 94 l 25
 144 6 l 25
 56 6 l 25
156 6 m 25
 156 94 l 25
 244 94 l 25
 244 6 l 25
 156 6 l 25
256 6 m 25
 256 94 l 25
 344 94 l 25
 344 6 l 25
 256 6 l 25
EndSplineSet
EndChar

StartChar: m
Encoding: 109 109 77
Width: 600
Flags: HMW
AnchorPoint: "marks_below" 300 0 basechar 0
AnchorPoint: "marks_above" 300 600 basechar 0
LayerCount: 2
Fore
SplineSet
56 406 m 25
 56 494 l 25
 144 494 l 25
 144 406 l 25
 56 406 l 25
156 406 m 25
 156 494 l 25
 244 494 l 25
 244 406 l 25
 156 406 l 25
356 406 m 25
 356 494 l 25
 444 494 l 25
 444 406 l 25
 356 406 l 25
56 306 m 25
 56 394 l 25
 144 394 l 25
 144 306 l 25
 56 306 l 25
256 306 m 25
 256 394 l 25
 344 394 l 25
 344 306 l 25
 256 306 l 25
456 306 m 25
 456 394 l 25
 544 394 l 25
 544 306 l 25
 456 306 l 25
56 206 m 25
 56 294 l 25
 144 294 l 25
 144 206 l 25
 56 206 l 25
256 206 m 25
 256 294 l 25
 344 294 l 25
 344 206 l 25
 256 206 l 25
456 206 m 25
 456 294 l 25
 544 294 l 25
 544 206 l 25
 456 206 l 25
56 106 m 25
 56 194 l 25
 144 194 l 25
 144 106 l 25
 56 106 l 25
256 106 m 25
 256 194 l 25
 344 194 l 25
 344 106 l 25
 256 106 l 25
456 106 m 25
 456 194 l 25
 544 194 l 25
 544 106 l 25
 456 106 l 25
56 6 m 25
 56 94 l 25
 144 94 l 25
 144 6 l 25
 56 6 l 25
456 6 m 25
 456 94 l 25
 544 94 l 25
 544 6 l 25
 456 6 l 25
EndSplineSet
EndChar

StartChar: n
Encoding: 110 110 78
Width: 600
Flags: HMW
AnchorPoint: "marks_below" 300 0 basechar 0
AnchorPoint: "marks_above" 300 600 basechar 0
LayerCount: 2
Fore
SplineSet
56 406 m 25
 56 494 l 25
 144 494 l 25
 144 406 l 25
 56 406 l 25
256 406 m 25
 256 494 l 25
 344 494 l 25
 344 406 l 25
 256 406 l 25
356 406 m 25
 356 494 l 25
 444 494 l 25
 444 406 l 25
 356 406 l 25
56 306 m 25
 56 394 l 25
 144 394 l 25
 144 306 l 25
 56 306 l 25
156 306 m 25
 156 394 l 25
 244 394 l 25
 244 306 l 25
 156 306 l 25
456 306 m 25
 456 394 l 25
 544 394 l 25
 544 306 l 25
 456 306 l 25
56 206 m 25
 56 294 l 25
 144 294 l 25
 144 206 l 25
 56 206 l 25
456 206 m 25
 456 294 l 25
 544 294 l 25
 544 206 l 25
 456 206 l 25
56 106 m 25
 56 194 l 25
 144 194 l 25
 144 106 l 25
 56 106 l 25
456 106 m 25
 456 194 l 25
 544 194 l 25
 544 106 l 25
 456 106 l 25
56 6 m 25
 56 94 l 25
 144 94 l 25
 144 6 l 25
 56 6 l 25
456 6 m 25
 456 94 l 25
 544 94 l 25
 544 6 l 25
 456 6 l 25
EndSplineSet
EndChar

StartChar: o
Encoding: 111 111 79
Width: 600
Flags: HMW
AnchorPoint: "marks_below" 300 0 basechar 0
AnchorPoint: "marks_above" 300 600 basechar 0
LayerCount: 2
Fore
SplineSet
156 406 m 25
 156 494 l 25
 244 494 l 25
 244 406 l 25
 156 406 l 25
256 406 m 25
 256 494 l 25
 344 494 l 25
 344 406 l 25
 256 406 l 25
356 406 m 25
 356 494 l 25
 444 494 l 25
 444 406 l 25
 356 406 l 25
56 306 m 25
 56 394 l 25
 144 394 l 25
 144 306 l 25
 56 306 l 25
456 306 m 25
 456 394 l 25
 544 394 l 25
 544 306 l 25
 456 306 l 25
56 206 m 25
 56 294 l 25
 144 294 l 25
 144 206 l 25
 56 206 l 25
456 206 m 25
 456 294 l 25
 544 294 l 25
 544 206 l 25
 456 206 l 25
56 106 m 25
 56 194 l 25
 144 194 l 25
 144 106 l 25
 56 106 l 25
456 106 m 25
 456 194 l 25
 544 194 l 25
 544 106 l 25
 456 106 l 25
156 6 m 25
 156 94 l 25
 244 94 l 25
 244 6 l 25
 156 6 l 25
256 6 m 25
 256 94 l 25
 344 94 l 25
 344 6 l 25
 256 6 l 25
356 6 m 25
 356 94 l 25
 444 94 l 25
 444 6 l 25
 356 6 l 25
EndSplineSet
EndChar

StartChar: p
Encoding: 112 112 80
Width: 600
Flags: HMW
AnchorPoint: "marks_above" 300 600 basechar 0
LayerCount: 2
Fore
SplineSet
56 406 m 25
 56 494 l 25
 144 494 l 25
 144 406 l 25
 56 406 l 25
256 406 m 25
 256 494 l 25
 344 494 l 25
 344 406 l 25
 256 406 l 25
356 406 m 25
 356 494 l 25
 444 494 l 25
 444 406 l 25
 356 406 l 25
56 306 m 25
 56 394 l 25
 144 394 l 25
 144 306 l 25
 56 306 l 25
156 306 m 25
 156 394 l 25
 244 394 l 25
 244 306 l 25
 156 306 l 25
456 306 m 25
 456 394 l 25
 544 394 l 25
 544 306 l 25
 456 306 l 25
56 206 m 25
 56 294 l 25
 144 294 l 25
 144 206 l 25
 56 206 l 25
456 206 m 25
 456 294 l 25
 544 294 l 25
 544 206 l 25
 456 206 l 25
56 106 m 25
 56 194 l 25
 144 194 l 25
 144 106 l 25
 56 106 l 25
156 106 m 25
 156 194 l 25
 244 194 l 25
 244 106 l 25
 156 106 l 25
456 106 m 25
 456 194 l 25
 544 194 l 25
 544 106 l 25
 456 106 l 25
56 6 m 25
 56 94 l 25
 144 94 l 25
 144 6 l 25
 56 6 l 25
256 6 m 25
 256 94 l 25
 344 94 l 25
 344 6 l 25
 256 6 l 25
356 6 m 25
 356 94 l 25
 444 94 l 25
 444 6 l 25
 356 6 l 25
56 -94 m 25
 56 -6 l 25
 144 -6 l 25
 144 -94 l 25
 56 -94 l 25
56 -194 m 25
 56 -106 l 25
 144 -106 l 25
 144 -194 l 25
 56 -194 l 25
EndSplineSet
EndChar

StartChar: q
Encoding: 113 113 81
Width: 600
Flags: HMW
AnchorPoint: "marks_above" 300 600 basechar 0
LayerCount: 2
Fore
SplineSet
156 406 m 25
 156 494 l 25
 244 494 l 25
 244 406 l 25
 156 406 l 25
256 406 m 25
 256 494 l 25
 344 494 l 25
 344 406 l 25
 256 406 l 25
456 406 m 25
 456 494 l 25
 544 494 l 25
 544 406 l 25
 456 406 l 25
56 306 m 25
 56 394 l 25
 144 394 l 25
 144 306 l 25
 56 306 l 25
356 306 m 25
 356 394 l 25
 444 394 l 25
 444 306 l 25
 356 306 l 25
456 306 m 25
 456 394 l 25
 544 394 l 25
 544 306 l 25
 456 306 l 25
56 206 m 25
 56 294 l 25
 144 294 l 25
 144 206 l 25
 56 206 l 25
456 206 m 25
 456 294 l 25
 544 294 l 25
 544 206 l 25
 456 206 l 25
56 106 m 25
 56 194 l 25
 144 194 l 25
 144 106 l 25
 56 106 l 25
356 106 m 25
 356 194 l 25
 444 194 l 25
 444 106 l 25
 356 106 l 25
456 106 m 25
 456 194 l 25
 544 194 l 25
 544 106 l 25
 456 106 l 25
156 6 m 25
 156 94 l 25
 244 94 l 25
 244 6 l 25
 156 6 l 25
256 6 m 25
 256 94 l 25
 344 94 l 25
 344 6 l 25
 256 6 l 25
456 6 m 25
 456 94 l 25
 544 94 l 25
 544 6 l 25
 456 6 l 25
456 -94 m 25
 456 -6 l 25
 544 -6 l 25
 544 -94 l 25
 456 -94 l 25
456 -194 m 25
 456 -106 l 25
 544 -106 l 25
 544 -194 l 25
 456 -194 l 25
EndSplineSet
EndChar

StartChar: r
Encoding: 114 114 82
Width: 600
Flags: HMW
AnchorPoint: "marks_below" 300 0 basechar 0
AnchorPoint: "marks_above" 300 600 basechar 0
LayerCount: 2
Fore
SplineSet
56 406 m 25
 56 494 l 25
 144 494 l 25
 144 406 l 25
 56 406 l 25
256 406 m 25
 256 494 l 25
 344 494 l 25
 344 406 l 25
 256 406 l 25
356 406 m 25
 356 494 l 25
 444 494 l 25
 444 406 l 25
 356 406 l 25
56 306 m 25
 56 394 l 25
 144 394 l 25
 144 306 l 25
 56 306 l 25
156 306 m 25
 156 394 l 25
 244 394 l 25
 244 306 l 25
 156 306 l 25
456 306 m 25
 456 394 l 25
 544 394 l 25
 544 306 l 25
 456 306 l 25
56 206 m 25
 56 294 l 25
 144 294 l 25
 144 206 l 25
 56 206 l 25
56 106 m 25
 56 194 l 25
 144 194 l 25
 144 106 l 25
 56 106 l 25
56 6 m 25
 56 94 l 25
 144 94 l 25
 144 6 l 25
 56 6 l 25
EndSplineSet
EndChar

StartChar: s
Encoding: 115 115 83
Width: 600
Flags: HMW
AnchorPoint: "marks_below" 300 0 basechar 0
AnchorPoint: "marks_above" 300 600 basechar 0
LayerCount: 2
Fore
SplineSet
156 406 m 25
 156 494 l 25
 244 494 l 25
 244 406 l 25
 156 406 l 25
256 406 m 25
 256 494 l 25
 344 494 l 25
 344 406 l 25
 256 406 l 25
356 406 m 25
 356 494 l 25
 444 494 l 25
 444 406 l 25
 356 406 l 25
456 406 m 25
 456 494 l 25
 544 494 l 25
 544 406 l 25
 456 406 l 25
56 306 m 25
 56 394 l 25
 144 394 l 25
 144 306 l 25
 56 306 l 25
156 206 m 25
 156 294 l 25
 244 294 l 25
 244 206 l 25
 156 206 l 25
256 206 m 25
 256 294 l 25
 344 294 l 25
 344 206 l 25
 256 206 l 25
356 206 m 25
 356 294 l 25
 444 294 l 25
 444 206 l 25
 356 206 l 25
456 106 m 25
 456 194 l 25
 544 194 l 25
 544 106 l 25
 456 106 l 25
56 6 m 25
 56 94 l 25
 144 94 l 25
 144 6 l 25
 56 6 l 25
156 6 m 25
 156 94 l 25
 244 94 l 25
 244 6 l 25
 156 6 l 25
256 6 m 25
 256 94 l 25
 344 94 l 25
 344 6 l 25
 256 6 l 25
356 6 m 25
 356 94 l 25
 444 94 l 25
 444 6 l 25
 356 6 l 25
EndSplineSet
EndChar

StartChar: t
Encoding: 116 116 84
Width: 600
Flags: HMW
AnchorPoint: "marks_aboveright" 350 600 basechar 0
AnchorPoint: "marks_below" 300 0 basechar 0
AnchorPoint: "marks_above" 300 800 basechar 0
LayerCount: 2
Fore
SplineSet
156 606 m 25
 156 694 l 25
 244 694 l 25
 244 606 l 25
 156 606 l 25
156 506 m 25
 156 594 l 25
 244 594 l 25
 244 506 l 25
 156 506 l 25
56 406 m 25
 56 494 l 25
 144 494 l 25
 144 406 l 25
 56 406 l 25
156 406 m 25
 156 494 l 25
 244 494 l 25
 244 406 l 25
 156 406 l 25
256 406 m 25
 256 494 l 25
 344 494 l 25
 344 406 l 25
 256 406 l 25
356 406 m 25
 356 494 l 25
 444 494 l 25
 444 406 l 25
 356 406 l 25
156 306 m 25
 156 394 l 25
 244 394 l 25
 244 306 l 25
 156 306 l 25
156 206 m 25
 156 294 l 25
 244 294 l 25
 244 206 l 25
 156 206 l 25
156 106 m 25
 156 194 l 25
 244 194 l 25
 244 106 l 25
 156 106 l 25
456 106 m 25
 456 194 l 25
 544 194 l 25
 544 106 l 25
 456 106 l 25
256 6 m 25
 256 94 l 25
 344 94 l 25
 344 6 l 25
 256 6 l 25
356 6 m 25
 356 94 l 25
 444 94 l 25
 444 6 l 25
 356 6 l 25
EndSplineSet
EndChar

StartChar: u
Encoding: 117 117 85
Width: 600
Flags: HMW
AnchorPoint: "ogonek" 400 0 basechar 0
AnchorPoint: "marks_below" 300 0 basechar 0
AnchorPoint: "marks_above" 300 600 basechar 0
LayerCount: 2
Fore
SplineSet
56 406 m 25
 56 494 l 25
 144 494 l 25
 144 406 l 25
 56 406 l 25
456 406 m 25
 456 494 l 25
 544 494 l 25
 544 406 l 25
 456 406 l 25
56 306 m 25
 56 394 l 25
 144 394 l 25
 144 306 l 25
 56 306 l 25
456 306 m 25
 456 394 l 25
 544 394 l 25
 544 306 l 25
 456 306 l 25
56 206 m 25
 56 294 l 25
 144 294 l 25
 144 206 l 25
 56 206 l 25
456 206 m 25
 456 294 l 25
 544 294 l 25
 544 206 l 25
 456 206 l 25
56 106 m 25
 56 194 l 25
 144 194 l 25
 144 106 l 25
 56 106 l 25
356 106 m 25
 356 194 l 25
 444 194 l 25
 444 106 l 25
 356 106 l 25
456 106 m 25
 456 194 l 25
 544 194 l 25
 544 106 l 25
 456 106 l 25
156 6 m 25
 156 94 l 25
 244 94 l 25
 244 6 l 25
 156 6 l 25
256 6 m 25
 256 94 l 25
 344 94 l 25
 344 6 l 25
 256 6 l 25
456 6 m 25
 456 94 l 25
 544 94 l 25
 544 6 l 25
 456 6 l 25
EndSplineSet
EndChar

StartChar: v
Encoding: 118 118 86
Width: 600
Flags: HMW
AnchorPoint: "marks_below" 300 0 basechar 0
AnchorPoint: "marks_above" 300 600 basechar 0
LayerCount: 2
Fore
SplineSet
56 406 m 25
 56 494 l 25
 144 494 l 25
 144 406 l 25
 56 406 l 25
456 406 m 25
 456 494 l 25
 544 494 l 25
 544 406 l 25
 456 406 l 25
56 306 m 25
 56 394 l 25
 144 394 l 25
 144 306 l 25
 56 306 l 25
456 306 m 25
 456 394 l 25
 544 394 l 25
 544 306 l 25
 456 306 l 25
56 206 m 25
 56 294 l 25
 144 294 l 25
 144 206 l 25
 56 206 l 25
456 206 m 25
 456 294 l 25
 544 294 l 25
 544 206 l 25
 456 206 l 25
156 106 m 25
 156 194 l 25
 244 194 l 25
 244 106 l 25
 156 106 l 25
356 106 m 25
 356 194 l 25
 444 194 l 25
 444 106 l 25
 356 106 l 25
256 6 m 25
 256 94 l 25
 344 94 l 25
 344 6 l 25
 256 6 l 25
EndSplineSet
EndChar

StartChar: w
Encoding: 119 119 87
Width: 600
Flags: HMW
AnchorPoint: "marks_below" 300 0 basechar 0
AnchorPoint: "marks_above" 300 600 basechar 0
LayerCount: 2
Fore
SplineSet
56 406 m 25
 56 494 l 25
 144 494 l 25
 144 406 l 25
 56 406 l 25
456 406 m 25
 456 494 l 25
 544 494 l 25
 544 406 l 25
 456 406 l 25
56 306 m 25
 56 394 l 25
 144 394 l 25
 144 306 l 25
 56 306 l 25
256 306 m 25
 256 394 l 25
 344 394 l 25
 344 306 l 25
 256 306 l 25
456 306 m 25
 456 394 l 25
 544 394 l 25
 544 306 l 25
 456 306 l 25
56 206 m 25
 56 294 l 25
 144 294 l 25
 144 206 l 25
 56 206 l 25
256 206 m 25
 256 294 l 25
 344 294 l 25
 344 206 l 25
 256 206 l 25
456 206 m 25
 456 294 l 25
 544 294 l 25
 544 206 l 25
 456 206 l 25
56 106 m 25
 56 194 l 25
 144 194 l 25
 144 106 l 25
 56 106 l 25
256 106 m 25
 256 194 l 25
 344 194 l 25
 344 106 l 25
 256 106 l 25
456 106 m 25
 456 194 l 25
 544 194 l 25
 544 106 l 25
 456 106 l 25
156 6 m 25
 156 94 l 25
 244 94 l 25
 244 6 l 25
 156 6 l 25
356 6 m 25
 356 94 l 25
 444 94 l 25
 444 6 l 25
 356 6 l 25
EndSplineSet
EndChar

StartChar: x
Encoding: 120 120 88
Width: 600
Flags: HMW
AnchorPoint: "marks_below" 300 0 basechar 0
AnchorPoint: "marks_above" 300 600 basechar 0
LayerCount: 2
Fore
SplineSet
56 406 m 25
 56 494 l 25
 144 494 l 25
 144 406 l 25
 56 406 l 25
456 406 m 25
 456 494 l 25
 544 494 l 25
 544 406 l 25
 456 406 l 25
156 306 m 25
 156 394 l 25
 244 394 l 25
 244 306 l 25
 156 306 l 25
356 306 m 25
 356 394 l 25
 444 394 l 25
 444 306 l 25
 356 306 l 25
256 206 m 25
 256 294 l 25
 344 294 l 25
 344 206 l 25
 256 206 l 25
156 106 m 25
 156 194 l 25
 244 194 l 25
 244 106 l 25
 156 106 l 25
356 106 m 25
 356 194 l 25
 444 194 l 25
 444 106 l 25
 356 106 l 25
56 6 m 25
 56 94 l 25
 144 94 l 25
 144 6 l 25
 56 6 l 25
456 6 m 25
 456 94 l 25
 544 94 l 25
 544 6 l 25
 456 6 l 25
EndSplineSet
EndChar

StartChar: y
Encoding: 121 121 89
Width: 600
Flags: HMW
AnchorPoint: "marks_above" 300 600 basechar 0
LayerCount: 2
Fore
SplineSet
56 406 m 25
 56 494 l 25
 144 494 l 25
 144 406 l 25
 56 406 l 25
456 406 m 25
 456 494 l 25
 544 494 l 25
 544 406 l 25
 456 406 l 25
56 306 m 25
 56 394 l 25
 144 394 l 25
 144 306 l 25
 56 306 l 25
456 306 m 25
 456 394 l 25
 544 394 l 25
 544 306 l 25
 456 306 l 25
56 206 m 25
 56 294 l 25
 144 294 l 25
 144 206 l 25
 56 206 l 25
456 206 m 25
 456 294 l 25
 544 294 l 25
 544 206 l 25
 456 206 l 25
56 106 m 25
 56 194 l 25
 144 194 l 25
 144 106 l 25
 56 106 l 25
356 106 m 25
 356 194 l 25
 444 194 l 25
 444 106 l 25
 356 106 l 25
456 106 m 25
 456 194 l 25
 544 194 l 25
 544 106 l 25
 456 106 l 25
156 6 m 25
 156 94 l 25
 244 94 l 25
 244 6 l 25
 156 6 l 25
256 6 m 25
 256 94 l 25
 344 94 l 25
 344 6 l 25
 256 6 l 25
456 6 m 25
 456 94 l 25
 544 94 l 25
 544 6 l 25
 456 6 l 25
456 -94 m 25
 456 -6 l 25
 544 -6 l 25
 544 -94 l 25
 456 -94 l 25
156 -194 m 25
 156 -106 l 25
 244 -106 l 25
 244 -194 l 25
 156 -194 l 25
256 -194 m 25
 256 -106 l 25
 344 -106 l 25
 344 -194 l 25
 256 -194 l 25
356 -194 m 25
 356 -106 l 25
 444 -106 l 25
 444 -194 l 25
 356 -194 l 25
EndSplineSet
EndChar

StartChar: z
Encoding: 122 122 90
Width: 600
Flags: HMW
AnchorPoint: "marks_below" 300 0 basechar 0
AnchorPoint: "marks_above" 300 600 basechar 0
LayerCount: 2
Fore
SplineSet
56 406 m 25
 56 494 l 25
 144 494 l 25
 144 406 l 25
 56 406 l 25
156 406 m 25
 156 494 l 25
 244 494 l 25
 244 406 l 25
 156 406 l 25
256 406 m 25
 256 494 l 25
 344 494 l 25
 344 406 l 25
 256 406 l 25
356 406 m 25
 356 494 l 25
 444 494 l 25
 444 406 l 25
 356 406 l 25
456 406 m 25
 456 494 l 25
 544 494 l 25
 544 406 l 25
 456 406 l 25
356 306 m 25
 356 394 l 25
 444 394 l 25
 444 306 l 25
 356 306 l 25
256 206 m 25
 256 294 l 25
 344 294 l 25
 344 206 l 25
 256 206 l 25
156 106 m 25
 156 194 l 25
 244 194 l 25
 244 106 l 25
 156 106 l 25
56 6 m 25
 56 94 l 25
 144 94 l 25
 144 6 l 25
 56 6 l 25
156 6 m 25
 156 94 l 25
 244 94 l 25
 244 6 l 25
 156 6 l 25
256 6 m 25
 256 94 l 25
 344 94 l 25
 344 6 l 25
 256 6 l 25
356 6 m 25
 356 94 l 25
 444 94 l 25
 444 6 l 25
 356 6 l 25
456 6 m 25
 456 94 l 25
 544 94 l 25
 544 6 l 25
 456 6 l 25
EndSplineSet
EndChar

StartChar: braceleft
Encoding: 123 123 91
Width: 500
Flags: HMW
LayerCount: 2
Fore
SplineSet
256 606 m 25
 256 694 l 25
 344 694 l 25
 344 606 l 25
 256 606 l 25
356 606 m 25
 356 694 l 25
 444 694 l 25
 444 606 l 25
 356 606 l 25
156 506 m 25
 156 594 l 25
 244 594 l 25
 244 506 l 25
 156 506 l 25
256 406 m 25
 256 494 l 25
 344 494 l 25
 344 406 l 25
 256 406 l 25
56 306 m 25
 56 394 l 25
 144 394 l 25
 144 306 l 25
 56 306 l 25
156 306 m 25
 156 394 l 25
 244 394 l 25
 244 306 l 25
 156 306 l 25
256 206 m 25
 256 294 l 25
 344 294 l 25
 344 206 l 25
 256 206 l 25
156 106 m 25
 156 194 l 25
 244 194 l 25
 244 106 l 25
 156 106 l 25
256 6 m 25
 256 94 l 25
 344 94 l 25
 344 6 l 25
 256 6 l 25
356 6 m 25
 356 94 l 25
 444 94 l 25
 444 6 l 25
 356 6 l 25
EndSplineSet
EndChar

StartChar: bar
Encoding: 124 124 92
Width: 200
Flags: HMW
LayerCount: 2
Fore
SplineSet
56 606 m 25
 56 694 l 25
 144 694 l 25
 144 606 l 25
 56 606 l 25
56 506 m 25
 56 594 l 25
 144 594 l 25
 144 506 l 25
 56 506 l 25
56 406 m 25
 56 494 l 25
 144 494 l 25
 144 406 l 25
 56 406 l 25
56 306 m 25
 56 394 l 25
 144 394 l 25
 144 306 l 25
 56 306 l 25
56 206 m 25
 56 294 l 25
 144 294 l 25
 144 206 l 25
 56 206 l 25
56 106 m 25
 56 194 l 25
 144 194 l 25
 144 106 l 25
 56 106 l 25
56 6 m 25
 56 94 l 25
 144 94 l 25
 144 6 l 25
 56 6 l 25
EndSplineSet
EndChar

StartChar: braceright
Encoding: 125 125 93
Width: 500
Flags: HMW
LayerCount: 2
Fore
SplineSet
56 606 m 25
 56 694 l 25
 144 694 l 25
 144 606 l 25
 56 606 l 25
156 606 m 25
 156 694 l 25
 244 694 l 25
 244 606 l 25
 156 606 l 25
256 506 m 25
 256 594 l 25
 344 594 l 25
 344 506 l 25
 256 506 l 25
156 406 m 25
 156 494 l 25
 244 494 l 25
 244 406 l 25
 156 406 l 25
256 306 m 25
 256 394 l 25
 344 394 l 25
 344 306 l 25
 256 306 l 25
356 306 m 25
 356 394 l 25
 444 394 l 25
 444 306 l 25
 356 306 l 25
156 206 m 25
 156 294 l 25
 244 294 l 25
 244 206 l 25
 156 206 l 25
256 106 m 25
 256 194 l 25
 344 194 l 25
 344 106 l 25
 256 106 l 25
56 6 m 25
 56 94 l 25
 144 94 l 25
 144 6 l 25
 56 6 l 25
156 6 m 25
 156 94 l 25
 244 94 l 25
 244 6 l 25
 156 6 l 25
EndSplineSet
EndChar

StartChar: asciitilde
Encoding: 126 126 94
Width: 600
Flags: HMW
LayerCount: 2
Fore
SplineSet
156 406 m 25
 156 494 l 25
 244 494 l 25
 244 406 l 25
 156 406 l 25
456 406 m 25
 456 494 l 25
 544 494 l 25
 544 406 l 25
 456 406 l 25
56 306 m 25
 56 394 l 25
 144 394 l 25
 144 306 l 25
 56 306 l 25
256 306 m 25
 256 394 l 25
 344 394 l 25
 344 306 l 25
 256 306 l 25
456 306 m 25
 456 394 l 25
 544 394 l 25
 544 306 l 25
 456 306 l 25
56 206 m 25
 56 294 l 25
 144 294 l 25
 144 206 l 25
 56 206 l 25
356 206 m 25
 356 294 l 25
 444 294 l 25
 444 206 l 25
 356 206 l 25
EndSplineSet
EndChar

StartChar: .notdef
Encoding: 1114113 -1 95
Width: 601
VWidth: 0
Flags: HMW
LayerCount: 2
Fore
SplineSet
550 0 m 1
 50 0 l 1
 50 700 l 1
 550 700 l 1
 550 0 l 1
130 70 m 1
 470 70 l 1
 470 630 l 1
 130 630 l 1
 130 70 l 1
EndSplineSet
EndChar

StartChar: exclamdown
Encoding: 161 161 96
Width: 200
Flags: HMW
LayerCount: 2
Fore
SplineSet
56 406 m 25
 56 494 l 25
 144 494 l 25
 144 406 l 25
 56 406 l 25
56 206 m 25
 56 294 l 25
 144 294 l 25
 144 206 l 25
 56 206 l 25
56 106 m 25
 56 194 l 25
 144 194 l 25
 144 106 l 25
 56 106 l 25
56 6 m 25
 56 94 l 25
 144 94 l 25
 144 6 l 25
 56 6 l 25
56 -94 m 25
 56 -6 l 25
 144 -6 l 25
 144 -94 l 25
 56 -94 l 25
56 -194 m 25
 56 -106 l 25
 144 -106 l 25
 144 -194 l 25
 56 -194 l 25
EndSplineSet
EndChar

StartChar: cent
Encoding: 162 162 97
Width: 600
Flags: HMW
LayerCount: 2
Fore
SplineSet
256 606 m 25
 256 694 l 25
 344 694 l 25
 344 606 l 25
 256 606 l 25
156 506 m 25
 156 594 l 25
 244 594 l 25
 244 506 l 25
 156 506 l 25
256 506 m 25
 256 594 l 25
 344 594 l 25
 344 506 l 25
 256 506 l 25
356 506 m 25
 356 594 l 25
 444 594 l 25
 444 506 l 25
 356 506 l 25
56 406 m 25
 56 494 l 25
 144 494 l 25
 144 406 l 25
 56 406 l 25
256 406 m 25
 256 494 l 25
 344 494 l 25
 344 406 l 25
 256 406 l 25
456 406 m 25
 456 494 l 25
 544 494 l 25
 544 406 l 25
 456 406 l 25
56 306 m 25
 56 394 l 25
 144 394 l 25
 144 306 l 25
 56 306 l 25
256 306 m 25
 256 394 l 25
 344 394 l 25
 344 306 l 25
 256 306 l 25
56 206 m 25
 56 294 l 25
 144 294 l 25
 144 206 l 25
 56 206 l 25
256 206 m 25
 256 294 l 25
 344 294 l 25
 344 206 l 25
 256 206 l 25
456 206 m 25
 456 294 l 25
 544 294 l 25
 544 206 l 25
 456 206 l 25
156 106 m 25
 156 194 l 25
 244 194 l 25
 244 106 l 25
 156 106 l 25
256 106 m 25
 256 194 l 25
 344 194 l 25
 344 106 l 25
 256 106 l 25
356 106 m 25
 356 194 l 25
 444 194 l 25
 444 106 l 25
 356 106 l 25
256 6 m 25
 256 94 l 25
 344 94 l 25
 344 6 l 25
 256 6 l 25
EndSplineSet
EndChar

StartChar: sterling
Encoding: 163 163 98
Width: 600
Flags: HMW
LayerCount: 2
Fore
SplineSet
256 606 m 25
 256 694 l 25
 344 694 l 25
 344 606 l 25
 256 606 l 25
356 606 m 25
 356 694 l 25
 444 694 l 25
 444 606 l 25
 356 606 l 25
156 506 m 25
 156 594 l 25
 244 594 l 25
 244 506 l 25
 156 506 l 25
456 506 m 25
 456 594 l 25
 544 594 l 25
 544 506 l 25
 456 506 l 25
156 406 m 25
 156 494 l 25
 244 494 l 25
 244 406 l 25
 156 406 l 25
56 306 m 25
 56 394 l 25
 144 394 l 25
 144 306 l 25
 56 306 l 25
156 306 m 25
 156 394 l 25
 244 394 l 25
 244 306 l 25
 156 306 l 25
256 306 m 25
 256 394 l 25
 344 394 l 25
 344 306 l 25
 256 306 l 25
156 206 m 25
 156 294 l 25
 244 294 l 25
 244 206 l 25
 156 206 l 25
156 106 m 25
 156 194 l 25
 244 194 l 25
 244 106 l 25
 156 106 l 25
56 6 m 25
 56 94 l 25
 144 94 l 25
 144 6 l 25
 56 6 l 25
156 6 m 25
 156 94 l 25
 244 94 l 25
 244 6 l 25
 156 6 l 25
256 6 m 25
 256 94 l 25
 344 94 l 25
 344 6 l 25
 256 6 l 25
356 6 m 25
 356 94 l 25
 444 94 l 25
 444 6 l 25
 356 6 l 25
456 6 m 25
 456 94 l 25
 544 94 l 25
 544 6 l 25
 456 6 l 25
EndSplineSet
EndChar

StartChar: currency
Encoding: 164 164 99
Width: 600
Flags: HMW
LayerCount: 2
Fore
SplineSet
56 506 m 25
 56 594 l 25
 144 594 l 25
 144 506 l 25
 56 506 l 25
456 506 m 25
 456 594 l 25
 544 594 l 25
 544 506 l 25
 456 506 l 25
156 406 m 25
 156 494 l 25
 244 494 l 25
 244 406 l 25
 156 406 l 25
256 406 m 25
 256 494 l 25
 344 494 l 25
 344 406 l 25
 256 406 l 25
356 406 m 25
 356 494 l 25
 444 494 l 25
 444 406 l 25
 356 406 l 25
156 306 m 25
 156 394 l 25
 244 394 l 25
 244 306 l 25
 156 306 l 25
356 306 m 25
 356 394 l 25
 444 394 l 25
 444 306 l 25
 356 306 l 25
156 206 m 25
 156 294 l 25
 244 294 l 25
 244 206 l 25
 156 206 l 25
256 206 m 25
 256 294 l 25
 344 294 l 25
 344 206 l 25
 256 206 l 25
356 206 m 25
 356 294 l 25
 444 294 l 25
 444 206 l 25
 356 206 l 25
56 106 m 25
 56 194 l 25
 144 194 l 25
 144 106 l 25
 56 106 l 25
456 106 m 25
 456 194 l 25
 544 194 l 25
 544 106 l 25
 456 106 l 25
EndSplineSet
EndChar

StartChar: yen
Encoding: 165 165 100
Width: 600
Flags: HMW
LayerCount: 2
Fore
SplineSet
56 606 m 25
 56 694 l 25
 144 694 l 25
 144 606 l 25
 56 606 l 25
456 606 m 25
 456 694 l 25
 544 694 l 25
 544 606 l 25
 456 606 l 25
156 506 m 25
 156 594 l 25
 244 594 l 25
 244 506 l 25
 156 506 l 25
356 506 m 25
 356 594 l 25
 444 594 l 25
 444 506 l 25
 356 506 l 25
256 406 m 25
 256 494 l 25
 344 494 l 25
 344 406 l 25
 256 406 l 25
156 306 m 25
 156 394 l 25
 244 394 l 25
 244 306 l 25
 156 306 l 25
256 306 m 25
 256 394 l 25
 344 394 l 25
 344 306 l 25
 256 306 l 25
356 306 m 25
 356 394 l 25
 444 394 l 25
 444 306 l 25
 356 306 l 25
254 208 m 25
 254 296 l 25
 342 296 l 25
 342 208 l 25
 254 208 l 25
156 106 m 25
 156 194 l 25
 244 194 l 25
 244 106 l 25
 156 106 l 25
256 106 m 25
 256 194 l 25
 344 194 l 25
 344 106 l 25
 256 106 l 25
356 106 m 25
 356 194 l 25
 444 194 l 25
 444 106 l 25
 356 106 l 25
256 6 m 25
 256 94 l 25
 344 94 l 25
 344 6 l 25
 256 6 l 25
EndSplineSet
EndChar

StartChar: brokenbar
Encoding: 166 166 101
Width: 200
Flags: HMW
LayerCount: 2
Fore
SplineSet
56 606 m 25
 56 694 l 25
 144 694 l 25
 144 606 l 25
 56 606 l 25
56 506 m 25
 56 594 l 25
 144 594 l 25
 144 506 l 25
 56 506 l 25
56 406 m 25
 56 494 l 25
 144 494 l 25
 144 406 l 25
 56 406 l 25
56 206 m 25
 56 294 l 25
 144 294 l 25
 144 206 l 25
 56 206 l 25
56 106 m 25
 56 194 l 25
 144 194 l 25
 144 106 l 25
 56 106 l 25
56 6 m 25
 56 94 l 25
 144 94 l 25
 144 6 l 25
 56 6 l 25
EndSplineSet
EndChar

StartChar: section
Encoding: 167 167 102
Width: 600
Flags: HMW
LayerCount: 2
Fore
SplineSet
156 606 m 25
 156 694 l 25
 244 694 l 25
 244 606 l 25
 156 606 l 25
256 606 m 25
 256 694 l 25
 344 694 l 25
 344 606 l 25
 256 606 l 25
356 606 m 25
 356 694 l 25
 444 694 l 25
 444 606 l 25
 356 606 l 25
56 506 m 25
 56 594 l 25
 144 594 l 25
 144 506 l 25
 56 506 l 25
456 506 m 25
 456 594 l 25
 544 594 l 25
 544 506 l 25
 456 506 l 25
56 406 m 25
 56 494 l 25
 144 494 l 25
 144 406 l 25
 56 406 l 25
156 306 m 25
 156 394 l 25
 244 394 l 25
 244 306 l 25
 156 306 l 25
256 306 m 25
 256 394 l 25
 344 394 l 25
 344 306 l 25
 256 306 l 25
356 306 m 25
 356 394 l 25
 444 394 l 25
 444 306 l 25
 356 306 l 25
56 206 m 25
 56 294 l 25
 144 294 l 25
 144 206 l 25
 56 206 l 25
456 206 m 25
 456 294 l 25
 544 294 l 25
 544 206 l 25
 456 206 l 25
156 106 m 25
 156 194 l 25
 244 194 l 25
 244 106 l 25
 156 106 l 25
256 106 m 25
 256 194 l 25
 344 194 l 25
 344 106 l 25
 256 106 l 25
356 106 m 25
 356 194 l 25
 444 194 l 25
 444 106 l 25
 356 106 l 25
456 6 m 25
 456 94 l 25
 544 94 l 25
 544 6 l 25
 456 6 l 25
56 -94 m 25
 56 -6 l 25
 144 -6 l 25
 144 -94 l 25
 56 -94 l 25
456 -94 m 25
 456 -6 l 25
 544 -6 l 25
 544 -94 l 25
 456 -94 l 25
156 -194 m 25
 156 -106 l 25
 244 -106 l 25
 244 -194 l 25
 156 -194 l 25
256 -194 m 25
 256 -106 l 25
 344 -106 l 25
 344 -194 l 25
 256 -194 l 25
356 -194 m 25
 356 -106 l 25
 444 -106 l 25
 444 -194 l 25
 356 -194 l 25
EndSplineSet
EndChar

StartChar: dieresis
Encoding: 168 168 103
Width: 400
Flags: HMW
LayerCount: 2
Fore
SplineSet
56 606 m 25
 56 694 l 25
 144 694 l 25
 144 606 l 25
 56 606 l 25
256 606 m 25
 256 694 l 25
 344 694 l 25
 344 606 l 25
 256 606 l 25
EndSplineSet
EndChar

StartChar: copyright
Encoding: 169 169 104
Width: 900
Flags: HMW
LayerCount: 2
Fore
SplineSet
256 606 m 25
 256 694 l 25
 344 694 l 25
 344 606 l 25
 256 606 l 25
356 606 m 25
 356 694 l 25
 444 694 l 25
 444 606 l 25
 356 606 l 25
456 606 m 25
 456 694 l 25
 544 694 l 25
 544 606 l 25
 456 606 l 25
556 606 m 25
 556 694 l 25
 644 694 l 25
 644 606 l 25
 556 606 l 25
156 506 m 25
 156 594 l 25
 244 594 l 25
 244 506 l 25
 156 506 l 25
656 506 m 25
 656 594 l 25
 744 594 l 25
 744 506 l 25
 656 506 l 25
56 406 m 25
 56 494 l 25
 144 494 l 25
 144 406 l 25
 56 406 l 25
356 406 m 25
 356 494 l 25
 444 494 l 25
 444 406 l 25
 356 406 l 25
456 406 m 25
 456 494 l 25
 544 494 l 25
 544 406 l 25
 456 406 l 25
756 406 m 25
 756 494 l 25
 844 494 l 25
 844 406 l 25
 756 406 l 25
56 306 m 25
 56 394 l 25
 144 394 l 25
 144 306 l 25
 56 306 l 25
256 306 m 25
 256 394 l 25
 344 394 l 25
 344 306 l 25
 256 306 l 25
756 306 m 25
 756 394 l 25
 844 394 l 25
 844 306 l 25
 756 306 l 25
56 206 m 25
 56 294 l 25
 144 294 l 25
 144 206 l 25
 56 206 l 25
256 206 m 25
 256 294 l 25
 344 294 l 25
 344 206 l 25
 256 206 l 25
756 206 m 25
 756 294 l 25
 844 294 l 25
 844 206 l 25
 756 206 l 25
56 106 m 25
 56 194 l 25
 144 194 l 25
 144 106 l 25
 56 106 l 25
356 106 m 25
 356 194 l 25
 444 194 l 25
 444 106 l 25
 356 106 l 25
456 106 m 25
 456 194 l 25
 544 194 l 25
 544 106 l 25
 456 106 l 25
756 106 m 25
 756 194 l 25
 844 194 l 25
 844 106 l 25
 756 106 l 25
156 6 m 25
 156 94 l 25
 244 94 l 25
 244 6 l 25
 156 6 l 25
656 6 m 25
 656 94 l 25
 744 94 l 25
 744 6 l 25
 656 6 l 25
256 -94 m 25
 256 -6 l 25
 344 -6 l 25
 344 -94 l 25
 256 -94 l 25
356 -94 m 25
 356 -6 l 25
 444 -6 l 25
 444 -94 l 25
 356 -94 l 25
456 -94 m 25
 456 -6 l 25
 544 -6 l 25
 544 -94 l 25
 456 -94 l 25
556 -94 m 25
 556 -6 l 25
 644 -6 l 25
 644 -94 l 25
 556 -94 l 25
EndSplineSet
EndChar

StartChar: ordfeminine
Encoding: 170 170 105
Width: 500
Flags: HMW
LayerCount: 2
Fore
SplineSet
156 606 m 25
 156 694 l 25
 244 694 l 25
 244 606 l 25
 156 606 l 25
256 606 m 25
 256 694 l 25
 344 694 l 25
 344 606 l 25
 256 606 l 25
356 606 m 25
 356 694 l 25
 444 694 l 25
 444 606 l 25
 356 606 l 25
56 506 m 25
 56 594 l 25
 144 594 l 25
 144 506 l 25
 56 506 l 25
356 506 m 25
 356 594 l 25
 444 594 l 25
 444 506 l 25
 356 506 l 25
56 406 m 25
 56 494 l 25
 144 494 l 25
 144 406 l 25
 56 406 l 25
356 406 m 25
 356 494 l 25
 444 494 l 25
 444 406 l 25
 356 406 l 25
156 306 m 25
 156 394 l 25
 244 394 l 25
 244 306 l 25
 156 306 l 25
256 306 m 25
 256 394 l 25
 344 394 l 25
 344 306 l 25
 256 306 l 25
356 306 m 25
 356 394 l 25
 444 394 l 25
 444 306 l 25
 356 306 l 25
56 106 m 25
 56 194 l 25
 144 194 l 25
 144 106 l 25
 56 106 l 25
156 106 m 25
 156 194 l 25
 244 194 l 25
 244 106 l 25
 156 106 l 25
256 106 m 25
 256 194 l 25
 344 194 l 25
 344 106 l 25
 256 106 l 25
356 106 m 25
 356 194 l 25
 444 194 l 25
 444 106 l 25
 356 106 l 25
EndSplineSet
EndChar

StartChar: logicalnot
Encoding: 172 172 106
Width: 600
Flags: HMW
LayerCount: 2
Fore
SplineSet
56 306 m 25
 56 394 l 25
 144 394 l 25
 144 306 l 25
 56 306 l 25
156 306 m 25
 156 394 l 25
 244 394 l 25
 244 306 l 25
 156 306 l 25
256 306 m 25
 256 394 l 25
 344 394 l 25
 344 306 l 25
 256 306 l 25
356 306 m 25
 356 394 l 25
 444 394 l 25
 444 306 l 25
 356 306 l 25
456 306 m 25
 456 394 l 25
 544 394 l 25
 544 306 l 25
 456 306 l 25
456 206 m 25
 456 294 l 25
 544 294 l 25
 544 206 l 25
 456 206 l 25
456 106 m 25
 456 194 l 25
 544 194 l 25
 544 106 l 25
 456 106 l 25
EndSplineSet
EndChar

StartChar: registered
Encoding: 174 174 107
Width: 900
Flags: HMW
LayerCount: 2
Fore
SplineSet
256 606 m 25
 256 694 l 25
 344 694 l 25
 344 606 l 25
 256 606 l 25
356 606 m 25
 356 694 l 25
 444 694 l 25
 444 606 l 25
 356 606 l 25
456 606 m 25
 456 694 l 25
 544 694 l 25
 544 606 l 25
 456 606 l 25
556 606 m 25
 556 694 l 25
 644 694 l 25
 644 606 l 25
 556 606 l 25
156 506 m 25
 156 594 l 25
 244 594 l 25
 244 506 l 25
 156 506 l 25
656 506 m 25
 656 594 l 25
 744 594 l 25
 744 506 l 25
 656 506 l 25
56 406 m 25
 56 494 l 25
 144 494 l 25
 144 406 l 25
 56 406 l 25
256 406 m 25
 256 494 l 25
 344 494 l 25
 344 406 l 25
 256 406 l 25
356 406 m 25
 356 494 l 25
 444 494 l 25
 444 406 l 25
 356 406 l 25
456 406 m 25
 456 494 l 25
 544 494 l 25
 544 406 l 25
 456 406 l 25
756 406 m 25
 756 494 l 25
 844 494 l 25
 844 406 l 25
 756 406 l 25
56 306 m 25
 56 394 l 25
 144 394 l 25
 144 306 l 25
 56 306 l 25
256 306 m 25
 256 394 l 25
 344 394 l 25
 344 306 l 25
 256 306 l 25
556 306 m 25
 556 394 l 25
 644 394 l 25
 644 306 l 25
 556 306 l 25
756 306 m 25
 756 394 l 25
 844 394 l 25
 844 306 l 25
 756 306 l 25
56 206 m 25
 56 294 l 25
 144 294 l 25
 144 206 l 25
 56 206 l 25
256 206 m 25
 256 294 l 25
 344 294 l 25
 344 206 l 25
 256 206 l 25
356 206 m 25
 356 294 l 25
 444 294 l 25
 444 206 l 25
 356 206 l 25
456 206 m 25
 456 294 l 25
 544 294 l 25
 544 206 l 25
 456 206 l 25
756 206 m 25
 756 294 l 25
 844 294 l 25
 844 206 l 25
 756 206 l 25
56 106 m 25
 56 194 l 25
 144 194 l 25
 144 106 l 25
 56 106 l 25
256 106 m 25
 256 194 l 25
 344 194 l 25
 344 106 l 25
 256 106 l 25
556 106 m 25
 556 194 l 25
 644 194 l 25
 644 106 l 25
 556 106 l 25
756 106 m 25
 756 194 l 25
 844 194 l 25
 844 106 l 25
 756 106 l 25
156 6 m 25
 156 94 l 25
 244 94 l 25
 244 6 l 25
 156 6 l 25
656 6 m 25
 656 94 l 25
 744 94 l 25
 744 6 l 25
 656 6 l 25
256 -94 m 25
 256 -6 l 25
 344 -6 l 25
 344 -94 l 25
 256 -94 l 25
356 -94 m 25
 356 -6 l 25
 444 -6 l 25
 444 -94 l 25
 356 -94 l 25
456 -94 m 25
 456 -6 l 25
 544 -6 l 25
 544 -94 l 25
 456 -94 l 25
556 -94 m 25
 556 -6 l 25
 644 -6 l 25
 644 -94 l 25
 556 -94 l 25
EndSplineSet
EndChar

StartChar: macron
Encoding: 175 175 108
Width: 400
Flags: HMW
LayerCount: 2
Fore
SplineSet
56 606 m 25
 56 694 l 25
 144 694 l 25
 144 606 l 25
 56 606 l 25
156 606 m 25
 156 694 l 25
 244 694 l 25
 244 606 l 25
 156 606 l 25
256 606 m 25
 256 694 l 25
 344 694 l 25
 344 606 l 25
 256 606 l 25
EndSplineSet
EndChar

StartChar: degree
Encoding: 176 176 109
Width: 500
Flags: HMW
LayerCount: 2
Fore
SplineSet
156 606 m 25
 156 694 l 25
 244 694 l 25
 244 606 l 25
 156 606 l 25
256 606 m 25
 256 694 l 25
 344 694 l 25
 344 606 l 25
 256 606 l 25
56 506 m 25
 56 594 l 25
 144 594 l 25
 144 506 l 25
 56 506 l 25
356 506 m 25
 356 594 l 25
 444 594 l 25
 444 506 l 25
 356 506 l 25
56 406 m 25
 56 494 l 25
 144 494 l 25
 144 406 l 25
 56 406 l 25
356 406 m 25
 356 494 l 25
 444 494 l 25
 444 406 l 25
 356 406 l 25
156 306 m 25
 156 394 l 25
 244 394 l 25
 244 306 l 25
 156 306 l 25
256 306 m 25
 256 394 l 25
 344 394 l 25
 344 306 l 25
 256 306 l 25
EndSplineSet
EndChar

StartChar: uni00B2
Encoding: 178 178 110
Width: 400
Flags: HMW
LayerCount: 2
Fore
SplineSet
56 606 m 25
 56 694 l 25
 144 694 l 25
 144 606 l 25
 56 606 l 25
156 606 m 25
 156 694 l 25
 244 694 l 25
 244 606 l 25
 156 606 l 25
256 506 m 25
 256 594 l 25
 344 594 l 25
 344 506 l 25
 256 506 l 25
156 406 m 25
 156 494 l 25
 244 494 l 25
 244 406 l 25
 156 406 l 25
56 306 m 25
 56 394 l 25
 144 394 l 25
 144 306 l 25
 56 306 l 25
56 206 m 25
 56 294 l 25
 144 294 l 25
 144 206 l 25
 56 206 l 25
156 206 m 25
 156 294 l 25
 244 294 l 25
 244 206 l 25
 156 206 l 25
256 206 m 25
 256 294 l 25
 344 294 l 25
 344 206 l 25
 256 206 l 25
EndSplineSet
EndChar

StartChar: uni00B3
Encoding: 179 179 111
Width: 400
Flags: HMW
LayerCount: 2
Fore
SplineSet
56 606 m 25
 56 694 l 25
 144 694 l 25
 144 606 l 25
 56 606 l 25
156 606 m 25
 156 694 l 25
 244 694 l 25
 244 606 l 25
 156 606 l 25
256 506 m 25
 256 594 l 25
 344 594 l 25
 344 506 l 25
 256 506 l 25
56 406 m 25
 56 494 l 25
 144 494 l 25
 144 406 l 25
 56 406 l 25
156 406 m 25
 156 494 l 25
 244 494 l 25
 244 406 l 25
 156 406 l 25
256 306 m 25
 256 394 l 25
 344 394 l 25
 344 306 l 25
 256 306 l 25
56 206 m 25
 56 294 l 25
 144 294 l 25
 144 206 l 25
 56 206 l 25
156 206 m 25
 156 294 l 25
 244 294 l 25
 244 206 l 25
 156 206 l 25
EndSplineSet
EndChar

StartChar: acute
Encoding: 180 180 112
Width: 300
Flags: HMW
LayerCount: 2
Fore
SplineSet
156 606 m 25
 156 694 l 25
 244 694 l 25
 244 606 l 25
 156 606 l 25
56 506 m 25
 56 594 l 25
 144 594 l 25
 144 506 l 25
 56 506 l 25
EndSplineSet
EndChar

StartChar: mu
Encoding: 181 181 113
Width: 600
Flags: HMW
LayerCount: 2
Fore
SplineSet
56 406 m 25
 56 494 l 25
 144 494 l 25
 144 406 l 25
 56 406 l 25
356 406 m 25
 356 494 l 25
 444 494 l 25
 444 406 l 25
 356 406 l 25
56 306 m 25
 56 394 l 25
 144 394 l 25
 144 306 l 25
 56 306 l 25
356 306 m 25
 356 394 l 25
 444 394 l 25
 444 306 l 25
 356 306 l 25
56 206 m 25
 56 294 l 25
 144 294 l 25
 144 206 l 25
 56 206 l 25
356 206 m 25
 356 294 l 25
 444 294 l 25
 444 206 l 25
 356 206 l 25
56 106 m 25
 56 194 l 25
 144 194 l 25
 144 106 l 25
 56 106 l 25
356 106 m 25
 356 194 l 25
 444 194 l 25
 444 106 l 25
 356 106 l 25
56 6 m 25
 56 94 l 25
 144 94 l 25
 144 6 l 25
 56 6 l 25
156 6 m 25
 156 94 l 25
 244 94 l 25
 244 6 l 25
 156 6 l 25
256 6 m 25
 256 94 l 25
 344 94 l 25
 344 6 l 25
 256 6 l 25
456 6 m 25
 456 94 l 25
 544 94 l 25
 544 6 l 25
 456 6 l 25
56 -94 m 25
 56 -6 l 25
 144 -6 l 25
 144 -94 l 25
 56 -94 l 25
56 -194 m 25
 56 -106 l 25
 144 -106 l 25
 144 -194 l 25
 56 -194 l 25
EndSplineSet
EndChar

StartChar: paragraph
Encoding: 182 182 114
Width: 600
Flags: HMW
LayerCount: 2
Fore
SplineSet
156 606 m 25
 156 694 l 25
 244 694 l 25
 244 606 l 25
 156 606 l 25
256 606 m 25
 256 694 l 25
 344 694 l 25
 344 606 l 25
 256 606 l 25
356 606 m 25
 356 694 l 25
 444 694 l 25
 444 606 l 25
 356 606 l 25
456 606 m 25
 456 694 l 25
 544 694 l 25
 544 606 l 25
 456 606 l 25
56 506 m 25
 56 594 l 25
 144 594 l 25
 144 506 l 25
 56 506 l 25
156 506 m 25
 156 594 l 25
 244 594 l 25
 244 506 l 25
 156 506 l 25
256 506 m 25
 256 594 l 25
 344 594 l 25
 344 506 l 25
 256 506 l 25
456 506 m 25
 456 594 l 25
 544 594 l 25
 544 506 l 25
 456 506 l 25
56 406 m 25
 56 494 l 25
 144 494 l 25
 144 406 l 25
 56 406 l 25
156 406 m 25
 156 494 l 25
 244 494 l 25
 244 406 l 25
 156 406 l 25
256 406 m 25
 256 494 l 25
 344 494 l 25
 344 406 l 25
 256 406 l 25
456 406 m 25
 456 494 l 25
 544 494 l 25
 544 406 l 25
 456 406 l 25
156 306 m 25
 156 394 l 25
 244 394 l 25
 244 306 l 25
 156 306 l 25
256 306 m 25
 256 394 l 25
 344 394 l 25
 344 306 l 25
 256 306 l 25
456 306 m 25
 456 394 l 25
 544 394 l 25
 544 306 l 25
 456 306 l 25
256 206 m 25
 256 294 l 25
 344 294 l 25
 344 206 l 25
 256 206 l 25
456 206 m 25
 456 294 l 25
 544 294 l 25
 544 206 l 25
 456 206 l 25
256 106 m 25
 256 194 l 25
 344 194 l 25
 344 106 l 25
 256 106 l 25
456 106 m 25
 456 194 l 25
 544 194 l 25
 544 106 l 25
 456 106 l 25
256 6 m 25
 256 94 l 25
 344 94 l 25
 344 6 l 25
 256 6 l 25
456 6 m 25
 456 94 l 25
 544 94 l 25
 544 6 l 25
 456 6 l 25
256 -94 m 25
 256 -6 l 25
 344 -6 l 25
 344 -94 l 25
 256 -94 l 25
456 -94 m 25
 456 -6 l 25
 544 -6 l 25
 544 -94 l 25
 456 -94 l 25
256 -194 m 25
 256 -106 l 25
 344 -106 l 25
 344 -194 l 25
 256 -194 l 25
456 -194 m 25
 456 -106 l 25
 544 -106 l 25
 544 -194 l 25
 456 -194 l 25
EndSplineSet
EndChar

StartChar: periodcentered
Encoding: 183 183 115
Width: 200
VWidth: 0
Flags: HMW
LayerCount: 2
Fore
SplineSet
56 306 m 25
 56 394 l 25
 144 394 l 25
 144 306 l 25
 56 306 l 25
EndSplineSet
EndChar

StartChar: cedilla
Encoding: 184 184 116
Width: 300
Flags: HMW
LayerCount: 2
Fore
SplineSet
156 -94 m 25
 156 -6 l 25
 244 -6 l 25
 244 -94 l 25
 156 -94 l 25
56 -194 m 25
 56 -106 l 25
 144 -106 l 25
 144 -194 l 25
 56 -194 l 25
156 -194 m 25
 156 -106 l 25
 244 -106 l 25
 244 -194 l 25
 156 -194 l 25
EndSplineSet
EndChar

StartChar: uni00B9
Encoding: 185 185 117
Width: 400
Flags: HMW
LayerCount: 2
Fore
SplineSet
156 606 m 25
 156 694 l 25
 244 694 l 25
 244 606 l 25
 156 606 l 25
56 506 m 25
 56 594 l 25
 144 594 l 25
 144 506 l 25
 56 506 l 25
156 506 m 25
 156 594 l 25
 244 594 l 25
 244 506 l 25
 156 506 l 25
156 406 m 25
 156 494 l 25
 244 494 l 25
 244 406 l 25
 156 406 l 25
156 306 m 25
 156 394 l 25
 244 394 l 25
 244 306 l 25
 156 306 l 25
56 206 m 25
 56 294 l 25
 144 294 l 25
 144 206 l 25
 56 206 l 25
156 206 m 25
 156 294 l 25
 244 294 l 25
 244 206 l 25
 156 206 l 25
256 206 m 25
 256 294 l 25
 344 294 l 25
 344 206 l 25
 256 206 l 25
EndSplineSet
EndChar

StartChar: ordmasculine
Encoding: 186 186 118
Width: 500
Flags: HMW
LayerCount: 2
Fore
SplineSet
156 606 m 25
 156 694 l 25
 244 694 l 25
 244 606 l 25
 156 606 l 25
256 606 m 25
 256 694 l 25
 344 694 l 25
 344 606 l 25
 256 606 l 25
56 506 m 25
 56 594 l 25
 144 594 l 25
 144 506 l 25
 56 506 l 25
356 506 m 25
 356 594 l 25
 444 594 l 25
 444 506 l 25
 356 506 l 25
56 406 m 25
 56 494 l 25
 144 494 l 25
 144 406 l 25
 56 406 l 25
356 406 m 25
 356 494 l 25
 444 494 l 25
 444 406 l 25
 356 406 l 25
156 306 m 25
 156 394 l 25
 244 394 l 25
 244 306 l 25
 156 306 l 25
256 306 m 25
 256 394 l 25
 344 394 l 25
 344 306 l 25
 256 306 l 25
56 106 m 25
 56 194 l 25
 144 194 l 25
 144 106 l 25
 56 106 l 25
156 106 m 25
 156 194 l 25
 244 194 l 25
 244 106 l 25
 156 106 l 25
256 106 m 25
 256 194 l 25
 344 194 l 25
 344 106 l 25
 256 106 l 25
356 106 m 25
 356 194 l 25
 444 194 l 25
 444 106 l 25
 356 106 l 25
EndSplineSet
EndChar

StartChar: questiondown
Encoding: 191 191 123
Width: 600
Flags: HMW
LayerCount: 2
Fore
SplineSet
256 406 m 25
 256 494 l 25
 344 494 l 25
 344 406 l 25
 256 406 l 25
256 206 m 25
 256 294 l 25
 344 294 l 25
 344 206 l 25
 256 206 l 25
156 106 m 25
 156 194 l 25
 244 194 l 25
 244 106 l 25
 156 106 l 25
256 106 m 25
 256 194 l 25
 344 194 l 25
 344 106 l 25
 256 106 l 25
56 6 m 25
 56 94 l 25
 144 94 l 25
 144 6 l 25
 56 6 l 25
56 -94 m 25
 56 -6 l 25
 144 -6 l 25
 144 -94 l 25
 56 -94 l 25
456 -94 m 25
 456 -6 l 25
 544 -6 l 25
 544 -94 l 25
 456 -94 l 25
156 -194 m 25
 156 -106 l 25
 244 -106 l 25
 244 -194 l 25
 156 -194 l 25
256 -194 m 25
 256 -106 l 25
 344 -106 l 25
 344 -194 l 25
 256 -194 l 25
356 -194 m 25
 356 -106 l 25
 444 -106 l 25
 444 -194 l 25
 356 -194 l 25
EndSplineSet
EndChar

StartChar: AE
Encoding: 198 198 124
Width: 600
Flags: HMW
AnchorPoint: "marks_below" 300 0 basechar 0
AnchorPoint: "marks_above" 300 800 basechar 0
LayerCount: 2
Fore
SplineSet
256 606 m 25
 256 694 l 25
 344 694 l 25
 344 606 l 25
 256 606 l 25
356 606 m 25
 356 694 l 25
 444 694 l 25
 444 606 l 25
 356 606 l 25
456 606 m 25
 456 694 l 25
 544 694 l 25
 544 606 l 25
 456 606 l 25
156 506 m 25
 156 594 l 25
 244 594 l 25
 244 506 l 25
 156 506 l 25
256 506 m 25
 256 594 l 25
 344 594 l 25
 344 506 l 25
 256 506 l 25
56 406 m 25
 56 494 l 25
 144 494 l 25
 144 406 l 25
 56 406 l 25
256 406 m 25
 256 494 l 25
 344 494 l 25
 344 406 l 25
 256 406 l 25
56 306 m 25
 56 394 l 25
 144 394 l 25
 144 306 l 25
 56 306 l 25
256 306 m 25
 256 394 l 25
 344 394 l 25
 344 306 l 25
 256 306 l 25
356 306 m 25
 356 394 l 25
 444 394 l 25
 444 306 l 25
 356 306 l 25
456 306 m 25
 456 394 l 25
 544 394 l 25
 544 306 l 25
 456 306 l 25
56 206 m 25
 56 294 l 25
 144 294 l 25
 144 206 l 25
 56 206 l 25
156 206 m 25
 156 294 l 25
 244 294 l 25
 244 206 l 25
 156 206 l 25
256 206 m 25
 256 294 l 25
 344 294 l 25
 344 206 l 25
 256 206 l 25
56 106 m 25
 56 194 l 25
 144 194 l 25
 144 106 l 25
 56 106 l 25
256 106 m 25
 256 194 l 25
 344 194 l 25
 344 106 l 25
 256 106 l 25
56 6 m 25
 56 94 l 25
 144 94 l 25
 144 6 l 25
 56 6 l 25
256 6 m 25
 256 94 l 25
 344 94 l 25
 344 6 l 25
 256 6 l 25
356 6 m 25
 356 94 l 25
 444 94 l 25
 444 6 l 25
 356 6 l 25
456 6 m 25
 456 94 l 25
 544 94 l 25
 544 6 l 25
 456 6 l 25
EndSplineSet
EndChar

StartChar: Eth
Encoding: 208 208 134
Width: 600
Flags: HMW
AnchorPoint: "marks_below" 300 0 basechar 0
AnchorPoint: "marks_above" 300 800 basechar 0
LayerCount: 2
Fore
SplineSet
156 606 m 25
 156 694 l 25
 244 694 l 25
 244 606 l 25
 156 606 l 25
256 606 m 25
 256 694 l 25
 344 694 l 25
 344 606 l 25
 256 606 l 25
156 506 m 25
 156 594 l 25
 244 594 l 25
 244 506 l 25
 156 506 l 25
356 506 m 25
 356 594 l 25
 444 594 l 25
 444 506 l 25
 356 506 l 25
156 406 m 25
 156 494 l 25
 244 494 l 25
 244 406 l 25
 156 406 l 25
456 406 m 25
 456 494 l 25
 544 494 l 25
 544 406 l 25
 456 406 l 25
56 306 m 25
 56 394 l 25
 144 394 l 25
 144 306 l 25
 56 306 l 25
156 306 m 25
 156 394 l 25
 244 394 l 25
 244 306 l 25
 156 306 l 25
256 306 m 25
 256 394 l 25
 344 394 l 25
 344 306 l 25
 256 306 l 25
456 306 m 25
 456 394 l 25
 544 394 l 25
 544 306 l 25
 456 306 l 25
156 206 m 25
 156 294 l 25
 244 294 l 25
 244 206 l 25
 156 206 l 25
456 206 m 25
 456 294 l 25
 544 294 l 25
 544 206 l 25
 456 206 l 25
156 106 m 25
 156 194 l 25
 244 194 l 25
 244 106 l 25
 156 106 l 25
356 106 m 25
 356 194 l 25
 444 194 l 25
 444 106 l 25
 356 106 l 25
156 6 m 25
 156 94 l 25
 244 94 l 25
 244 6 l 25
 156 6 l 25
256 6 m 25
 256 94 l 25
 344 94 l 25
 344 6 l 25
 256 6 l 25
EndSplineSet
EndChar

StartChar: Oslash
Encoding: 216 216 142
Width: 600
Flags: HMW
AnchorPoint: "marks_below" 300 0 basechar 0
AnchorPoint: "marks_above" 300 800 basechar 0
LayerCount: 2
Fore
SplineSet
156 606 m 25
 156 694 l 25
 244 694 l 25
 244 606 l 25
 156 606 l 25
256 606 m 25
 256 694 l 25
 344 694 l 25
 344 606 l 25
 256 606 l 25
356 606 m 25
 356 694 l 25
 444 694 l 25
 444 606 l 25
 356 606 l 25
56 506 m 25
 56 594 l 25
 144 594 l 25
 144 506 l 25
 56 506 l 25
456 506 m 25
 456 594 l 25
 544 594 l 25
 544 506 l 25
 456 506 l 25
56 406 m 25
 56 494 l 25
 144 494 l 25
 144 406 l 25
 56 406 l 25
356 406 m 25
 356 494 l 25
 444 494 l 25
 444 406 l 25
 356 406 l 25
56 306 m 25
 56 394 l 25
 144 394 l 25
 144 306 l 25
 56 306 l 25
256 306 m 25
 256 394 l 25
 344 394 l 25
 344 306 l 25
 256 306 l 25
456 306 m 25
 456 394 l 25
 544 394 l 25
 544 306 l 25
 456 306 l 25
156 206 m 25
 156 294 l 25
 244 294 l 25
 244 206 l 25
 156 206 l 25
456 206 m 25
 456 294 l 25
 544 294 l 25
 544 206 l 25
 456 206 l 25
56 106 m 25
 56 194 l 25
 144 194 l 25
 144 106 l 25
 56 106 l 25
456 106 m 25
 456 194 l 25
 544 194 l 25
 544 106 l 25
 456 106 l 25
156 6 m 25
 156 94 l 25
 244 94 l 25
 244 6 l 25
 156 6 l 25
256 6 m 25
 256 94 l 25
 344 94 l 25
 344 6 l 25
 256 6 l 25
356 6 m 25
 356 94 l 25
 444 94 l 25
 444 6 l 25
 356 6 l 25
EndSplineSet
EndChar

StartChar: Thorn
Encoding: 222 222 148
Width: 600
Flags: HMW
AnchorPoint: "marks_below" 300 0 basechar 0
AnchorPoint: "marks_above" 300 800 basechar 0
LayerCount: 2
Fore
SplineSet
56 606 m 25
 56 694 l 25
 144 694 l 25
 144 606 l 25
 56 606 l 25
56 506 m 25
 56 594 l 25
 144 594 l 25
 144 506 l 25
 56 506 l 25
156 506 m 25
 156 594 l 25
 244 594 l 25
 244 506 l 25
 156 506 l 25
256 506 m 25
 256 594 l 25
 344 594 l 25
 344 506 l 25
 256 506 l 25
356 506 m 25
 356 594 l 25
 444 594 l 25
 444 506 l 25
 356 506 l 25
56 406 m 25
 56 494 l 25
 144 494 l 25
 144 406 l 25
 56 406 l 25
456 406 m 25
 456 494 l 25
 544 494 l 25
 544 406 l 25
 456 406 l 25
56 306 m 25
 56 394 l 25
 144 394 l 25
 144 306 l 25
 56 306 l 25
456 306 m 25
 456 394 l 25
 544 394 l 25
 544 306 l 25
 456 306 l 25
56 206 m 25
 56 294 l 25
 144 294 l 25
 144 206 l 25
 56 206 l 25
456 206 m 25
 456 294 l 25
 544 294 l 25
 544 206 l 25
 456 206 l 25
56 106 m 25
 56 194 l 25
 144 194 l 25
 144 106 l 25
 56 106 l 25
156 106 m 25
 156 194 l 25
 244 194 l 25
 244 106 l 25
 156 106 l 25
256 106 m 25
 256 194 l 25
 344 194 l 25
 344 106 l 25
 256 106 l 25
356 106 m 25
 356 194 l 25
 444 194 l 25
 444 106 l 25
 356 106 l 25
56 6 m 25
 56 94 l 25
 144 94 l 25
 144 6 l 25
 56 6 l 25
EndSplineSet
EndChar

StartChar: germandbls
Encoding: 223 223 149
Width: 600
Flags: HMW
AnchorPoint: "marks_below" 300 0 basechar 0
AnchorPoint: "marks_above" 300 800 basechar 0
LayerCount: 2
Fore
SplineSet
156 606 m 25
 156 694 l 25
 244 694 l 25
 244 606 l 25
 156 606 l 25
256 606 m 25
 256 694 l 25
 344 694 l 25
 344 606 l 25
 256 606 l 25
56 506 m 25
 56 594 l 25
 144 594 l 25
 144 506 l 25
 56 506 l 25
356 506 m 25
 356 594 l 25
 444 594 l 25
 444 506 l 25
 356 506 l 25
56 406 m 25
 56 494 l 25
 144 494 l 25
 144 406 l 25
 56 406 l 25
356 406 m 25
 356 494 l 25
 444 494 l 25
 444 406 l 25
 356 406 l 25
56 306 m 25
 56 394 l 25
 144 394 l 25
 144 306 l 25
 56 306 l 25
256 306 m 25
 256 394 l 25
 344 394 l 25
 344 306 l 25
 256 306 l 25
356 306 m 25
 356 394 l 25
 444 394 l 25
 444 306 l 25
 356 306 l 25
56 206 m 25
 56 294 l 25
 144 294 l 25
 144 206 l 25
 56 206 l 25
456 206 m 25
 456 294 l 25
 544 294 l 25
 544 206 l 25
 456 206 l 25
56 106 m 25
 56 194 l 25
 144 194 l 25
 144 106 l 25
 56 106 l 25
456 106 m 25
 456 194 l 25
 544 194 l 25
 544 106 l 25
 456 106 l 25
56 6 m 25
 56 94 l 25
 144 94 l 25
 144 6 l 25
 56 6 l 25
256 6 m 25
 256 94 l 25
 344 94 l 25
 344 6 l 25
 256 6 l 25
356 6 m 25
 356 94 l 25
 444 94 l 25
 444 6 l 25
 356 6 l 25
EndSplineSet
EndChar

StartChar: ae
Encoding: 230 230 156
Width: 600
Flags: HMW
AnchorPoint: "marks_below" 300 0 basechar 0
AnchorPoint: "marks_above" 300 600 basechar 0
LayerCount: 2
Fore
SplineSet
56 406 m 25
 56 494 l 25
 144 494 l 25
 144 406 l 25
 56 406 l 25
156 406 m 25
 156 494 l 25
 244 494 l 25
 244 406 l 25
 156 406 l 25
356 406 m 25
 356 494 l 25
 444 494 l 25
 444 406 l 25
 356 406 l 25
256 306 m 25
 256 394 l 25
 344 394 l 25
 344 306 l 25
 256 306 l 25
456 306 m 25
 456 394 l 25
 544 394 l 25
 544 306 l 25
 456 306 l 25
156 206 m 25
 156 294 l 25
 244 294 l 25
 244 206 l 25
 156 206 l 25
256 206 m 25
 256 294 l 25
 344 294 l 25
 344 206 l 25
 256 206 l 25
356 206 m 25
 356 294 l 25
 444 294 l 25
 444 206 l 25
 356 206 l 25
456 206 m 25
 456 294 l 25
 544 294 l 25
 544 206 l 25
 456 206 l 25
56 106 m 25
 56 194 l 25
 144 194 l 25
 144 106 l 25
 56 106 l 25
256 106 m 25
 256 194 l 25
 344 194 l 25
 344 106 l 25
 256 106 l 25
156 6 m 25
 156 94 l 25
 244 94 l 25
 244 6 l 25
 156 6 l 25
356 6 m 25
 356 94 l 25
 444 94 l 25
 444 6 l 25
 356 6 l 25
456 6 m 25
 456 94 l 25
 544 94 l 25
 544 6 l 25
 456 6 l 25
EndSplineSet
EndChar

StartChar: eth
Encoding: 240 240 166
Width: 600
Flags: HMW
AnchorPoint: "marks_below" 300 0 basechar 0
AnchorPoint: "marks_above" 300 800 basechar 0
LayerCount: 2
Fore
SplineSet
156 606 m 25
 156 694 l 25
 244 694 l 25
 244 606 l 25
 156 606 l 25
256 606 m 25
 256 694 l 25
 344 694 l 25
 344 606 l 25
 256 606 l 25
456 606 m 25
 456 694 l 25
 544 694 l 25
 544 606 l 25
 456 606 l 25
356 506 m 25
 356 594 l 25
 444 594 l 25
 444 506 l 25
 356 506 l 25
256 406 m 25
 256 494 l 25
 344 494 l 25
 344 406 l 25
 256 406 l 25
456 406 m 25
 456 494 l 25
 544 494 l 25
 544 406 l 25
 456 406 l 25
456 306 m 25
 456 394 l 25
 544 394 l 25
 544 306 l 25
 456 306 l 25
156 206 m 25
 156 294 l 25
 244 294 l 25
 244 206 l 25
 156 206 l 25
256 206 m 25
 256 294 l 25
 344 294 l 25
 344 206 l 25
 256 206 l 25
356 206 m 25
 356 294 l 25
 444 294 l 25
 444 206 l 25
 356 206 l 25
456 206 m 25
 456 294 l 25
 544 294 l 25
 544 206 l 25
 456 206 l 25
56 106 m 25
 56 194 l 25
 144 194 l 25
 144 106 l 25
 56 106 l 25
456 106 m 25
 456 194 l 25
 544 194 l 25
 544 106 l 25
 456 106 l 25
156 6 m 25
 156 94 l 25
 244 94 l 25
 244 6 l 25
 156 6 l 25
256 6 m 25
 256 94 l 25
 344 94 l 25
 344 6 l 25
 256 6 l 25
356 6 m 25
 356 94 l 25
 444 94 l 25
 444 6 l 25
 356 6 l 25
EndSplineSet
EndChar

StartChar: oslash
Encoding: 248 248 174
Width: 600
Flags: HMW
AnchorPoint: "marks_below" 300 0 basechar 0
AnchorPoint: "marks_above" 300 600 basechar 0
LayerCount: 2
Fore
SplineSet
156 406 m 25
 156 494 l 25
 244 494 l 25
 244 406 l 25
 156 406 l 25
256 406 m 25
 256 494 l 25
 344 494 l 25
 344 406 l 25
 256 406 l 25
456 406 m 25
 456 494 l 25
 544 494 l 25
 544 406 l 25
 456 406 l 25
56 306 m 25
 56 394 l 25
 144 394 l 25
 144 306 l 25
 56 306 l 25
356 306 m 25
 356 394 l 25
 444 394 l 25
 444 306 l 25
 356 306 l 25
56 206 m 25
 56 294 l 25
 144 294 l 25
 144 206 l 25
 56 206 l 25
256 206 m 25
 256 294 l 25
 344 294 l 25
 344 206 l 25
 256 206 l 25
456 206 m 25
 456 294 l 25
 544 294 l 25
 544 206 l 25
 456 206 l 25
156 106 m 25
 156 194 l 25
 244 194 l 25
 244 106 l 25
 156 106 l 25
456 106 m 25
 456 194 l 25
 544 194 l 25
 544 106 l 25
 456 106 l 25
56 6 m 25
 56 94 l 25
 144 94 l 25
 144 6 l 25
 56 6 l 25
256 6 m 25
 256 94 l 25
 344 94 l 25
 344 6 l 25
 256 6 l 25
356 6 m 25
 356 94 l 25
 444 94 l 25
 444 6 l 25
 356 6 l 25
EndSplineSet
EndChar

StartChar: thorn
Encoding: 254 254 180
Width: 600
Flags: HMW
LayerCount: 2
Fore
SplineSet
56 606 m 25
 56 694 l 25
 144 694 l 25
 144 606 l 25
 56 606 l 25
56 506 m 25
 56 594 l 25
 144 594 l 25
 144 506 l 25
 56 506 l 25
56 406 m 25
 56 494 l 25
 144 494 l 25
 144 406 l 25
 56 406 l 25
256 406 m 25
 256 494 l 25
 344 494 l 25
 344 406 l 25
 256 406 l 25
356 406 m 25
 356 494 l 25
 444 494 l 25
 444 406 l 25
 356 406 l 25
56 306 m 25
 56 394 l 25
 144 394 l 25
 144 306 l 25
 56 306 l 25
156 306 m 25
 156 394 l 25
 244 394 l 25
 244 306 l 25
 156 306 l 25
456 306 m 25
 456 394 l 25
 544 394 l 25
 544 306 l 25
 456 306 l 25
56 206 m 25
 56 294 l 25
 144 294 l 25
 144 206 l 25
 56 206 l 25
456 206 m 25
 456 294 l 25
 544 294 l 25
 544 206 l 25
 456 206 l 25
56 106 m 25
 56 194 l 25
 144 194 l 25
 144 106 l 25
 56 106 l 25
156 106 m 25
 156 194 l 25
 244 194 l 25
 244 106 l 25
 156 106 l 25
456 106 m 25
 456 194 l 25
 544 194 l 25
 544 106 l 25
 456 106 l 25
56 6 m 25
 56 94 l 25
 144 94 l 25
 144 6 l 25
 56 6 l 25
256 6 m 25
 256 94 l 25
 344 94 l 25
 344 6 l 25
 256 6 l 25
356 6 m 25
 356 94 l 25
 444 94 l 25
 444 6 l 25
 356 6 l 25
56 -94 m 25
 56 -6 l 25
 144 -6 l 25
 144 -94 l 25
 56 -94 l 25
56 -194 m 25
 56 -106 l 25
 144 -106 l 25
 144 -194 l 25
 56 -194 l 25
EndSplineSet
EndChar

StartChar: dotlessi
Encoding: 305 305 182
Width: 400
Flags: HMW
AnchorPoint: "marks_above" 200 600 basechar 0
LayerCount: 2
Fore
SplineSet
56 406 m 25
 56 494 l 25
 144 494 l 25
 144 406 l 25
 56 406 l 25
156 406 m 25
 156 494 l 25
 244 494 l 25
 244 406 l 25
 156 406 l 25
156 306 m 25
 156 394 l 25
 244 394 l 25
 244 306 l 25
 156 306 l 25
156 206 m 25
 156 294 l 25
 244 294 l 25
 244 206 l 25
 156 206 l 25
156 106 m 25
 156 194 l 25
 244 194 l 25
 244 106 l 25
 156 106 l 25
56 6 m 25
 56 94 l 25
 144 94 l 25
 144 6 l 25
 56 6 l 25
156 6 m 25
 156 94 l 25
 244 94 l 25
 244 6 l 25
 156 6 l 25
256 6 m 25
 256 94 l 25
 344 94 l 25
 344 6 l 25
 256 6 l 25
EndSplineSet
EndChar

StartChar: Lslash
Encoding: 321 321 183
Width: 600
Flags: HMW
AnchorPoint: "marks_below" 300 0 basechar 0
AnchorPoint: "marks_above" 300 800 basechar 0
LayerCount: 2
Fore
SplineSet
156 606 m 25
 156 694 l 25
 244 694 l 25
 244 606 l 25
 156 606 l 25
156 506 m 25
 156 594 l 25
 244 594 l 25
 244 506 l 25
 156 506 l 25
356 506 m 25
 356 594 l 25
 444 594 l 25
 444 506 l 25
 356 506 l 25
156 406 m 25
 156 494 l 25
 244 494 l 25
 244 406 l 25
 156 406 l 25
256 406 m 25
 256 494 l 25
 344 494 l 25
 344 406 l 25
 256 406 l 25
156 306 m 25
 156 394 l 25
 244 394 l 25
 244 306 l 25
 156 306 l 25
56 206 m 25
 56 294 l 25
 144 294 l 25
 144 206 l 25
 56 206 l 25
156 206 m 25
 156 294 l 25
 244 294 l 25
 244 206 l 25
 156 206 l 25
156 106 m 25
 156 194 l 25
 244 194 l 25
 244 106 l 25
 156 106 l 25
156 6 m 25
 156 94 l 25
 244 94 l 25
 244 6 l 25
 156 6 l 25
256 6 m 25
 256 94 l 25
 344 94 l 25
 344 6 l 25
 256 6 l 25
356 6 m 25
 356 94 l 25
 444 94 l 25
 444 6 l 25
 356 6 l 25
456 6 m 25
 456 94 l 25
 544 94 l 25
 544 6 l 25
 456 6 l 25
EndSplineSet
EndChar

StartChar: lslash
Encoding: 322 322 184
Width: 400
Flags: HMW
AnchorPoint: "marks_below" 200 0 basechar 0
AnchorPoint: "ogonek" 200 0 basechar 0
AnchorPoint: "marks_above" 200 800 basechar 0
LayerCount: 2
Fore
SplineSet
56 606 m 25
 56 694 l 25
 144 694 l 25
 144 606 l 25
 56 606 l 25
156 606 m 25
 156 694 l 25
 244 694 l 25
 244 606 l 25
 156 606 l 25
156 506 m 25
 156 594 l 25
 244 594 l 25
 244 506 l 25
 156 506 l 25
156 406 m 25
 156 494 l 25
 244 494 l 25
 244 406 l 25
 156 406 l 25
256 406 m 25
 256 494 l 25
 344 494 l 25
 344 406 l 25
 256 406 l 25
156 306 m 25
 156 394 l 25
 244 394 l 25
 244 306 l 25
 156 306 l 25
56 206 m 25
 56 294 l 25
 144 294 l 25
 144 206 l 25
 56 206 l 25
156 206 m 25
 156 294 l 25
 244 294 l 25
 244 206 l 25
 156 206 l 25
156 106 m 25
 156 194 l 25
 244 194 l 25
 244 106 l 25
 156 106 l 25
56 6 m 25
 56 94 l 25
 144 94 l 25
 144 6 l 25
 56 6 l 25
156 6 m 25
 156 94 l 25
 244 94 l 25
 244 6 l 25
 156 6 l 25
256 6 m 25
 256 94 l 25
 344 94 l 25
 344 6 l 25
 256 6 l 25
EndSplineSet
EndChar

StartChar: OE
Encoding: 338 338 185
Width: 600
Flags: HMW
AnchorPoint: "marks_below" 300 0 basechar 0
AnchorPoint: "marks_above" 300 800 basechar 0
LayerCount: 2
Fore
SplineSet
156 606 m 25
 156 694 l 25
 244 694 l 25
 244 606 l 25
 156 606 l 25
256 606 m 25
 256 694 l 25
 344 694 l 25
 344 606 l 25
 256 606 l 25
356 606 m 25
 356 694 l 25
 444 694 l 25
 444 606 l 25
 356 606 l 25
456 606 m 25
 456 694 l 25
 544 694 l 25
 544 606 l 25
 456 606 l 25
56 506 m 25
 56 594 l 25
 144 594 l 25
 144 506 l 25
 56 506 l 25
256 506 m 25
 256 594 l 25
 344 594 l 25
 344 506 l 25
 256 506 l 25
56 406 m 25
 56 494 l 25
 144 494 l 25
 144 406 l 25
 56 406 l 25
256 406 m 25
 256 494 l 25
 344 494 l 25
 344 406 l 25
 256 406 l 25
56 306 m 25
 56 394 l 25
 144 394 l 25
 144 306 l 25
 56 306 l 25
256 306 m 25
 256 394 l 25
 344 394 l 25
 344 306 l 25
 256 306 l 25
356 306 m 25
 356 394 l 25
 444 394 l 25
 444 306 l 25
 356 306 l 25
456 306 m 25
 456 394 l 25
 544 394 l 25
 544 306 l 25
 456 306 l 25
56 206 m 25
 56 294 l 25
 144 294 l 25
 144 206 l 25
 56 206 l 25
256 206 m 25
 256 294 l 25
 344 294 l 25
 344 206 l 25
 256 206 l 25
56 106 m 25
 56 194 l 25
 144 194 l 25
 144 106 l 25
 56 106 l 25
256 106 m 25
 256 194 l 25
 344 194 l 25
 344 106 l 25
 256 106 l 25
156 6 m 25
 156 94 l 25
 244 94 l 25
 244 6 l 25
 156 6 l 25
256 6 m 25
 256 94 l 25
 344 94 l 25
 344 6 l 25
 256 6 l 25
356 6 m 25
 356 94 l 25
 444 94 l 25
 444 6 l 25
 356 6 l 25
456 6 m 25
 456 94 l 25
 544 94 l 25
 544 6 l 25
 456 6 l 25
EndSplineSet
EndChar

StartChar: oe
Encoding: 339 339 186
Width: 600
Flags: HMW
AnchorPoint: "marks_below" 300 0 basechar 0
AnchorPoint: "marks_above" 300 600 basechar 0
LayerCount: 2
Fore
SplineSet
156 406 m 25
 156 494 l 25
 244 494 l 25
 244 406 l 25
 156 406 l 25
356 406 m 25
 356 494 l 25
 444 494 l 25
 444 406 l 25
 356 406 l 25
56 306 m 25
 56 394 l 25
 144 394 l 25
 144 306 l 25
 56 306 l 25
256 306 m 25
 256 394 l 25
 344 394 l 25
 344 306 l 25
 256 306 l 25
456 306 m 25
 456 394 l 25
 544 394 l 25
 544 306 l 25
 456 306 l 25
56 206 m 25
 56 294 l 25
 144 294 l 25
 144 206 l 25
 56 206 l 25
256 206 m 25
 256 294 l 25
 344 294 l 25
 344 206 l 25
 256 206 l 25
356 206 m 25
 356 294 l 25
 444 294 l 25
 444 206 l 25
 356 206 l 25
456 206 m 25
 456 294 l 25
 544 294 l 25
 544 206 l 25
 456 206 l 25
56 106 m 25
 56 194 l 25
 144 194 l 25
 144 106 l 25
 56 106 l 25
256 106 m 25
 256 194 l 25
 344 194 l 25
 344 106 l 25
 256 106 l 25
156 6 m 25
 156 94 l 25
 244 94 l 25
 244 6 l 25
 156 6 l 25
356 6 m 25
 356 94 l 25
 444 94 l 25
 444 6 l 25
 356 6 l 25
456 6 m 25
 456 94 l 25
 544 94 l 25
 544 6 l 25
 456 6 l 25
EndSplineSet
EndChar

StartChar: florin
Encoding: 402 402 187
Width: 600
Flags: HMW
LayerCount: 2
Fore
SplineSet
356 606 m 25
 356 694 l 25
 444 694 l 25
 444 606 l 25
 356 606 l 25
456 606 m 25
 456 694 l 25
 544 694 l 25
 544 606 l 25
 456 606 l 25
256 506 m 25
 256 594 l 25
 344 594 l 25
 344 506 l 25
 256 506 l 25
256 406 m 25
 256 494 l 25
 344 494 l 25
 344 406 l 25
 256 406 l 25
156 306 m 25
 156 394 l 25
 244 394 l 25
 244 306 l 25
 156 306 l 25
256 306 m 25
 256 394 l 25
 344 394 l 25
 344 306 l 25
 256 306 l 25
356 306 m 25
 356 394 l 25
 444 394 l 25
 444 306 l 25
 356 306 l 25
456 306 m 25
 456 394 l 25
 544 394 l 25
 544 306 l 25
 456 306 l 25
256 206 m 25
 256 294 l 25
 344 294 l 25
 344 206 l 25
 256 206 l 25
256 106 m 25
 256 194 l 25
 344 194 l 25
 344 106 l 25
 256 106 l 25
256 6 m 25
 256 94 l 25
 344 94 l 25
 344 6 l 25
 256 6 l 25
256 -94 m 25
 256 -6 l 25
 344 -6 l 25
 344 -94 l 25
 256 -94 l 25
56 -194 m 25
 56 -106 l 25
 144 -106 l 25
 144 -194 l 25
 56 -194 l 25
156 -194 m 25
 156 -106 l 25
 244 -106 l 25
 244 -194 l 25
 156 -194 l 25
EndSplineSet
EndChar

StartChar: circumflex
Encoding: 710 710 188
Width: 400
Flags: HMW
LayerCount: 2
Fore
SplineSet
156 706 m 25
 156 794 l 25
 244 794 l 25
 244 706 l 25
 156 706 l 25
56 606 m 25
 56 694 l 25
 144 694 l 25
 144 606 l 25
 56 606 l 25
256 606 m 25
 256 694 l 25
 344 694 l 25
 344 606 l 25
 256 606 l 25
EndSplineSet
EndChar

StartChar: caron
Encoding: 711 711 189
Width: 400
Flags: HMW
LayerCount: 2
Fore
SplineSet
56 706 m 25
 56 794 l 25
 144 794 l 25
 144 706 l 25
 56 706 l 25
256 706 m 25
 256 794 l 25
 344 794 l 25
 344 706 l 25
 256 706 l 25
156 606 m 25
 156 694 l 25
 244 694 l 25
 244 606 l 25
 156 606 l 25
EndSplineSet
EndChar

StartChar: breve
Encoding: 728 728 190
Width: 600
Flags: HMW
LayerCount: 2
Fore
SplineSet
56 706 m 25
 56 794 l 25
 144 794 l 25
 144 706 l 25
 56 706 l 25
456 706 m 25
 456 794 l 25
 544 794 l 25
 544 706 l 25
 456 706 l 25
156 606 m 25
 156 694 l 25
 244 694 l 25
 244 606 l 25
 156 606 l 25
256 606 m 25
 256 694 l 25
 344 694 l 25
 344 606 l 25
 256 606 l 25
356 606 m 25
 356 694 l 25
 444 694 l 25
 444 606 l 25
 356 606 l 25
EndSplineSet
EndChar

StartChar: ring
Encoding: 730 730 191
Width: 400
Flags: HMW
LayerCount: 2
Fore
SplineSet
156 706 m 25
 156 794 l 25
 244 794 l 25
 244 706 l 25
 156 706 l 25
56 606 m 25
 56 694 l 25
 144 694 l 25
 144 606 l 25
 56 606 l 25
256 606 m 25
 256 694 l 25
 344 694 l 25
 344 606 l 25
 256 606 l 25
156 506 m 25
 156 594 l 25
 244 594 l 25
 244 506 l 25
 156 506 l 25
EndSplineSet
EndChar

StartChar: ogonek
Encoding: 731 731 192
Width: 300
Flags: HMW
LayerCount: 2
Fore
SplineSet
56 -94 m 25
 56 -6 l 25
 144 -6 l 25
 144 -94 l 25
 56 -94 l 25
56 -194 m 25
 56 -106 l 25
 144 -106 l 25
 144 -194 l 25
 56 -194 l 25
156 -194 m 25
 156 -106 l 25
 244 -106 l 25
 244 -194 l 25
 156 -194 l 25
EndSplineSet
EndChar

StartChar: tilde
Encoding: 732 732 193
Width: 600
Flags: HMW
LayerCount: 2
Fore
SplineSet
156 706 m 25
 156 794 l 25
 244 794 l 25
 244 706 l 25
 156 706 l 25
256 706 m 25
 256 794 l 25
 344 794 l 25
 344 706 l 25
 256 706 l 25
456 706 m 25
 456 794 l 25
 544 794 l 25
 544 706 l 25
 456 706 l 25
56 606 m 25
 56 694 l 25
 144 694 l 25
 144 606 l 25
 56 606 l 25
256 606 m 25
 256 694 l 25
 344 694 l 25
 344 606 l 25
 256 606 l 25
356 606 m 25
 356 694 l 25
 444 694 l 25
 444 606 l 25
 356 606 l 25
EndSplineSet
EndChar

StartChar: pi
Encoding: 960 960 195
Width: 600
Flags: HMW
LayerCount: 2
Fore
SplineSet
56 406 m 25
 56 494 l 25
 144 494 l 25
 144 406 l 25
 56 406 l 25
156 406 m 25
 156 494 l 25
 244 494 l 25
 244 406 l 25
 156 406 l 25
256 406 m 25
 256 494 l 25
 344 494 l 25
 344 406 l 25
 256 406 l 25
356 406 m 25
 356 494 l 25
 444 494 l 25
 444 406 l 25
 356 406 l 25
456 406 m 25
 456 494 l 25
 544 494 l 25
 544 406 l 25
 456 406 l 25
156 306 m 25
 156 394 l 25
 244 394 l 25
 244 306 l 25
 156 306 l 25
356 306 m 25
 356 394 l 25
 444 394 l 25
 444 306 l 25
 356 306 l 25
156 206 m 25
 156 294 l 25
 244 294 l 25
 244 206 l 25
 156 206 l 25
356 206 m 25
 356 294 l 25
 444 294 l 25
 444 206 l 25
 356 206 l 25
156 106 m 25
 156 194 l 25
 244 194 l 25
 244 106 l 25
 156 106 l 25
356 106 m 25
 356 194 l 25
 444 194 l 25
 444 106 l 25
 356 106 l 25
156 6 m 25
 156 94 l 25
 244 94 l 25
 244 6 l 25
 156 6 l 25
456 6 m 25
 456 94 l 25
 544 94 l 25
 544 6 l 25
 456 6 l 25
EndSplineSet
EndChar

StartChar: emdash
Encoding: 8212 8212 196
Width: 600
Flags: HMW
LayerCount: 2
Fore
SplineSet
6 306 m 25
 6 394 l 25
 94 394 l 25
 94 306 l 25
 6 306 l 25
106 306 m 25
 106 394 l 25
 194 394 l 25
 194 306 l 25
 106 306 l 25
206 306 m 25
 206 394 l 25
 294 394 l 25
 294 306 l 25
 206 306 l 25
306 306 m 25
 306 394 l 25
 394 394 l 25
 394 306 l 25
 306 306 l 25
406 306 m 25
 406 394 l 25
 494 394 l 25
 494 306 l 25
 406 306 l 25
506 306 m 25
 506 394 l 25
 594 394 l 25
 594 306 l 25
 506 306 l 25
EndSplineSet
EndChar

StartChar: quoteleft
Encoding: 8216 8216 197
Width: 300
Flags: HMW
LayerCount: 2
Fore
SplineSet
156 606 m 25
 156 694 l 25
 244 694 l 25
 244 606 l 25
 156 606 l 25
56 506 m 25
 56 594 l 25
 144 594 l 25
 144 506 l 25
 56 506 l 25
56 406 m 25
 56 494 l 25
 144 494 l 25
 144 406 l 25
 56 406 l 25
EndSplineSet
EndChar

StartChar: dagger
Encoding: 8224 8224 198
Width: 600
Flags: HMW
LayerCount: 2
Fore
SplineSet
256 606 m 25
 256 694 l 25
 344 694 l 25
 344 606 l 25
 256 606 l 25
256 506 m 25
 256 594 l 25
 344 594 l 25
 344 506 l 25
 256 506 l 25
56 406 m 25
 56 494 l 25
 144 494 l 25
 144 406 l 25
 56 406 l 25
156 406 m 25
 156 494 l 25
 244 494 l 25
 244 406 l 25
 156 406 l 25
256 406 m 25
 256 494 l 25
 344 494 l 25
 344 406 l 25
 256 406 l 25
356 406 m 25
 356 494 l 25
 444 494 l 25
 444 406 l 25
 356 406 l 25
456 406 m 25
 456 494 l 25
 544 494 l 25
 544 406 l 25
 456 406 l 25
256 306 m 25
 256 394 l 25
 344 394 l 25
 344 306 l 25
 256 306 l 25
256 206 m 25
 256 294 l 25
 344 294 l 25
 344 206 l 25
 256 206 l 25
256 106 m 25
 256 194 l 25
 344 194 l 25
 344 106 l 25
 256 106 l 25
256 6 m 25
 256 94 l 25
 344 94 l 25
 344 6 l 25
 256 6 l 25
256 -94 m 25
 256 -6 l 25
 344 -6 l 25
 344 -94 l 25
 256 -94 l 25
256 -194 m 25
 256 -106 l 25
 344 -106 l 25
 344 -194 l 25
 256 -194 l 25
EndSplineSet
EndChar

StartChar: daggerdbl
Encoding: 8225 8225 199
Width: 600
Flags: HMW
LayerCount: 2
Fore
SplineSet
256 606 m 25
 256 694 l 25
 344 694 l 25
 344 606 l 25
 256 606 l 25
256 506 m 25
 256 594 l 25
 344 594 l 25
 344 506 l 25
 256 506 l 25
56 406 m 25
 56 494 l 25
 144 494 l 25
 144 406 l 25
 56 406 l 25
156 406 m 25
 156 494 l 25
 244 494 l 25
 244 406 l 25
 156 406 l 25
256 406 m 25
 256 494 l 25
 344 494 l 25
 344 406 l 25
 256 406 l 25
356 406 m 25
 356 494 l 25
 444 494 l 25
 444 406 l 25
 356 406 l 25
456 406 m 25
 456 494 l 25
 544 494 l 25
 544 406 l 25
 456 406 l 25
256 306 m 25
 256 394 l 25
 344 394 l 25
 344 306 l 25
 256 306 l 25
56 6 m 25
 56 94 l 25
 144 94 l 25
 144 6 l 25
 56 6 l 25
156 6 m 25
 156 94 l 25
 244 94 l 25
 244 6 l 25
 156 6 l 25
256 6 m 25
 256 94 l 25
 344 94 l 25
 344 6 l 25
 256 6 l 25
356 6 m 25
 356 94 l 25
 444 94 l 25
 444 6 l 25
 356 6 l 25
456 6 m 25
 456 94 l 25
 544 94 l 25
 544 6 l 25
 456 6 l 25
256 -94 m 25
 256 -6 l 25
 344 -6 l 25
 344 -94 l 25
 256 -94 l 25
256 -194 m 25
 256 -106 l 25
 344 -106 l 25
 344 -194 l 25
 256 -194 l 25
256 206 m 25
 256 294 l 25
 344 294 l 25
 344 206 l 25
 256 206 l 25
256 106 m 25
 256 194 l 25
 344 194 l 25
 344 106 l 25
 256 106 l 25
EndSplineSet
EndChar

StartChar: bullet
Encoding: 8226 8226 200
Width: 300
Flags: HMW
LayerCount: 2
Fore
SplineSet
56 406 m 25
 56 494 l 25
 144 494 l 25
 144 406 l 25
 56 406 l 25
156 406 m 25
 156 494 l 25
 244 494 l 25
 244 406 l 25
 156 406 l 25
56 306 m 25
 56 394 l 25
 144 394 l 25
 144 306 l 25
 56 306 l 25
156 306 m 25
 156 394 l 25
 244 394 l 25
 244 306 l 25
 156 306 l 25
EndSplineSet
EndChar

StartChar: guilsinglleft
Encoding: 8249 8249 201
Width: 300
Flags: HMW
LayerCount: 2
Fore
SplineSet
156 406 m 25
 156 494 l 25
 244 494 l 25
 244 406 l 25
 156 406 l 25
56 306 m 25
 56 394 l 25
 144 394 l 25
 144 306 l 25
 56 306 l 25
156 206 m 25
 156 294 l 25
 244 294 l 25
 244 206 l 25
 156 206 l 25
EndSplineSet
EndChar

StartChar: guilsinglright
Encoding: 8250 8250 202
Width: 300
Flags: HMW
LayerCount: 2
Fore
SplineSet
56 406 m 25
 56 494 l 25
 144 494 l 25
 144 406 l 25
 56 406 l 25
156 306 m 25
 156 394 l 25
 244 394 l 25
 244 306 l 25
 156 306 l 25
56 206 m 25
 56 294 l 25
 144 294 l 25
 144 206 l 25
 56 206 l 25
EndSplineSet
EndChar

StartChar: uni2074
Encoding: 8308 8308 203
Width: 400
Flags: HMW
LayerCount: 2
Fore
SplineSet
256 606 m 25
 256 694 l 25
 344 694 l 25
 344 606 l 25
 256 606 l 25
156 506 m 25
 156 594 l 25
 244 594 l 25
 244 506 l 25
 156 506 l 25
256 506 m 25
 256 594 l 25
 344 594 l 25
 344 506 l 25
 256 506 l 25
56 406 m 25
 56 494 l 25
 144 494 l 25
 144 406 l 25
 56 406 l 25
256 406 m 25
 256 494 l 25
 344 494 l 25
 344 406 l 25
 256 406 l 25
56 306 m 25
 56 394 l 25
 144 394 l 25
 144 306 l 25
 56 306 l 25
156 306 m 25
 156 394 l 25
 244 394 l 25
 244 306 l 25
 156 306 l 25
256 306 m 25
 256 394 l 25
 344 394 l 25
 344 306 l 25
 256 306 l 25
256 206 m 25
 256 294 l 25
 344 294 l 25
 344 206 l 25
 256 206 l 25
EndSplineSet
EndChar

StartChar: Euro
Encoding: 8364 8364 204
Width: 600
Flags: HMW
LayerCount: 2
Fore
SplineSet
256 606 m 25
 256 694 l 25
 344 694 l 25
 344 606 l 25
 256 606 l 25
356 606 m 25
 356 694 l 25
 444 694 l 25
 444 606 l 25
 356 606 l 25
156 506 m 25
 156 594 l 25
 244 594 l 25
 244 506 l 25
 156 506 l 25
456 506 m 25
 456 594 l 25
 544 594 l 25
 544 506 l 25
 456 506 l 25
56 406 m 25
 56 494 l 25
 144 494 l 25
 144 406 l 25
 56 406 l 25
156 406 m 25
 156 494 l 25
 244 494 l 25
 244 406 l 25
 156 406 l 25
256 406 m 25
 256 494 l 25
 344 494 l 25
 344 406 l 25
 256 406 l 25
156 306 m 25
 156 394 l 25
 244 394 l 25
 244 306 l 25
 156 306 l 25
56 206 m 25
 56 294 l 25
 144 294 l 25
 144 206 l 25
 56 206 l 25
156 206 m 25
 156 294 l 25
 244 294 l 25
 244 206 l 25
 156 206 l 25
256 206 m 25
 256 294 l 25
 344 294 l 25
 344 206 l 25
 256 206 l 25
156 106 m 25
 156 194 l 25
 244 194 l 25
 244 106 l 25
 156 106 l 25
456 106 m 25
 456 194 l 25
 544 194 l 25
 544 106 l 25
 456 106 l 25
256 6 m 25
 256 94 l 25
 344 94 l 25
 344 6 l 25
 256 6 l 25
356 6 m 25
 356 94 l 25
 444 94 l 25
 444 6 l 25
 356 6 l 25
EndSplineSet
EndChar

StartChar: uni2113
Encoding: 8467 8467 205
Width: 600
Flags: HMW
LayerCount: 2
Fore
SplineSet
256 606 m 25
 256 694 l 25
 344 694 l 25
 344 606 l 25
 256 606 l 25
156 506 m 25
 156 594 l 25
 244 594 l 25
 244 506 l 25
 156 506 l 25
356 506 m 25
 356 594 l 25
 444 594 l 25
 444 506 l 25
 356 506 l 25
156 406 m 25
 156 494 l 25
 244 494 l 25
 244 406 l 25
 156 406 l 25
356 406 m 25
 356 494 l 25
 444 494 l 25
 444 406 l 25
 356 406 l 25
156 306 m 25
 156 394 l 25
 244 394 l 25
 244 306 l 25
 156 306 l 25
256 306 m 25
 256 394 l 25
 344 394 l 25
 344 306 l 25
 256 306 l 25
56 206 m 25
 56 294 l 25
 144 294 l 25
 144 206 l 25
 56 206 l 25
156 206 m 25
 156 294 l 25
 244 294 l 25
 244 206 l 25
 156 206 l 25
156 106 m 25
 156 194 l 25
 244 194 l 25
 244 106 l 25
 156 106 l 25
456 106 m 25
 456 194 l 25
 544 194 l 25
 544 106 l 25
 456 106 l 25
256 6 m 25
 256 94 l 25
 344 94 l 25
 344 6 l 25
 256 6 l 25
356 6 m 25
 356 94 l 25
 444 94 l 25
 444 6 l 25
 356 6 l 25
EndSplineSet
EndChar

StartChar: trademark
Encoding: 8482 8482 206
Width: 600
Flags: HMW
LayerCount: 2
Fore
SplineSet
56 606 m 25
 56 694 l 25
 144 694 l 25
 144 606 l 25
 56 606 l 25
156 606 m 25
 156 694 l 25
 244 694 l 25
 244 606 l 25
 156 606 l 25
256 606 m 25
 256 694 l 25
 344 694 l 25
 344 606 l 25
 256 606 l 25
356 606 m 25
 356 694 l 25
 444 694 l 25
 444 606 l 25
 356 606 l 25
456 606 m 25
 456 694 l 25
 544 694 l 25
 544 606 l 25
 456 606 l 25
256 506 m 25
 256 594 l 25
 344 594 l 25
 344 506 l 25
 256 506 l 25
256 406 m 25
 256 494 l 25
 344 494 l 25
 344 406 l 25
 256 406 l 25
56 206 m 25
 56 294 l 25
 144 294 l 25
 144 206 l 25
 56 206 l 25
156 206 m 25
 156 294 l 25
 244 294 l 25
 244 206 l 25
 156 206 l 25
356 206 m 25
 356 294 l 25
 444 294 l 25
 444 206 l 25
 356 206 l 25
456 206 m 25
 456 294 l 25
 544 294 l 25
 544 206 l 25
 456 206 l 25
56 106 m 25
 56 194 l 25
 144 194 l 25
 144 106 l 25
 56 106 l 25
256 106 m 25
 256 194 l 25
 344 194 l 25
 344 106 l 25
 256 106 l 25
456 106 m 25
 456 194 l 25
 544 194 l 25
 544 106 l 25
 456 106 l 25
56 6 m 25
 56 94 l 25
 144 94 l 25
 144 6 l 25
 56 6 l 25
456 6 m 25
 456 94 l 25
 544 94 l 25
 544 6 l 25
 456 6 l 25
EndSplineSet
EndChar

StartChar: partialdiff
Encoding: 8706 8706 207
Width: 600
Flags: HMW
LayerCount: 2
Fore
SplineSet
156 606 m 25
 156 694 l 25
 244 694 l 25
 244 606 l 25
 156 606 l 25
256 606 m 25
 256 694 l 25
 344 694 l 25
 344 606 l 25
 256 606 l 25
356 506 m 25
 356 594 l 25
 444 594 l 25
 444 506 l 25
 356 506 l 25
456 406 m 25
 456 494 l 25
 544 494 l 25
 544 406 l 25
 456 406 l 25
156 306 m 25
 156 394 l 25
 244 394 l 25
 244 306 l 25
 156 306 l 25
256 306 m 25
 256 394 l 25
 344 394 l 25
 344 306 l 25
 256 306 l 25
356 306 m 25
 356 394 l 25
 444 394 l 25
 444 306 l 25
 356 306 l 25
456 306 m 25
 456 394 l 25
 544 394 l 25
 544 306 l 25
 456 306 l 25
56 206 m 25
 56 294 l 25
 144 294 l 25
 144 206 l 25
 56 206 l 25
456 206 m 25
 456 294 l 25
 544 294 l 25
 544 206 l 25
 456 206 l 25
56 106 m 25
 56 194 l 25
 144 194 l 25
 144 106 l 25
 56 106 l 25
456 106 m 25
 456 194 l 25
 544 194 l 25
 544 106 l 25
 456 106 l 25
156 6 m 25
 156 94 l 25
 244 94 l 25
 244 6 l 25
 156 6 l 25
256 6 m 25
 256 94 l 25
 344 94 l 25
 344 6 l 25
 256 6 l 25
356 6 m 25
 356 94 l 25
 444 94 l 25
 444 6 l 25
 356 6 l 25
EndSplineSet
EndChar

StartChar: Delta
Encoding: 8710 8710 208
Width: 600
Flags: HMW
AnchorPoint: "marks_below" 300 0 basechar 0
AnchorPoint: "marks_above" 300 800 basechar 0
LayerCount: 2
Fore
SplineSet
256 606 m 25
 256 694 l 25
 344 694 l 25
 344 606 l 25
 256 606 l 25
256 506 m 25
 256 594 l 25
 344 594 l 25
 344 506 l 25
 256 506 l 25
156 406 m 25
 156 494 l 25
 244 494 l 25
 244 406 l 25
 156 406 l 25
356 406 m 25
 356 494 l 25
 444 494 l 25
 444 406 l 25
 356 406 l 25
156 306 m 25
 156 394 l 25
 244 394 l 25
 244 306 l 25
 156 306 l 25
356 306 m 25
 356 394 l 25
 444 394 l 25
 444 306 l 25
 356 306 l 25
56 206 m 25
 56 294 l 25
 144 294 l 25
 144 206 l 25
 56 206 l 25
456 206 m 25
 456 294 l 25
 544 294 l 25
 544 206 l 25
 456 206 l 25
56 106 m 25
 56 194 l 25
 144 194 l 25
 144 106 l 25
 56 106 l 25
456 106 m 25
 456 194 l 25
 544 194 l 25
 544 106 l 25
 456 106 l 25
56 6 m 25
 56 94 l 25
 144 94 l 25
 144 6 l 25
 56 6 l 25
156 6 m 25
 156 94 l 25
 244 94 l 25
 244 6 l 25
 156 6 l 25
256 6 m 25
 256 94 l 25
 344 94 l 25
 344 6 l 25
 256 6 l 25
356 6 m 25
 356 94 l 25
 444 94 l 25
 444 6 l 25
 356 6 l 25
456 6 m 25
 456 94 l 25
 544 94 l 25
 544 6 l 25
 456 6 l 25
EndSplineSet
EndChar

StartChar: product
Encoding: 8719 8719 209
Width: 600
Flags: HMW
LayerCount: 2
Fore
SplineSet
56 606 m 25
 56 694 l 25
 144 694 l 25
 144 606 l 25
 56 606 l 25
156 606 m 25
 156 694 l 25
 244 694 l 25
 244 606 l 25
 156 606 l 25
256 606 m 25
 256 694 l 25
 344 694 l 25
 344 606 l 25
 256 606 l 25
356 606 m 25
 356 694 l 25
 444 694 l 25
 444 606 l 25
 356 606 l 25
456 606 m 25
 456 694 l 25
 544 694 l 25
 544 606 l 25
 456 606 l 25
56 506 m 25
 56 594 l 25
 144 594 l 25
 144 506 l 25
 56 506 l 25
456 506 m 25
 456 594 l 25
 544 594 l 25
 544 506 l 25
 456 506 l 25
56 406 m 25
 56 494 l 25
 144 494 l 25
 144 406 l 25
 56 406 l 25
456 406 m 25
 456 494 l 25
 544 494 l 25
 544 406 l 25
 456 406 l 25
56 306 m 25
 56 394 l 25
 144 394 l 25
 144 306 l 25
 56 306 l 25
456 306 m 25
 456 394 l 25
 544 394 l 25
 544 306 l 25
 456 306 l 25
56 206 m 25
 56 294 l 25
 144 294 l 25
 144 206 l 25
 56 206 l 25
456 206 m 25
 456 294 l 25
 544 294 l 25
 544 206 l 25
 456 206 l 25
56 106 m 25
 56 194 l 25
 144 194 l 25
 144 106 l 25
 56 106 l 25
456 106 m 25
 456 194 l 25
 544 194 l 25
 544 106 l 25
 456 106 l 25
56 6 m 25
 56 94 l 25
 144 94 l 25
 144 6 l 25
 56 6 l 25
456 6 m 25
 456 94 l 25
 544 94 l 25
 544 6 l 25
 456 6 l 25
56 -94 m 25
 56 -6 l 25
 144 -6 l 25
 144 -94 l 25
 56 -94 l 25
456 -94 m 25
 456 -6 l 25
 544 -6 l 25
 544 -94 l 25
 456 -94 l 25
56 -194 m 25
 56 -106 l 25
 144 -106 l 25
 144 -194 l 25
 56 -194 l 25
456 -194 m 25
 456 -106 l 25
 544 -106 l 25
 544 -194 l 25
 456 -194 l 25
EndSplineSet
EndChar

StartChar: summation
Encoding: 8721 8721 210
Width: 600
Flags: HMW
LayerCount: 2
Fore
SplineSet
56 606 m 25
 56 694 l 25
 144 694 l 25
 144 606 l 25
 56 606 l 25
156 606 m 25
 156 694 l 25
 244 694 l 25
 244 606 l 25
 156 606 l 25
256 606 m 25
 256 694 l 25
 344 694 l 25
 344 606 l 25
 256 606 l 25
356 606 m 25
 356 694 l 25
 444 694 l 25
 444 606 l 25
 356 606 l 25
456 606 m 25
 456 694 l 25
 544 694 l 25
 544 606 l 25
 456 606 l 25
56 506 m 25
 56 594 l 25
 144 594 l 25
 144 506 l 25
 56 506 l 25
156 406 m 25
 156 494 l 25
 244 494 l 25
 244 406 l 25
 156 406 l 25
256 306 m 25
 256 394 l 25
 344 394 l 25
 344 306 l 25
 256 306 l 25
356 206 m 25
 356 294 l 25
 444 294 l 25
 444 206 l 25
 356 206 l 25
256 106 m 25
 256 194 l 25
 344 194 l 25
 344 106 l 25
 256 106 l 25
156 6 m 25
 156 94 l 25
 244 94 l 25
 244 6 l 25
 156 6 l 25
56 -94 m 25
 56 -6 l 25
 144 -6 l 25
 144 -94 l 25
 56 -94 l 25
56 -194 m 25
 56 -106 l 25
 144 -106 l 25
 144 -194 l 25
 56 -194 l 25
156 -194 m 25
 156 -106 l 25
 244 -106 l 25
 244 -194 l 25
 156 -194 l 25
256 -194 m 25
 256 -106 l 25
 344 -106 l 25
 344 -194 l 25
 256 -194 l 25
356 -194 m 25
 356 -106 l 25
 444 -106 l 25
 444 -194 l 25
 356 -194 l 25
456 -194 m 25
 456 -106 l 25
 544 -106 l 25
 544 -194 l 25
 456 -194 l 25
EndSplineSet
EndChar

StartChar: minus
Encoding: 8722 8722 211
Width: 600
Flags: HMW
LayerCount: 2
Fore
SplineSet
56 306 m 25
 56 394 l 25
 144 394 l 25
 144 306 l 25
 56 306 l 25
156 306 m 25
 156 394 l 25
 244 394 l 25
 244 306 l 25
 156 306 l 25
256 306 m 25
 256 394 l 25
 344 394 l 25
 344 306 l 25
 256 306 l 25
356 306 m 25
 356 394 l 25
 444 394 l 25
 444 306 l 25
 356 306 l 25
456 306 m 25
 456 394 l 25
 544 394 l 25
 544 306 l 25
 456 306 l 25
EndSplineSet
EndChar

StartChar: radical
Encoding: 8730 8730 212
Width: 600
Flags: HMW
LayerCount: 2
Fore
SplineSet
256 606 m 25
 256 694 l 25
 344 694 l 25
 344 606 l 25
 256 606 l 25
356 606 m 25
 356 694 l 25
 444 694 l 25
 444 606 l 25
 356 606 l 25
456 606 m 25
 456 694 l 25
 544 694 l 25
 544 606 l 25
 456 606 l 25
256 506 m 25
 256 594 l 25
 344 594 l 25
 344 506 l 25
 256 506 l 25
256 406 m 25
 256 494 l 25
 344 494 l 25
 344 406 l 25
 256 406 l 25
256 306 m 25
 256 394 l 25
 344 394 l 25
 344 306 l 25
 256 306 l 25
56 206 m 25
 56 294 l 25
 144 294 l 25
 144 206 l 25
 56 206 l 25
256 206 m 25
 256 294 l 25
 344 294 l 25
 344 206 l 25
 256 206 l 25
156 106 m 25
 156 194 l 25
 244 194 l 25
 244 106 l 25
 156 106 l 25
256 106 m 25
 256 194 l 25
 344 194 l 25
 344 106 l 25
 256 106 l 25
256 6 m 25
 256 94 l 25
 344 94 l 25
 344 6 l 25
 256 6 l 25
EndSplineSet
EndChar

StartChar: infinity
Encoding: 8734 8734 213
Width: 600
Flags: HMW
LayerCount: 2
Fore
SplineSet
156 406 m 25
 156 494 l 25
 244 494 l 25
 244 406 l 25
 156 406 l 25
356 406 m 25
 356 494 l 25
 444 494 l 25
 444 406 l 25
 356 406 l 25
56 306 m 25
 56 394 l 25
 144 394 l 25
 144 306 l 25
 56 306 l 25
256 306 m 25
 256 394 l 25
 344 394 l 25
 344 306 l 25
 256 306 l 25
456 306 m 25
 456 394 l 25
 544 394 l 25
 544 306 l 25
 456 306 l 25
56 206 m 25
 56 294 l 25
 144 294 l 25
 144 206 l 25
 56 206 l 25
256 206 m 25
 256 294 l 25
 344 294 l 25
 344 206 l 25
 256 206 l 25
456 206 m 25
 456 294 l 25
 544 294 l 25
 544 206 l 25
 456 206 l 25
156 106 m 25
 156 194 l 25
 244 194 l 25
 244 106 l 25
 156 106 l 25
356 106 m 25
 356 194 l 25
 444 194 l 25
 444 106 l 25
 356 106 l 25
EndSplineSet
EndChar

StartChar: integral
Encoding: 8747 8747 214
Width: 600
Flags: HMW
LayerCount: 2
Fore
SplineSet
356 706 m 25
 356 794 l 25
 444 794 l 25
 444 706 l 25
 356 706 l 25
256 606 m 25
 256 694 l 25
 344 694 l 25
 344 606 l 25
 256 606 l 25
456 606 m 25
 456 694 l 25
 544 694 l 25
 544 606 l 25
 456 606 l 25
256 506 m 25
 256 594 l 25
 344 594 l 25
 344 506 l 25
 256 506 l 25
256 406 m 25
 256 494 l 25
 344 494 l 25
 344 406 l 25
 256 406 l 25
256 306 m 25
 256 394 l 25
 344 394 l 25
 344 306 l 25
 256 306 l 25
256 206 m 25
 256 294 l 25
 344 294 l 25
 344 206 l 25
 256 206 l 25
256 106 m 25
 256 194 l 25
 344 194 l 25
 344 106 l 25
 256 106 l 25
56 6 m 25
 56 94 l 25
 144 94 l 25
 144 6 l 25
 56 6 l 25
256 6 m 25
 256 94 l 25
 344 94 l 25
 344 6 l 25
 256 6 l 25
156 -94 m 25
 156 -6 l 25
 244 -6 l 25
 244 -94 l 25
 156 -94 l 25
EndSplineSet
EndChar

StartChar: notequal
Encoding: 8800 8800 215
Width: 600
Flags: HMW
LayerCount: 2
Fore
SplineSet
456 606 m 25
 456 694 l 25
 544 694 l 25
 544 606 l 25
 456 606 l 25
356 506 m 25
 356 594 l 25
 444 594 l 25
 444 506 l 25
 356 506 l 25
56 406 m 25
 56 494 l 25
 144 494 l 25
 144 406 l 25
 56 406 l 25
156 406 m 25
 156 494 l 25
 244 494 l 25
 244 406 l 25
 156 406 l 25
256 406 m 25
 256 494 l 25
 344 494 l 25
 344 406 l 25
 256 406 l 25
356 406 m 25
 356 494 l 25
 444 494 l 25
 444 406 l 25
 356 406 l 25
456 406 m 25
 456 494 l 25
 544 494 l 25
 544 406 l 25
 456 406 l 25
256 306 m 25
 256 394 l 25
 344 394 l 25
 344 306 l 25
 256 306 l 25
56 206 m 25
 56 294 l 25
 144 294 l 25
 144 206 l 25
 56 206 l 25
156 206 m 25
 156 294 l 25
 244 294 l 25
 244 206 l 25
 156 206 l 25
256 206 m 25
 256 294 l 25
 344 294 l 25
 344 206 l 25
 256 206 l 25
356 206 m 25
 356 294 l 25
 444 294 l 25
 444 206 l 25
 356 206 l 25
456 206 m 25
 456 294 l 25
 544 294 l 25
 544 206 l 25
 456 206 l 25
156 106 m 25
 156 194 l 25
 244 194 l 25
 244 106 l 25
 156 106 l 25
56 6 m 25
 56 94 l 25
 144 94 l 25
 144 6 l 25
 56 6 l 25
EndSplineSet
EndChar

StartChar: lozenge
Encoding: 9674 9674 216
Width: 600
Flags: HMW
LayerCount: 2
Fore
SplineSet
256 606 m 25
 256 694 l 25
 344 694 l 25
 344 606 l 25
 256 606 l 25
156 506 m 25
 156 594 l 25
 244 594 l 25
 244 506 l 25
 156 506 l 25
356 506 m 25
 356 594 l 25
 444 594 l 25
 444 506 l 25
 356 506 l 25
56 406 m 25
 56 494 l 25
 144 494 l 25
 144 406 l 25
 56 406 l 25
456 406 m 25
 456 494 l 25
 544 494 l 25
 544 406 l 25
 456 406 l 25
56 306 m 25
 56 394 l 25
 144 394 l 25
 144 306 l 25
 56 306 l 25
456 306 m 25
 456 394 l 25
 544 394 l 25
 544 306 l 25
 456 306 l 25
56 206 m 25
 56 294 l 25
 144 294 l 25
 144 206 l 25
 56 206 l 25
456 206 m 25
 456 294 l 25
 544 294 l 25
 544 206 l 25
 456 206 l 25
156 106 m 25
 156 194 l 25
 244 194 l 25
 244 106 l 25
 156 106 l 25
356 106 m 25
 356 194 l 25
 444 194 l 25
 444 106 l 25
 356 106 l 25
256 6 m 25
 256 94 l 25
 344 94 l 25
 344 6 l 25
 256 6 l 25
EndSplineSet
EndChar

StartChar: uniFB01
Encoding: 64257 64257 217
Width: 600
Flags: HMW
LayerCount: 2
Fore
SplineSet
256 606 m 25
 256 694 l 25
 344 694 l 25
 344 606 l 25
 256 606 l 25
356 606 m 25
 356 694 l 25
 444 694 l 25
 444 606 l 25
 356 606 l 25
156 506 m 25
 156 594 l 25
 244 594 l 25
 244 506 l 25
 156 506 l 25
456 506 m 25
 456 594 l 25
 544 594 l 25
 544 506 l 25
 456 506 l 25
156 406 m 25
 156 494 l 25
 244 494 l 25
 244 406 l 25
 156 406 l 25
56 306 m 25
 56 394 l 25
 144 394 l 25
 144 306 l 25
 56 306 l 25
156 306 m 25
 156 394 l 25
 244 394 l 25
 244 306 l 25
 156 306 l 25
256 306 m 25
 256 394 l 25
 344 394 l 25
 344 306 l 25
 256 306 l 25
356 306 m 25
 356 394 l 25
 444 394 l 25
 444 306 l 25
 356 306 l 25
456 306 m 25
 456 394 l 25
 544 394 l 25
 544 306 l 25
 456 306 l 25
156 206 m 25
 156 294 l 25
 244 294 l 25
 244 206 l 25
 156 206 l 25
456 206 m 25
 456 294 l 25
 544 294 l 25
 544 206 l 25
 456 206 l 25
156 106 m 25
 156 194 l 25
 244 194 l 25
 244 106 l 25
 156 106 l 25
456 106 m 25
 456 194 l 25
 544 194 l 25
 544 106 l 25
 456 106 l 25
156 6 m 25
 156 94 l 25
 244 94 l 25
 244 6 l 25
 156 6 l 25
456 6 m 25
 456 94 l 25
 544 94 l 25
 544 6 l 25
 456 6 l 25
EndSplineSet
EndChar

StartChar: uniFB02
Encoding: 64258 64258 218
Width: 600
Flags: HMW
LayerCount: 2
Fore
SplineSet
256 606 m 25
 256 694 l 25
 344 694 l 25
 344 606 l 25
 256 606 l 25
356 606 m 25
 356 694 l 25
 444 694 l 25
 444 606 l 25
 356 606 l 25
456 606 m 25
 456 694 l 25
 544 694 l 25
 544 606 l 25
 456 606 l 25
156 506 m 25
 156 594 l 25
 244 594 l 25
 244 506 l 25
 156 506 l 25
456 506 m 25
 456 594 l 25
 544 594 l 25
 544 506 l 25
 456 506 l 25
156 406 m 25
 156 494 l 25
 244 494 l 25
 244 406 l 25
 156 406 l 25
456 406 m 25
 456 494 l 25
 544 494 l 25
 544 406 l 25
 456 406 l 25
56 306 m 25
 56 394 l 25
 144 394 l 25
 144 306 l 25
 56 306 l 25
156 306 m 25
 156 394 l 25
 244 394 l 25
 244 306 l 25
 156 306 l 25
256 306 m 25
 256 394 l 25
 344 394 l 25
 344 306 l 25
 256 306 l 25
456 306 m 25
 456 394 l 25
 544 394 l 25
 544 306 l 25
 456 306 l 25
156 206 m 25
 156 294 l 25
 244 294 l 25
 244 206 l 25
 156 206 l 25
456 206 m 25
 456 294 l 25
 544 294 l 25
 544 206 l 25
 456 206 l 25
156 106 m 25
 156 194 l 25
 244 194 l 25
 244 106 l 25
 156 106 l 25
456 106 m 25
 456 194 l 25
 544 194 l 25
 544 106 l 25
 456 106 l 25
156 6 m 25
 156 94 l 25
 244 94 l 25
 244 6 l 25
 156 6 l 25
456 6 m 25
 456 94 l 25
 544 94 l 25
 544 6 l 25
 456 6 l 25
EndSplineSet
EndChar

StartChar: Omega
Encoding: 8486 8486 219
Width: 600
Flags: HMW
AnchorPoint: "marks_below" 300 0 basechar 0
AnchorPoint: "marks_above" 300 800 basechar 0
LayerCount: 2
Fore
SplineSet
156 606 m 25
 156 694 l 25
 244 694 l 25
 244 606 l 25
 156 606 l 25
256 606 m 25
 256 694 l 25
 344 694 l 25
 344 606 l 25
 256 606 l 25
356 606 m 25
 356 694 l 25
 444 694 l 25
 444 606 l 25
 356 606 l 25
56 506 m 25
 56 594 l 25
 144 594 l 25
 144 506 l 25
 56 506 l 25
456 506 m 25
 456 594 l 25
 544 594 l 25
 544 506 l 25
 456 506 l 25
56 406 m 25
 56 494 l 25
 144 494 l 25
 144 406 l 25
 56 406 l 25
456 406 m 25
 456 494 l 25
 544 494 l 25
 544 406 l 25
 456 406 l 25
56 306 m 25
 56 394 l 25
 144 394 l 25
 144 306 l 25
 56 306 l 25
456 306 m 25
 456 394 l 25
 544 394 l 25
 544 306 l 25
 456 306 l 25
56 206 m 25
 56 294 l 25
 144 294 l 25
 144 206 l 25
 56 206 l 25
456 206 m 25
 456 294 l 25
 544 294 l 25
 544 206 l 25
 456 206 l 25
156 106 m 25
 156 194 l 25
 244 194 l 25
 244 106 l 25
 156 106 l 25
356 106 m 25
 356 194 l 25
 444 194 l 25
 444 106 l 25
 356 106 l 25
56 6 m 25
 56 94 l 25
 144 94 l 25
 144 6 l 25
 56 6 l 25
156 6 m 25
 156 94 l 25
 244 94 l 25
 244 6 l 25
 156 6 l 25
356 6 m 25
 356 94 l 25
 444 94 l 25
 444 6 l 25
 356 6 l 25
456 6 m 25
 456 94 l 25
 544 94 l 25
 544 6 l 25
 456 6 l 25
EndSplineSet
EndChar

StartChar: dotaccent
Encoding: 729 729 242
Width: 200
Flags: HMW
LayerCount: 2
Fore
SplineSet
56 606 m 25
 56 694 l 25
 144 694 l 25
 144 606 l 25
 56 606 l 25
EndSplineSet
EndChar

StartChar: ellipsis
Encoding: 8230 8230 251
Width: 600
VWidth: 0
Flags: HMW
LayerCount: 2
Fore
SplineSet
56 6 m 25
 56 94 l 25
 144 94 l 25
 144 6 l 25
 56 6 l 25
456 6 m 25
 456 94 l 25
 544 94 l 25
 544 6 l 25
 456 6 l 25
256 6 m 25
 256 94 l 25
 344 94 l 25
 344 6 l 25
 256 6 l 25
EndSplineSet
EndChar

StartChar: perthousand
Encoding: 8240 8240 252
Width: 900
Flags: HMW
LayerCount: 2
Fore
SplineSet
456 6 m 25
 456 94 l 25
 544 94 l 25
 544 6 l 25
 456 6 l 25
356 6 m 25
 356 94 l 25
 444 94 l 25
 444 6 l 25
 356 6 l 25
456 106 m 25
 456 194 l 25
 544 194 l 25
 544 106 l 25
 456 106 l 25
356 106 m 25
 356 194 l 25
 444 194 l 25
 444 106 l 25
 356 106 l 25
56 106 m 25
 56 194 l 25
 144 194 l 25
 144 106 l 25
 56 106 l 25
156 206 m 25
 156 294 l 25
 244 294 l 25
 244 206 l 25
 156 206 l 25
256 306 m 25
 256 394 l 25
 344 394 l 25
 344 306 l 25
 256 306 l 25
356 406 m 25
 356 494 l 25
 444 494 l 25
 444 406 l 25
 356 406 l 25
456 506 m 25
 456 594 l 25
 544 594 l 25
 544 506 l 25
 456 506 l 25
156 506 m 25
 156 594 l 25
 244 594 l 25
 244 506 l 25
 156 506 l 25
56 506 m 25
 56 594 l 25
 144 594 l 25
 144 506 l 25
 56 506 l 25
156 606 m 25
 156 694 l 25
 244 694 l 25
 244 606 l 25
 156 606 l 25
56 606 m 25
 56 694 l 25
 144 694 l 25
 144 606 l 25
 56 606 l 25
756 6 m 25
 756 94 l 25
 844 94 l 25
 844 6 l 25
 756 6 l 25
656 6 m 25
 656 94 l 25
 744 94 l 25
 744 6 l 25
 656 6 l 25
756 106 m 25
 756 194 l 25
 844 194 l 25
 844 106 l 25
 756 106 l 25
656 106 m 25
 656 194 l 25
 744 194 l 25
 744 106 l 25
 656 106 l 25
EndSplineSet
EndChar

StartChar: estimated
Encoding: 8494 8494 254
Width: 892
Flags: HMW
LayerCount: 2
Fore
SplineSet
188 360 m 1
 704 360 l 1
 704 576 l 1
 641 648 549 693 446 693 c 0
 343 693 251 648 188 576 c 1
 188 360 l 1
852 340 m 1
 188 340 l 1
 188 124 l 1
 251 52 343 7 446 7 c 0
 550 7 643 54 706 127 c 1
 767 127 l 1
 693 41 577 -15 446 -15 c 0
 222 -15 40 149 40 350 c 0
 40 551 222 715 446 715 c 0
 680 715 852 548 852 340 c 1
EndSplineSet
EndChar

StartChar: uni2219
Encoding: 8729 8729 256
Width: 200
VWidth: 0
Flags: HMW
LayerCount: 2
Fore
SplineSet
56 306 m 25
 56 394 l 25
 144 394 l 25
 144 306 l 25
 56 306 l 25
EndSplineSet
EndChar

StartChar: lessequal
Encoding: 8804 8804 258
Width: 400
Flags: HMW
LayerCount: 2
Fore
SplineSet
256 6 m 25
 256 94 l 25
 344 94 l 25
 344 6 l 25
 256 6 l 25
156 6 m 25
 156 94 l 25
 244 94 l 25
 244 6 l 25
 156 6 l 25
56 6 m 25
 56 94 l 25
 144 94 l 25
 144 6 l 25
 56 6 l 25
256 606 m 25
 256 694 l 25
 344 694 l 25
 344 606 l 25
 256 606 l 25
156 506 m 25
 156 594 l 25
 244 594 l 25
 244 506 l 25
 156 506 l 25
56 406 m 25
 56 494 l 25
 144 494 l 25
 144 406 l 25
 56 406 l 25
156 306 m 25
 156 394 l 25
 244 394 l 25
 244 306 l 25
 156 306 l 25
256 206 m 25
 256 294 l 25
 344 294 l 25
 344 206 l 25
 256 206 l 25
EndSplineSet
EndChar

StartChar: greaterequal
Encoding: 8805 8805 259
Width: 400
Flags: HMW
LayerCount: 2
Fore
SplineSet
256 6 m 25
 256 94 l 25
 344 94 l 25
 344 6 l 25
 256 6 l 25
156 6 m 25
 156 94 l 25
 244 94 l 25
 244 6 l 25
 156 6 l 25
56 6 m 25
 56 94 l 25
 144 94 l 25
 144 6 l 25
 56 6 l 25
56 606 m 25
 56 694 l 25
 144 694 l 25
 144 606 l 25
 56 606 l 25
156 506 m 25
 156 594 l 25
 244 594 l 25
 244 506 l 25
 156 506 l 25
256 406 m 25
 256 494 l 25
 344 494 l 25
 344 406 l 25
 256 406 l 25
156 306 m 25
 156 394 l 25
 244 394 l 25
 244 306 l 25
 156 306 l 25
56 206 m 25
 56 294 l 25
 144 294 l 25
 144 206 l 25
 56 206 l 25
EndSplineSet
EndChar

StartChar: uni25CC
Encoding: 9676 9676 261
Width: 600
Flags: HMW
AnchorPoint: "marks_aboveright" 550 400 basechar 0
AnchorPoint: "ogonek" 400 0 basechar 0
AnchorPoint: "marks_below" 300 0 basechar 0
AnchorPoint: "marks_above" 300 600 basechar 0
LayerCount: 2
Fore
SplineSet
356 6 m 25
 356 94 l 25
 444 94 l 25
 444 6 l 25
 356 6 l 25
156 6 m 25
 156 94 l 25
 244 94 l 25
 244 6 l 25
 156 6 l 25
456 206 m 25
 456 294 l 25
 544 294 l 25
 544 206 l 25
 456 206 l 25
56 206 m 25
 56 294 l 25
 144 294 l 25
 144 206 l 25
 56 206 l 25
356 406 m 25
 356 494 l 25
 444 494 l 25
 444 406 l 25
 356 406 l 25
156 406 m 25
 156 494 l 25
 244 494 l 25
 244 406 l 25
 156 406 l 25
EndSplineSet
EndChar

StartChar: dcroat
Encoding: 273 273 262
Width: 600
Flags: HMW
AnchorPoint: "marks_below" 300 0 basechar 0
AnchorPoint: "marks_above" 300 800 basechar 0
LayerCount: 2
Fore
SplineSet
356 606 m 25
 356 694 l 25
 444 694 l 25
 444 606 l 25
 356 606 l 25
256 506 m 25
 256 594 l 25
 344 594 l 25
 344 506 l 25
 256 506 l 25
356 506 m 25
 356 594 l 25
 444 594 l 25
 444 506 l 25
 356 506 l 25
456 506 m 25
 456 594 l 25
 544 594 l 25
 544 506 l 25
 456 506 l 25
356 406 m 25
 356 494 l 25
 444 494 l 25
 444 406 l 25
 356 406 l 25
156 306 m 25
 156 394 l 25
 244 394 l 25
 244 306 l 25
 156 306 l 25
256 306 m 25
 256 394 l 25
 344 394 l 25
 344 306 l 25
 256 306 l 25
356 306 m 25
 356 394 l 25
 444 394 l 25
 444 306 l 25
 356 306 l 25
56 206 m 25
 56 294 l 25
 144 294 l 25
 144 206 l 25
 56 206 l 25
356 206 m 25
 356 294 l 25
 444 294 l 25
 444 206 l 25
 356 206 l 25
56 106 m 25
 56 194 l 25
 144 194 l 25
 144 106 l 25
 56 106 l 25
356 106 m 25
 356 194 l 25
 444 194 l 25
 444 106 l 25
 356 106 l 25
156 6 m 25
 156 94 l 25
 244 94 l 25
 244 6 l 25
 156 6 l 25
256 6 m 25
 256 94 l 25
 344 94 l 25
 344 6 l 25
 256 6 l 25
356 6 m 25
 356 94 l 25
 444 94 l 25
 444 6 l 25
 356 6 l 25
EndSplineSet
EndChar

StartChar: Hbar
Encoding: 294 294 263
Width: 600
Flags: HMW
AnchorPoint: "marks_below" 300 0 basechar 0
AnchorPoint: "marks_above" 300 800 basechar 0
LayerCount: 2
Fore
SplineSet
56 606 m 25
 56 694 l 25
 144 694 l 25
 144 606 l 25
 56 606 l 25
456 606 m 25
 456 694 l 25
 544 694 l 25
 544 606 l 25
 456 606 l 25
56 506 m 25
 56 594 l 25
 144 594 l 25
 144 506 l 25
 56 506 l 25
156 506 m 25
 156 594 l 25
 244 594 l 25
 244 506 l 25
 156 506 l 25
256 506 m 25
 256 594 l 25
 344 594 l 25
 344 506 l 25
 256 506 l 25
356 506 m 25
 356 594 l 25
 444 594 l 25
 444 506 l 25
 356 506 l 25
456 506 m 25
 456 594 l 25
 544 594 l 25
 544 506 l 25
 456 506 l 25
56 406 m 25
 56 494 l 25
 144 494 l 25
 144 406 l 25
 56 406 l 25
456 406 m 25
 456 494 l 25
 544 494 l 25
 544 406 l 25
 456 406 l 25
56 306 m 25
 56 394 l 25
 144 394 l 25
 144 306 l 25
 56 306 l 25
156 306 m 25
 156 394 l 25
 244 394 l 25
 244 306 l 25
 156 306 l 25
256 306 m 25
 256 394 l 25
 344 394 l 25
 344 306 l 25
 256 306 l 25
356 306 m 25
 356 394 l 25
 444 394 l 25
 444 306 l 25
 356 306 l 25
456 306 m 25
 456 394 l 25
 544 394 l 25
 544 306 l 25
 456 306 l 25
56 206 m 25
 56 294 l 25
 144 294 l 25
 144 206 l 25
 56 206 l 25
456 206 m 25
 456 294 l 25
 544 294 l 25
 544 206 l 25
 456 206 l 25
56 106 m 25
 56 194 l 25
 144 194 l 25
 144 106 l 25
 56 106 l 25
456 106 m 25
 456 194 l 25
 544 194 l 25
 544 106 l 25
 456 106 l 25
56 6 m 25
 56 94 l 25
 144 94 l 25
 144 6 l 25
 56 6 l 25
456 6 m 25
 456 94 l 25
 544 94 l 25
 544 6 l 25
 456 6 l 25
EndSplineSet
EndChar

StartChar: hbar
Encoding: 295 295 264
Width: 600
Flags: HMW
AnchorPoint: "marks_below" 300 0 basechar 0
AnchorPoint: "marks_above" 300 800 basechar 0
LayerCount: 2
Fore
SplineSet
156 606 m 25
 156 694 l 25
 244 694 l 25
 244 606 l 25
 156 606 l 25
56 506 m 25
 56 594 l 25
 144 594 l 25
 144 506 l 25
 56 506 l 25
156 506 m 25
 156 594 l 25
 244 594 l 25
 244 506 l 25
 156 506 l 25
256 506 m 25
 256 594 l 25
 344 594 l 25
 344 506 l 25
 256 506 l 25
156 406 m 25
 156 494 l 25
 244 494 l 25
 244 406 l 25
 156 406 l 25
156 306 m 25
 156 394 l 25
 244 394 l 25
 244 306 l 25
 156 306 l 25
256 306 m 25
 256 394 l 25
 344 394 l 25
 344 306 l 25
 256 306 l 25
356 306 m 25
 356 394 l 25
 444 394 l 25
 444 306 l 25
 356 306 l 25
156 206 m 25
 156 294 l 25
 244 294 l 25
 244 206 l 25
 156 206 l 25
456 206 m 25
 456 294 l 25
 544 294 l 25
 544 206 l 25
 456 206 l 25
156 106 m 25
 156 194 l 25
 244 194 l 25
 244 106 l 25
 156 106 l 25
456 106 m 25
 456 194 l 25
 544 194 l 25
 544 106 l 25
 456 106 l 25
156 6 m 25
 156 94 l 25
 244 94 l 25
 244 6 l 25
 156 6 l 25
456 6 m 25
 456 94 l 25
 544 94 l 25
 544 6 l 25
 456 6 l 25
EndSplineSet
EndChar

StartChar: IJ
Encoding: 306 306 265
Width: 600
Flags: HMW
AnchorPoint: "marks_below" 300 0 basechar 0
AnchorPoint: "marks_above" 300 800 basechar 0
LayerCount: 2
Fore
SplineSet
456 606 m 25
 456 694 l 25
 544 694 l 25
 544 606 l 25
 456 606 l 25
456 506 m 25
 456 594 l 25
 544 594 l 25
 544 506 l 25
 456 506 l 25
456 406 m 25
 456 494 l 25
 544 494 l 25
 544 406 l 25
 456 406 l 25
456 306 m 25
 456 394 l 25
 544 394 l 25
 544 306 l 25
 456 306 l 25
456 206 m 25
 456 294 l 25
 544 294 l 25
 544 206 l 25
 456 206 l 25
256 106 m 25
 256 194 l 25
 344 194 l 25
 344 106 l 25
 256 106 l 25
456 106 m 25
 456 194 l 25
 544 194 l 25
 544 106 l 25
 456 106 l 25
356 6 m 25
 356 94 l 25
 444 94 l 25
 444 6 l 25
 356 6 l 25
56 6 m 25
 56 94 l 25
 144 94 l 25
 144 6 l 25
 56 6 l 25
56 106 m 25
 56 194 l 25
 144 194 l 25
 144 106 l 25
 56 106 l 25
56 206 m 25
 56 294 l 25
 144 294 l 25
 144 206 l 25
 56 206 l 25
56 306 m 25
 56 394 l 25
 144 394 l 25
 144 306 l 25
 56 306 l 25
56 406 m 25
 56 494 l 25
 144 494 l 25
 144 406 l 25
 56 406 l 25
56 506 m 25
 56 594 l 25
 144 594 l 25
 144 506 l 25
 56 506 l 25
56 606 m 25
 56 694 l 25
 144 694 l 25
 144 606 l 25
 56 606 l 25
EndSplineSet
EndChar

StartChar: ij
Encoding: 307 307 266
Width: 700
Flags: HMW
LayerCount: 2
Fore
SplineSet
556 606 m 25
 556 694 l 25
 644 694 l 25
 644 606 l 25
 556 606 l 25
456 406 m 25
 456 494 l 25
 544 494 l 25
 544 406 l 25
 456 406 l 25
556 406 m 25
 556 494 l 25
 644 494 l 25
 644 406 l 25
 556 406 l 25
556 306 m 25
 556 394 l 25
 644 394 l 25
 644 306 l 25
 556 306 l 25
556 206 m 25
 556 294 l 25
 644 294 l 25
 644 206 l 25
 556 206 l 25
556 106 m 25
 556 194 l 25
 644 194 l 25
 644 106 l 25
 556 106 l 25
556 6 m 25
 556 94 l 25
 644 94 l 25
 644 6 l 25
 556 6 l 25
556 -94 m 25
 556 -6 l 25
 644 -6 l 25
 644 -94 l 25
 556 -94 l 25
356 -194 m 25
 356 -106 l 25
 444 -106 l 25
 444 -194 l 25
 356 -194 l 25
456 -194 m 25
 456 -106 l 25
 544 -106 l 25
 544 -194 l 25
 456 -194 l 25
256 6 m 25
 256 94 l 25
 344 94 l 25
 344 6 l 25
 256 6 l 25
156 6 m 25
 156 94 l 25
 244 94 l 25
 244 6 l 25
 156 6 l 25
56 6 m 25
 56 94 l 25
 144 94 l 25
 144 6 l 25
 56 6 l 25
156 106 m 25
 156 194 l 25
 244 194 l 25
 244 106 l 25
 156 106 l 25
156 206 m 25
 156 294 l 25
 244 294 l 25
 244 206 l 25
 156 206 l 25
156 306 m 25
 156 394 l 25
 244 394 l 25
 244 306 l 25
 156 306 l 25
156 406 m 25
 156 494 l 25
 244 494 l 25
 244 406 l 25
 156 406 l 25
56 406 m 25
 56 494 l 25
 144 494 l 25
 144 406 l 25
 56 406 l 25
156 606 m 25
 156 694 l 25
 244 694 l 25
 244 606 l 25
 156 606 l 25
EndSplineSet
EndChar

StartChar: Eng
Encoding: 330 330 267
Width: 600
Flags: HMW
AnchorPoint: "marks_below" 300 0 basechar 0
AnchorPoint: "marks_above" 300 800 basechar 0
LayerCount: 2
Fore
SplineSet
356 -194 m 25
 356 -106 l 25
 444 -106 l 25
 444 -194 l 25
 356 -194 l 25
256 -194 m 25
 256 -106 l 25
 344 -106 l 25
 344 -194 l 25
 256 -194 l 25
456 -94 m 25
 456 -6 l 25
 544 -6 l 25
 544 -94 l 25
 456 -94 l 25
456 6 m 25
 456 94 l 25
 544 94 l 25
 544 6 l 25
 456 6 l 25
56 6 m 25
 56 94 l 25
 144 94 l 25
 144 6 l 25
 56 6 l 25
456 106 m 25
 456 194 l 25
 544 194 l 25
 544 106 l 25
 456 106 l 25
56 106 m 25
 56 194 l 25
 144 194 l 25
 144 106 l 25
 56 106 l 25
456 206 m 25
 456 294 l 25
 544 294 l 25
 544 206 l 25
 456 206 l 25
56 206 m 25
 56 294 l 25
 144 294 l 25
 144 206 l 25
 56 206 l 25
456 306 m 25
 456 394 l 25
 544 394 l 25
 544 306 l 25
 456 306 l 25
56 306 m 25
 56 394 l 25
 144 394 l 25
 144 306 l 25
 56 306 l 25
456 406 m 25
 456 494 l 25
 544 494 l 25
 544 406 l 25
 456 406 l 25
56 406 m 25
 56 494 l 25
 144 494 l 25
 144 406 l 25
 56 406 l 25
456 506 m 25
 456 594 l 25
 544 594 l 25
 544 506 l 25
 456 506 l 25
156 506 m 25
 156 594 l 25
 244 594 l 25
 244 506 l 25
 156 506 l 25
56 506 m 25
 56 594 l 25
 144 594 l 25
 144 506 l 25
 56 506 l 25
356 606 m 25
 356 694 l 25
 444 694 l 25
 444 606 l 25
 356 606 l 25
256 606 m 25
 256 694 l 25
 344 694 l 25
 344 606 l 25
 256 606 l 25
56 606 m 25
 56 694 l 25
 144 694 l 25
 144 606 l 25
 56 606 l 25
EndSplineSet
EndChar

StartChar: eng
Encoding: 331 331 268
Width: 600
Flags: HMW
AnchorPoint: "marks_above" 300 600 basechar 0
LayerCount: 2
Fore
SplineSet
56 406 m 25
 56 494 l 25
 144 494 l 25
 144 406 l 25
 56 406 l 25
256 406 m 25
 256 494 l 25
 344 494 l 25
 344 406 l 25
 256 406 l 25
356 406 m 25
 356 494 l 25
 444 494 l 25
 444 406 l 25
 356 406 l 25
56 306 m 25
 56 394 l 25
 144 394 l 25
 144 306 l 25
 56 306 l 25
156 306 m 25
 156 394 l 25
 244 394 l 25
 244 306 l 25
 156 306 l 25
456 306 m 25
 456 394 l 25
 544 394 l 25
 544 306 l 25
 456 306 l 25
56 206 m 25
 56 294 l 25
 144 294 l 25
 144 206 l 25
 56 206 l 25
456 206 m 25
 456 294 l 25
 544 294 l 25
 544 206 l 25
 456 206 l 25
56 106 m 25
 56 194 l 25
 144 194 l 25
 144 106 l 25
 56 106 l 25
456 106 m 25
 456 194 l 25
 544 194 l 25
 544 106 l 25
 456 106 l 25
56 6 m 25
 56 94 l 25
 144 94 l 25
 144 6 l 25
 56 6 l 25
456 6 m 25
 456 94 l 25
 544 94 l 25
 544 6 l 25
 456 6 l 25
456 -94 m 25
 456 -6 l 25
 544 -6 l 25
 544 -94 l 25
 456 -94 l 25
256 -194 m 25
 256 -106 l 25
 344 -106 l 25
 344 -194 l 25
 256 -194 l 25
356 -194 m 25
 356 -106 l 25
 444 -106 l 25
 444 -194 l 25
 356 -194 l 25
EndSplineSet
EndChar

StartChar: uni0237
Encoding: 567 567 269
Width: 500
Flags: HMW
AnchorPoint: "marks_above" 400 600 basechar 0
LayerCount: 2
Fore
SplineSet
256 406 m 25
 256 494 l 25
 344 494 l 25
 344 406 l 25
 256 406 l 25
356 406 m 25
 356 494 l 25
 444 494 l 25
 444 406 l 25
 356 406 l 25
356 306 m 25
 356 394 l 25
 444 394 l 25
 444 306 l 25
 356 306 l 25
356 206 m 25
 356 294 l 25
 444 294 l 25
 444 206 l 25
 356 206 l 25
356 106 m 25
 356 194 l 25
 444 194 l 25
 444 106 l 25
 356 106 l 25
356 6 m 25
 356 94 l 25
 444 94 l 25
 444 6 l 25
 356 6 l 25
56 -94 m 25
 56 -6 l 25
 144 -6 l 25
 144 -94 l 25
 56 -94 l 25
356 -94 m 25
 356 -6 l 25
 444 -6 l 25
 444 -94 l 25
 356 -94 l 25
156 -194 m 25
 156 -106 l 25
 244 -106 l 25
 244 -194 l 25
 156 -194 l 25
256 -194 m 25
 256 -106 l 25
 344 -106 l 25
 344 -194 l 25
 256 -194 l 25
EndSplineSet
EndChar

StartChar: uni1E9E
Encoding: 7838 7838 270
Width: 600
Flags: HMW
AnchorPoint: "marks_below" 300 0 basechar 0
AnchorPoint: "marks_above" 300 800 basechar 0
LayerCount: 2
Fore
SplineSet
156 606 m 25
 156 694 l 25
 244 694 l 25
 244 606 l 25
 156 606 l 25
256 606 m 25
 256 694 l 25
 344 694 l 25
 344 606 l 25
 256 606 l 25
356 606 m 25
 356 694 l 25
 444 694 l 25
 444 606 l 25
 356 606 l 25
456 606 m 25
 456 694 l 25
 544 694 l 25
 544 606 l 25
 456 606 l 25
56 506 m 25
 56 594 l 25
 144 594 l 25
 144 506 l 25
 56 506 l 25
456 506 m 25
 456 594 l 25
 544 594 l 25
 544 506 l 25
 456 506 l 25
56 406 m 25
 56 494 l 25
 144 494 l 25
 144 406 l 25
 56 406 l 25
356 406 m 25
 356 494 l 25
 444 494 l 25
 444 406 l 25
 356 406 l 25
56 306 m 25
 56 394 l 25
 144 394 l 25
 144 306 l 25
 56 306 l 25
256 306 m 25
 256 394 l 25
 344 394 l 25
 344 306 l 25
 256 306 l 25
356 306 m 25
 356 394 l 25
 444 394 l 25
 444 306 l 25
 356 306 l 25
56 206 m 25
 56 294 l 25
 144 294 l 25
 144 206 l 25
 56 206 l 25
456 206 m 25
 456 294 l 25
 544 294 l 25
 544 206 l 25
 456 206 l 25
56 106 m 25
 56 194 l 25
 144 194 l 25
 144 106 l 25
 56 106 l 25
456 106 m 25
 456 194 l 25
 544 194 l 25
 544 106 l 25
 456 106 l 25
56 6 m 25
 56 94 l 25
 144 94 l 25
 144 6 l 25
 56 6 l 25
256 6 m 25
 256 94 l 25
 344 94 l 25
 344 6 l 25
 256 6 l 25
356 6 m 25
 356 94 l 25
 444 94 l 25
 444 6 l 25
 356 6 l 25
EndSplineSet
EndChar

StartChar: uni20BA
Encoding: 8378 8378 271
Width: 600
Flags: HMW
LayerCount: 2
Fore
SplineSet
156 606 m 25
 156 694 l 25
 244 694 l 25
 244 606 l 25
 156 606 l 25
56 506 m 25
 56 594 l 25
 144 594 l 25
 144 506 l 25
 56 506 l 25
156 506 m 25
 156 594 l 25
 244 594 l 25
 244 506 l 25
 156 506 l 25
256 506 m 25
 256 594 l 25
 344 594 l 25
 344 506 l 25
 256 506 l 25
156 406 m 25
 156 494 l 25
 244 494 l 25
 244 406 l 25
 156 406 l 25
56 306 m 25
 56 394 l 25
 144 394 l 25
 144 306 l 25
 56 306 l 25
156 306 m 25
 156 394 l 25
 244 394 l 25
 244 306 l 25
 156 306 l 25
256 306 m 25
 256 394 l 25
 344 394 l 25
 344 306 l 25
 256 306 l 25
156 206 m 25
 156 294 l 25
 244 294 l 25
 244 206 l 25
 156 206 l 25
456 206 m 25
 456 294 l 25
 544 294 l 25
 544 206 l 25
 456 206 l 25
156 106 m 25
 156 194 l 25
 244 194 l 25
 244 106 l 25
 156 106 l 25
456 106 m 25
 456 194 l 25
 544 194 l 25
 544 106 l 25
 456 106 l 25
156 6 m 25
 156 94 l 25
 244 94 l 25
 244 6 l 25
 156 6 l 25
256 6 m 25
 256 94 l 25
 344 94 l 25
 344 6 l 25
 256 6 l 25
356 6 m 25
 356 94 l 25
 444 94 l 25
 444 6 l 25
 356 6 l 25
EndSplineSet
EndChar

StartChar: uni20BD
Encoding: 8381 8381 272
Width: 600
Flags: HMW
LayerCount: 2
Fore
SplineSet
156 606 m 25
 156 694 l 25
 244 694 l 25
 244 606 l 25
 156 606 l 25
256 606 m 25
 256 694 l 25
 344 694 l 25
 344 606 l 25
 256 606 l 25
356 606 m 25
 356 694 l 25
 444 694 l 25
 444 606 l 25
 356 606 l 25
156 506 m 25
 156 594 l 25
 244 594 l 25
 244 506 l 25
 156 506 l 25
456 506 m 25
 456 594 l 25
 544 594 l 25
 544 506 l 25
 456 506 l 25
156 406 m 25
 156 494 l 25
 244 494 l 25
 244 406 l 25
 156 406 l 25
456 406 m 25
 456 494 l 25
 544 494 l 25
 544 406 l 25
 456 406 l 25
156 306 m 25
 156 394 l 25
 244 394 l 25
 244 306 l 25
 156 306 l 25
256 306 m 25
 256 394 l 25
 344 394 l 25
 344 306 l 25
 256 306 l 25
356 306 m 25
 356 394 l 25
 444 394 l 25
 444 306 l 25
 356 306 l 25
156 206 m 25
 156 294 l 25
 244 294 l 25
 244 206 l 25
 156 206 l 25
56 106 m 25
 56 194 l 25
 144 194 l 25
 144 106 l 25
 56 106 l 25
156 106 m 25
 156 194 l 25
 244 194 l 25
 244 106 l 25
 156 106 l 25
256 106 m 25
 256 194 l 25
 344 194 l 25
 344 106 l 25
 256 106 l 25
156 6 m 25
 156 94 l 25
 244 94 l 25
 244 6 l 25
 156 6 l 25
EndSplineSet
EndChar

StartChar: uni0307
Encoding: 775 775 284
Width: 0
Flags: HMW
AnchorPoint: "marks_above" 0 600 mark 0
LayerCount: 2
Fore
SplineSet
-44 606 m 25
 -44 694 l 25
 44 694 l 25
 44 606 l 25
 -44 606 l 25
EndSplineSet
EndChar

StartChar: uni0315
Encoding: 789 789 290
Width: 0
Flags: HMW
AnchorPoint: "marks_aboveright" 0 500 mark 0
LayerCount: 2
Fore
SplineSet
6 606 m 25
 6 694 l 25
 94 694 l 25
 94 606 l 25
 6 606 l 25
6 506 m 25
 6 594 l 25
 94 594 l 25
 94 506 l 25
 6 506 l 25
EndSplineSet
EndChar

StartChar: Eng.loclNSM
Encoding: 1114118 -1 380
Width: 600
VWidth: 0
Flags: HMW
LayerCount: 2
Fore
SplineSet
56 606 m 25
 56 694 l 25
 144 694 l 25
 144 606 l 25
 56 606 l 25
456 606 m 25
 456 694 l 25
 544 694 l 25
 544 606 l 25
 456 606 l 25
56 506 m 25
 56 594 l 25
 144 594 l 25
 144 506 l 25
 56 506 l 25
456 506 m 25
 456 594 l 25
 544 594 l 25
 544 506 l 25
 456 506 l 25
56 406 m 25
 56 494 l 25
 144 494 l 25
 144 406 l 25
 56 406 l 25
156 406 m 25
 156 494 l 25
 244 494 l 25
 244 406 l 25
 156 406 l 25
456 406 m 25
 456 494 l 25
 544 494 l 25
 544 406 l 25
 456 406 l 25
56 306 m 25
 56 394 l 25
 144 394 l 25
 144 306 l 25
 56 306 l 25
256 306 m 25
 256 394 l 25
 344 394 l 25
 344 306 l 25
 256 306 l 25
456 306 m 25
 456 394 l 25
 544 394 l 25
 544 306 l 25
 456 306 l 25
56 206 m 25
 56 294 l 25
 144 294 l 25
 144 206 l 25
 56 206 l 25
356 206 m 25
 356 294 l 25
 444 294 l 25
 444 206 l 25
 356 206 l 25
456 206 m 25
 456 294 l 25
 544 294 l 25
 544 206 l 25
 456 206 l 25
56 106 m 25
 56 194 l 25
 144 194 l 25
 144 106 l 25
 56 106 l 25
456 106 m 25
 456 194 l 25
 544 194 l 25
 544 106 l 25
 456 106 l 25
56 6 m 25
 56 94 l 25
 144 94 l 25
 144 6 l 25
 56 6 l 25
456 6 m 25
 456 94 l 25
 544 94 l 25
 544 6 l 25
 456 6 l 25
456 -94 m 25
 456 -6 l 25
 544 -6 l 25
 544 -94 l 25
 456 -94 l 25
256 -194 m 25
 256 -106 l 25
 344 -106 l 25
 344 -194 l 25
 256 -194 l 25
356 -194 m 25
 356 -106 l 25
 444 -106 l 25
 444 -194 l 25
 356 -194 l 25
EndSplineSet
EndChar

StartChar: jacute
Encoding: 1114120 -1 382
Width: 500
Flags: HW
LayerCount: 2
Fore
SplineSet
156 -194 m 25
 156 -106 l 25
 244 -106 l 25
 244 -194 l 25
 156 -194 l 25
56 -194 m 25
 56 -106 l 25
 144 -106 l 25
 144 -194 l 25
 56 -194 l 25
256 -94 m 25
 256 -6 l 25
 344 -6 l 25
 344 -94 l 25
 256 -94 l 25
256 6 m 25
 256 94 l 25
 344 94 l 25
 344 6 l 25
 256 6 l 25
256 106 m 25
 256 194 l 25
 344 194 l 25
 344 106 l 25
 256 106 l 25
256 206 m 25
 256 294 l 25
 344 294 l 25
 344 206 l 25
 256 206 l 25
256 306 m 25
 256 394 l 25
 344 394 l 25
 344 306 l 25
 256 306 l 25
256 406 m 25
 256 494 l 25
 344 494 l 25
 344 406 l 25
 256 406 l 25
156 406 m 25
 156 494 l 25
 244 494 l 25
 244 406 l 25
 156 406 l 25
256 606 m 25
 256 694 l 25
 344 694 l 25
 344 606 l 25
 256 606 l 25
356 706 m 25
 356 794 l 25
 444 794 l 25
 444 706 l 25
 356 706 l 25
EndSplineSet
EndChar

